<svg xmlns="http://www.w3.org/2000/svg" viewBox="0 0 1024 768"><path d="M0 0h1024v768H0z" fill="#dfdcd3"/><path d="M486.399 382.301c1.142-6.677-6.666-12.101-10.695-15.312-11.899-9.484-12.306-10.23-17.01-31.907-1.296-5.973-3.861-15.186-5.7-20.472s-3.236-10.171-3.104-10.856c.279-1.45 2.706-2.256 7.112-2.361 2.516-.06 3.441.483 5.323 2.118 4.045 3.515 7.293 14.92 8.069 17.55 1.965-.109 6.254 2.617 8.444 5.714 3.768 5.33 7.056 8.755 13.834 12.934 8.11 5 14.589 11.692 15.673 15.594 1.157 4.167.899 28.14-.285 29.058-.829.642-17.012 2.721-20.17 3.208-3.029.467-1.782-3.565-1.491-5.268zm18.098-1.665c.057-7.993.97-20.394-1.342-25.079-1.787-3.623-6.997-8.177-14.784-13.189-5.962-3.838-8.327-6.021-12.546-11.583-2.565-3.381-4.356-5.563-6.315-5.415-.786 1.953.957 8.165 2.502 12.312 2.757 7.403 8.512 7.006 10.932 11.645.848 1.626-2.414 4.626-3.539 2.452-1.575-3.043-6.345-4.259-8.686-7.64-3.688-5.327-7.57-16.701-4.399-21.466-1.732-6.715-4.413-19.454-11.324-16.667 0 .103 1.189 3.513 2.642 7.578 2.61 7.302 5.005 16.578 7.483 28.984 2.185 10.939 3.354 12.862 11.624 19.124 10.033 7.598 14.707 12.186 14.17 20.806 4.629-.554 8.209-1.064 13.58-1.863zm-21.637-24.577c-1.145-1.454 2.145-3.593 3.57-2.136 1.405 1.436 2.268 3.319 3.082 5.074.757 1.631-2.507 3.716-3.28 2.38-.557-.963-1.445-2.871-3.372-5.318zm31.344 28.024c-.815-.222-.774-5.029-.592-14.625.242-12.806.38-13.957 1.982-16.533 2.355-3.788 9.081-9.801 16.279-14.555 4.368-2.885 7.041-5.358 9.826-9.094 2.529-3.392 7.25-8.148 10.613-8.565 1.929-6.541 4.926-14.681 9.235-18.32 1.833-1.548 10.576-1.074 11.039 1.583.14.804-1.597 6.695-3.786 12.208-3.364 8.474-4.129 12.486-6.917 26.981-2.293 11.921-4.159 15.239-13.638 22.722-9.355 7.384-12.295 10.786-11.805 17.081.267 3.437.697 4.688-2.691 4.34-6.495-.667-16.332-2.347-19.543-3.222zm17.188-1.449c.381-10.029 4.791-13.731 13.661-20.314 8.8-6.53 10.393-9.221 11.632-16.002 2.517-13.783 5.928-27.33 11.099-40.277-7.067-3.476-9.334 9.82-11.475 16.179 2.877 6.088-1.462 18.952-5.686 22.973-4.267 4.062-5.659 3.717-7.461 6.824-1.191 2.054-4.146-.962-3.526-2.338.443-.985 2.076-3.877 5.046-5.311 8.398-4.056 8.969-18.562 8.053-18.941-7.227 3.753-7.097 10.229-18.42 16.888-9.512 5.594-14.854 11.183-15.529 15.067-1.421 8.18-.786 14.797-.79 23.306zm2.396-22.787c.919-2.677 2.268-5.095 3.867-6.48.795-.689 3.726 1.484 3.135 2.355-1.431 2.107-2.509 4.077-3.265 5.801-.529 1.207-4.164-.43-3.736-1.676z" fill="#a7a29a"/><path d="M529.243 263.437c-17.878-6.617-31.975 6.349-35.808 23.204-3.3 14.527 4.095 30.697 21.056 25.8 6.965-2.01 16.601-5.352 18.904-13.165 1.625-5.503-2.149-10.515-6.135-13.833-6.847-5.699-24.595-9.982-22.891 4.358.29 2.463 1.376 4.804 2.491 6.98 1.311 2.543 5.078.736 4-1.9-2.491-6.076-2.994-12.016 5.252-9.974 5.217 1.293 11.912 5.239 13.018 10.941 1.617 8.295-15.328 13.023-20.916 13.202-8.802.28-11.388-9.001-11.205-16.151.211-8.687 4.073-17.639 10.841-23.174 8.626-7.06 22.074-3.906 29.497 3.402 16.524 16.265-.057 45.456-17.986 52.171-42.63 15.962-56.653-62.684-15.558-70.031.307-.057.218-.509-.082-.474-34.478 4.03-35.694 59.458-7.474 73.206 37.854 18.442 74.563-49.176 32.996-64.563z" fill="#6fc4bc" stroke="#6fc4bc" stroke-width="2"/><text xml:space="preserve" x="312.795" y="478.549" font-weight="900" font-size="92.418" font-family="Daniel Black" fill="#6fc4bc"><tspan x="312.792" y="511.157">Difusión</tspan></text><text xml:space="preserve" x="312.795" y="478.549" font-weight="900" font-size="92.418" font-family="Daniel Black" fill="#79736a"><tspan x="312.792" y="511.157">D</tspan></text></svg>