<?xml version="1.0" encoding="UTF-8"?>
<!-- Created with Inkscape (http://www.inkscape.org/) -->
<svg width="640" height="640" version="1.1" viewBox="0 0 640 640" xml:space="preserve" xmlns="http://www.w3.org/2000/svg"><g transform="translate(740.9 246.2)"><path d="m-599.2 389.1c-1.088-1.088-0.7961-3.622 0.7594-6.604 1.244-2.386 1.245-2.75 2e-3 -2.75-0.7877 0-1.994 0.9-2.681 2-1.232 1.973-4.768 2.815-4.768 1.135 0-1.574 4.24-6.288 6.388-7.102 3.408-1.292-4.343-1.918-29.03-2.345l-22.14-0.3828-0.6415 4.597c-0.3528 2.529-1.205 5.338-1.893 6.244-4.049 5.327-19.29 6.608-27.05 2.273-5.014-2.802-10.35-8.464-14.32-15.18-3.011-5.099-2.806-8.178 1.288-19.31 2.544-6.918 2.668-7.863 1.423-10.87-0.7496-1.81-3.209-5.453-5.466-8.097-2.257-2.644-4.625-6.754-5.262-9.133-1.033-3.857-0.921-4.757 1.037-8.314 1.207-2.194 3.024-4.149 4.038-4.344 2.957-0.5694 8.295 5.52 11.16 12.73 1.443 3.629 4.051 8.84 5.795 11.58 2.663 4.183 3.141 5.841 2.976 10.34-0.112 3.06-0.9271 6.477-1.898 7.96-2.475 3.778-3.44 9.045-2.167 11.84 1.328 2.913 2.762 3.091 2.762 0.3417 0-1.119 0.7873-3.237 1.749-4.705 2.868-4.378 4.509-9.424 4.971-15.29 0.3857-4.9 0.0141-6.32-3.272-12.5-2.039-3.834-4.424-8.322-5.301-9.972-0.9231-1.738-1.653-5.735-1.736-9.5-0.1286-5.89-4.877-23.47-7.16-26.5-0.4137-0.55-4.418-1-8.899-1-9.822 0-12.35-1.554-12.35-7.584 0-6.598 3.83-8.556 14.92-7.626l6.701 0.5618 3.372-5.676c1.855-3.122 6.733-10.82 10.84-17.12l7.468-11.44-3.057-2.558c-3.324-2.781-7.917-12.15-8.866-18.08-1.003-6.273 1.938-14.07 7.68-20.35l5.046-5.522-2.455-5.367c-1.35-2.952-2.914-7.031-3.476-9.064-0.5613-2.033-2.518-7.28-4.348-11.66-3.106-7.433-3.56-8.007-6.827-8.608-6.222-1.145-13.6-6.044-16.09-10.68-2.644-4.934-3.168-16.35-1.078-23.49 1.54-5.257 6.193-10.7 11.43-13.37 3.491-1.781 3.889-2.344 3.398-4.801-0.3062-1.531-0.828-5.209-1.16-8.174-0.3316-2.965-0.8078-6.757-1.058-8.427l-0.4556-3.037-7.274 0.9222c-9.636 1.222-16.57-0.7073-23.05-6.414-4.854-4.273-5.569-5.938-3.342-7.786 0.9868-0.819 3.834-0.1928 11.25 2.474 12.55 4.514 16.77 4.274 31.43-1.783 10.37-4.285 10.67-4.344 24.01-4.661 13.43-0.3194 13.55-0.302 19.35 2.75 3.211 1.689 7.3 3.071 9.085 3.071 5.018 0 42.16-17.78 92.8-44.42l12.75-6.708v-7.058c0-6.133-0.1949-6.896-1.487-5.824-2.571 2.134-6.038 0.3898-8.038-4.044-2.151-4.769 0.1846-4.819-24.48 0.5178-8.525 1.845-18.65 3.899-22.5 4.565-6.351 1.099-7.139 1.501-8.5 4.341-0.825 1.722-2.532 3.58-3.793 4.13-2.009 0.8761-2.213 1.476-1.646 4.843 0.569 3.379 0.4234 3.801-1.207 3.489-1.158-0.2211-2.18-1.671-2.724-3.862-0.6874-2.772-1.684-3.856-4.75-5.165l-3.88-1.657v5.509c0 6.204-1.811 7.003-3.457 1.527-1.375-4.576-3.369-4.008-3.736 1.066-0.4364 6.031-3.128 5.861-3.808-0.2411-0.5513-4.952-2.186-5.976-5.5-3.448-1.506 1.149-1.976 2.627-1.904 5.983 0.0796 3.701-0.2173 4.457-1.75 4.457-1.476 0-1.846-0.774-1.846-3.858v-3.858l-5.833-0.6096c-7.474-0.7812-8.603-1.252-10.21-4.258-1.159-2.166-1.05-3.044 0.8732-7.002 1.668-3.433 3.221-4.99 6.435-6.448 5.187-2.354 10.53-2.499 13.57-0.3673 2.093 1.466 2.431 1.466 4.051 0 1.92-1.738 8.706-2.141 11.05-0.6567 1.007 0.6369 2.313 0.1795 4.327-1.515 1.587-1.335 3.447-2.428 4.134-2.428 2.061 0 5.778-4.647 6.486-8.11 0.3645-1.782 1.214-3.424 1.887-3.649 2.084-0.6946 1.489 7.152-0.7585 10.01l-1.983 2.521 2.874 1.19c4.297 1.78 7.335-0.5334 9.469-7.212 0.8235-2.577 3.623-2.19 3.615 0.5-9e-3 2.959-3.066 7.5-6.635 9.852-2.505 1.651-2.603 1.886-0.7924 1.891 2.512 8e-3 11.64-1.543 20.43-3.472 3.575-0.7842 10.78-2.357 16-3.495s10.51-2.293 11.75-2.567c2.057-0.4547 2.253-1.076 2.285-7.228 0.0193-3.702 0.6654-9.656 1.436-13.23 0.7703-3.575 1.092-6.783 0.7149-7.129-0.3771-0.346-5.186-2.294-10.69-4.329-5.5-2.035-13.15-5.094-17-6.798-7.564-3.347-32.77-12.26-46.5-16.45l-8.5-2.591-6 2.059c-3.3 1.133-8.373 2.304-11.27 2.604-2.901 0.2994-5.775 0.8539-6.387 1.232-0.7554 0.4669-0.9116 3.304-0.4863 8.836 0.7075 9.205-0.596 12.56-4.875 12.56-3.052 0-4.482-2.638-5.199-9.586-0.5021-4.865-0.7982-5.414-2.919-5.414-2.188 0-2.36 0.3926-2.36 5.389 0 6.024-2.481 10.41-5.282 9.333-1.719-0.6598-3.703-6.523-3.712-10.97-5e-3 -2.694-0.1281-2.75-6.006-2.75-5.608 0-6 0.1514-6 2.318 0 1.275-0.6924 4.65-1.539 7.5-1.291 4.346-1.92 5.182-3.902 5.182-2.765 0-4.559-3.993-4.559-10.15 0-2.756-0.4264-3.851-1.5-3.851-1.152 0-1.5 1.278-1.5 5.5 0 4.167-0.4848 5.985-2 7.5-2.411 2.411-3.37 2.487-5.429 0.4286-1.236-1.236-1.571-3.894-1.571-12.45v-10.88l-3.75-0.5991c-5.101-0.815-6.692-1.804-7.077-4.399-0.6076-4.096 1.163-4.771 14.08-5.368 6.737-0.3114 14.5-1.025 17.25-1.586 2.75-0.5608 9.327-1.758 14.62-2.66l9.616-1.64 0.6341-6.067c0.7115-6.807 1.999-9.008 5.013-8.57 2.166 0.3145 4.159 3.461 5.097 8.048 0.7553 3.693 3.524 3.647 3.524-0.0589 0-3.069 1.606-5.604 4.091-6.459 2.583-0.8887 4.025 0.7114 4.617 5.124 0.3057 2.279 0.9407 4.144 1.411 4.144s4.973-3.938 10.01-8.75 12.99-12.4 17.68-16.87l8.526-8.12-2.772-1.816c-2.516-1.649-2.725-2.234-2.261-6.347 0.515-4.569 4.075-9.097 7.152-9.097 0.7331 0 1.615-1.503 1.96-3.34s1.729-4.376 3.077-5.642c2.18-2.048 3.073-2.228 8.104-1.637 6.205 0.7293 10.53 3.427 12.41 7.739 1.328 3.049 4.771 4.867 9.303 4.912 1.762 0.0175 4.076 0.6925 5.144 1.5 2.884 2.181 4.634 1.768 9.059-2.139 2.2-1.943 7.488-6.466 11.75-10.05 6.838-5.753 7.75-6.916 7.75-9.883 0-3.03-0.3711-3.469-3.75-4.428-8.393-2.383-55.96-12.35-74.25-15.56-5.225-0.9164-12.09-2.48-15.25-3.475-3.489-1.098-5.75-1.4-5.75-0.7684 0 0.5722 2.025 5.315 4.5 10.54 5.798 12.24 5.805 13.61 0.079 15.21-5.302 1.484-6.079 1.103-7.627-3.742-0.6566-2.055-1.492-4.066-1.856-4.469-0.9991-1.106-12.33 0.9985-13.24 2.459-0.437 0.7006-1.077 3.143-1.423 5.428-0.5983 3.956-0.8121 4.172-4.468 4.521-2.112 0.2014-4.317 0.2069-4.901 0.0122-1.693-0.5643-1.239-8.222 1.382-23.31l0.4559-2.624-23.7-1.415-5.35 5.485c-5.764 5.91-9.892 7.68-17.85 7.651-14.07-0.0512-26.75-15.39-27.78-33.61-0.984-17.46 5.759-25.62 23.15-28l4.629-0.6345v4.218c0 2.32-1.069 7.444-2.375 11.39-1.306 3.942-3.344 10.25-4.528 14.02s-3.037 8.687-4.118 10.92c-2.263 4.683-1.956 5.461 1.642 4.156 1.9-0.689 3.018-2.252 4.23-5.92 2.785-8.423 9.906-10.11 16.3-3.866 3.688 3.601 3.773 3.627 6.351 1.938 1.437-0.9417 3.599-1.572 4.804-1.4 1.921 0.2734 2.191 0.9282 2.191 5.312v5l23.17 0.5606 1.288-10.28c0.7083-5.654 1.738-10.84 2.288-11.53s3.14-1.25 5.755-1.25 5.203 0.5625 5.751 1.25 2.92 4.962 5.271 9.5c3.564 6.88 4.676 8.25 6.692 8.25 1.33 0 3.299 0.4716 4.376 1.048 1.077 0.5763 9.035 2.386 17.68 4.021 28.1 5.313 52.24 10.35 67.39 14.05 4.217 1.032 8.154 1.876 8.75 1.876 0.7243 0 1.083-4.469 1.083-13.48 0-13.16 0.0542-13.49 2.25-14.01 1.238-0.2927 3.6-0.1547 5.25 0.3066 2.989 0.8356 3 0.8669 3 8.263 0 4.083-0.225 14.62-0.5 23.42l-0.5 16 22 1v5c0 4.912-0.0595 5.009-3.369 5.5l-3.369 0.5 10.87 9.9c5.978 5.445 14.89 13.65 19.79 18.24 4.908 4.588 8.99 8.233 9.071 8.1 0.4421-0.732-5.053-73.67-6.61-87.74-1.045-9.442-1.451-10.79-4.023-13.37-1.574-1.578-2.861-3.678-2.861-4.668 0-1.513-0.8469-1.792-5.323-1.751-8.164 0.0734-11.68-2.845-11.68-9.7 0-3.482 5.416-8.395 10.08-9.14 2.157-0.345 3.922-0.8826 3.922-1.195s-1.121-1.738-2.491-3.168c-3.414-3.564-4.506-11.25-1.992-14.03 2.799-3.093 7.126-2.539 11.08 1.418 1.87 1.87 3.4 4.12 3.4 5 0 2.327 0.7037 2.007 4.107-1.869 3.582-4.079 9.177-5.675 11.56-3.296 0.8195 0.8195 1.744 3.381 2.054 5.692 0.4452 3.32 0.1124 4.812-1.585 7.108l-2.148 2.906 2.867 1.483c3.18 1.644 5.664 6.499 4.873 9.523-0.6339 2.424 5.561 7.742 33.23 28.53 2.554 1.919 4.169 2.439 6.195 1.994 3.947-0.8669 14.07 2.261 18.12 5.601 3.406 2.808 5.117 6.327 9.201 18.93 3.461 10.68 3.148 10.25 6.27 8.65 1.519-0.7777 7.038-2.86 12.26-4.627s11.98-4.281 15-5.586c3.025-1.305 10.68-4.372 17-6.814l11.5-4.441 0.2885-7.973c0.2786-7.699 0.2057-7.994-2.123-8.578-1.419-0.356-2.926-1.846-3.66-3.618-0.6864-1.657-1.436-3.013-1.666-3.013-0.2302 0-2.183 0.9-4.339 2-5.331 2.72-6.655 2.545-10.6-1.4-2.664-2.664-3.408-4.234-3.439-7.25-0.0323-3.232-0.5537-4.171-3.25-5.85-4.173-2.599-6.928-8.169-6.096-12.33 0.9012-4.506 4.641-8.173 8.337-8.173 2.657 0 3.048-0.3524 3.051-2.75 5e-3 -3.42 3.089-8.609 6.41-10.79 3.342-2.189 9.77-2.971 12.49-1.518 1.909 1.022 2.55 0.7835 5.027-1.868 3.356-3.593 6.84-5.08 11.89-5.075 3.663 4e-3 10 3.067 11.43 5.522 0.5906 1.016 1.824 0.875 5.898-0.6733 2.833-1.077 6.547-1.821 8.253-1.655 2.655 0.2587 3.287 0.889 4.391 4.373 1.18 3.726 1.539 4.034 4.237 3.638 4.662-0.6843 7.623 0.5072 8.766 3.528 2.028 5.359 2.211 8.225 0.79 12.35-0.9896 2.872-1.148 4.925-0.509 6.605 0.5098 1.341 0.9269 4.648 0.9269 7.35 0 4.116-0.3991 5.173-2.462 6.525-1.354 0.8872-4.239 1.851-6.411 2.143-3.509 0.4707-4.017 0.8912-4.558 3.773-1.13 6.022-7.028 8.883-12.49 6.058-1.725-0.8922-3.574-1.352-4.108-1.022s-0.9706 3.997-0.9706 8.149c0 7.32 0.0683 7.533 2.25 7.017 2.072-0.4902 7.453-1.298 24.75-3.715 30.42-4.251 27.24-3.382 25.23-6.897-1.566-2.729-1.564-3.142 0.034-6.494 1.401-2.937 2.248-3.579 4.723-3.579 1.659 0 3.016-0.45 3.016-1s-0.45-1-1-1-1.9-0.9-3-2c-2.516-2.516-2.654-8.62-0.2719-12.03 3.425-4.9 4.774-5.979 9.402-7.516 4.254-1.413 5.209-1.414 10.04-9e-3 5.992 1.744 10.42 5.39 16.44 13.55 8.5 11.51 11.44 19.1 9.443 24.36-2.269 5.969-21.52 11.24-26.06 7.139-1.74-1.575-2.626-1.649-7.732-0.649-3.172 0.6212-6.891 1.247-8.266 1.39-1.839 0.1917-2.574 0.9217-2.778 2.761-0.5825 5.23-4.556 24.13-8.379 39.85-2.186 8.993-3.823 16.5-3.636 16.69 0.1866 0.1866 4.989 0.8165 10.67 1.4 14.31 1.469 30.96 1.325 38.92-0.336 3.684-0.768 10.97-1.923 16.2-2.567s10.29-1.396 11.25-1.671c1.248-0.3569 1.75 0.0703 1.75 1.489 0 2.545-7.906 9.399-14.74 12.78-5.199 2.571-5.229 2.612-3.78 5.229 0.8032 1.451 3.264 6.912 5.469 12.14 3.175 7.526 4.376 9.421 5.78 9.119 0.9743-0.2093 4.998-0.5811 8.941-0.8262l7.17-0.4456 2.08 4.703c1.144 2.587 2.08 5.516 2.08 6.509s1.003 2.124 2.228 2.513c1.225 0.3889 4.619 2.512 7.541 4.718 4.637 3.501 6.196 4.092 12.26 4.648 5.234 0.4797 7.309 1.12 8.428 2.599 2.194 2.902 1.869 5.065-1.115 7.412-6.078 4.781-12.14 3.902-19.55-2.835-8.67-7.884-11.72-8.613-11.77-2.808-0.0178 2.096 9.239 11.32 12.35 12.31 3.789 1.203 9.324 5.407 10.49 7.969 2.453 5.383 0.2005 10.41-4.661 10.41-1.951 0-7.46-4.997-9.521-8.635-0.454-0.8014-3.196-2.506-6.093-3.787-3.054-1.351-6.228-3.678-7.553-5.539-2.068-2.904-2.434-3.062-3.841-1.654-1.367 1.367-1.382 1.88-0.126 4.228 0.7864 1.469 3.007 3.716 4.935 4.992s4.237 2.908 5.131 3.627c1.929 1.551 6.874 13.49 6.874 16.6 0 2.764-3.684 6.507-5.659 5.749-0.8274-0.3175-1.907-0.5773-2.4-0.5773-1.613 0-4.33-5.175-4.891-9.316-0.4774-3.521-1.144-4.403-5.05-6.684-2.632-1.537-5.427-4.262-6.734-6.564-2.738-4.825-2.977-2.315-0.3516 3.687 2.188 5.001 3.61 14.65 2.619 17.77-0.6702 2.112-3.968 2.843-6.057 1.343-2.609-1.874-4.223-6.314-4.69-12.9-0.5623-7.933-3.141-13.65-6.372-14.12-1.716-0.252-2.282 0.8934-4.197 8.5-1.217 4.835-3.97 15.43-6.117 23.54-2.147 8.114-3.551 14.97-3.12 15.24 0.431 0.2664 1.988-0.4626 3.459-1.62 3.812-2.999 11.91-5.868 16.55-5.868 4.933 0 11.75 2.642 13.04 5.055 0.534 0.9977 0.9708 4.113 0.9708 6.923 0 4.689-0.3763 5.511-4.586 10.01-2.735 2.924-6.184 5.435-8.545 6.222l-3.959 1.32 9.267 18.74c8.533 17.25 9.477 18.74 11.91 18.74 6.628 0 10.18 7.504 8.038 16.97-0.5569 2.46-0.8279 4.657-0.6023 4.883 0.2256 0.2256 2.016-0.9997 3.979-2.723 3.04-2.669 4.354-3.133 8.879-3.133 6.542 0 8.825 2.051 8.983 8.069 0.0839 3.199-0.4171 4.556-2.222 6.017-3.255 2.636-9.835 4.218-14.47 3.477l-3.909-0.625 2.117 3.588c1.164 1.973 2.117 4.237 2.117 5.03 0 2.545-2.897 1.542-4.5-1.557-1.925-3.723-3.854-4.062-2.475-0.4349 1.347 3.542 1.22 5.435-0.3642 5.435-1.415 0-3.661-4.053-3.661-6.606 0-0.8316-0.3896-1.271-0.8659-0.9768-0.4762 0.2943-0.6502 1.663-0.3866 3.042 0.2636 1.379 0.1711 3.302-0.2055 4.274-0.642 1.656-0.7741 1.645-2.113-0.1744-0.7857-1.068-1.429-3.585-1.429-5.595 0-3.691-2.929-7.744-4.773-6.604-1.16 0.7172-23.47 3.869-58.23 8.226-7.425 0.9308-14.09 1.999-14.8 2.373-0.8261 0.4314 1.739 2.416 7 5.414 4.567 2.603 11.23 6.488 14.8 8.634 3.575 2.145 8.075 4.753 10 5.796 4.695 2.542 13.54 7.74 24.72 14.52 14.68 8.905 14.56 8.86 19.55 7.526 5.255-1.406 8.508-0.71 12.06 2.578 2.281 2.114 2.672 3.293 2.672 8.056 0 3.069-0.6574 7.153-1.461 9.076-1.186 2.837-2.985 20.11-3.011 28.91-6e-3 2.069 3.055 4.053 7.73 5.01 4.297 0.8793 8.725 5.475 9.406 9.764 0.7179 4.516-0.8188 6.758-4.632 6.758-1.497 0-3.536 0.8992-4.531 1.998-1.651 1.825-1.749 3.397-1.121 18.08 0.6455 15.1 0.5785 16.06-1.097 15.74-1.601-0.3072-1.813-1.858-2.061-15.08l-0.2767-14.74h-2.771c-2.762 0-2.77 0.0202-2.492 6.25 1.039 23.33 1.026 23.84-0.6108 23.53-1.772-0.3366-2.757-7.5-2.956-21.49-0.106-7.448-0.3268-8.323-2.367-9.375-1.238-0.6381-3.15-1.945-4.25-2.904-1.1-0.9591-3.347-2.064-4.994-2.455-4.028-0.9572-5.506-2.337-5.506-5.138 0-2.774 5.199-9.028 8.312-9.999 3.207-1 3.656-2.191 3.673-9.743l0.0153-6.83-6.25 0.6401c-5.431 0.5562-22.65 1.238-36.67 1.452l-4.424 0.0675 2.108 2.25c4.92 5.252 5.326 12.75 0.6898 12.75-3.197 0-8.513-2.207-10.78-4.476-1.561-1.561-1.942-1.59-3.46-0.2665-4.48 3.907-17.21 7.743-25.7 7.743h-5.394l-0.3075 4.241c-0.2298 3.17-0.7696 4.329-2.137 4.589-3.538 0.6715-6.401-0.833-9.158-4.812l-2.785-4.018h-13.73l0.0136 14.75c0.019 20.51-0.6341 19.25 9.996 19.25 9.635 0 9.99 0.2299 9.99 6.459 0 4.313-1.253 5.176-8.75 6.027l-6.25 0.7096v3.867c0 2.672 0.5405 4.145 1.75 4.768 0.9625 0.4959 12.68 1.21 26.03 1.587l24.28 0.6849-0.1397-10.6c-0.1905-14.46-0.2982-14.37 17.83-16.13l6.25-0.6066v4.141c0 4.615-1.443 5.643-9.467 6.742-3.998 0.548-4.096 0.653-3.708 3.976l0.3984 3.413 4.839-0.6419c4.58-0.6075 4.873-0.5058 5.477 1.901 1.181 4.704 0.2477 6.125-4.725 7.197-5.686 1.225-6.228 1.721-5.415 4.958 0.5581 2.224 1.176 2.548 4.87 2.56 5.597 0.0181 8.731 0.9235 8.731 2.523 0 1.203 4.271 2.939 13 5.283 1.925 0.5171 11.02 3.244 20.2 6.06 9.188 2.816 17.18 5.12 17.76 5.12 0.9854 0 0.7594-4.326-0.5649-10.82-0.342-1.676 0.3952-3.126 2.669-5.25 2.555-2.386 4.021-2.934 7.854-2.934 10.21 0 18.4 4.411 21.01 11.32 0.585 1.548 1.064 6.18 1.064 10.29v7.478l-4.644 4.964c-2.554 2.73-6.041 5.808-7.75 6.84-3.069 1.853-15.19 4.484-16.61 3.605-0.4035-0.2494-0.9978-1.774-1.321-3.389l-0.5871-2.936-4.292 1.34c-2.361 0.7368-9.242 2.912-15.29 4.835s-16.18 4.92-22.5 6.661c-6.325 1.741-14.42 4.217-18 5.501-3.575 1.284-7.464 2.61-8.642 2.947-1.178 0.3366-2.373 1.497-2.656 2.579-0.7474 2.858-2.224 2.448-6.982-1.938-4.163-3.837-4.287-3.878-7.202-2.35-3.89 2.038-14.92 2.774-20.19 1.347-2.35-0.6359-5.212-2.36-6.543-3.942l-2.366-2.811-21.46-1.184c-30.63-1.691-28.74-1.839-29.52 2.309-1.05 5.597-2.527 5.992-7.607 2.034l-4.478-3.488-8.008 2.923c-8.139 2.97-13.99 3.27-18.85 0.9643-1.427-0.6777-6.012-0.0549-16 2.174-7.7 1.718-17.77 3.953-22.37 4.966-11.67 2.57-11.13 2.18-11.13 7.963 0 6.827-1.666 7.244-7.911 1.978l-4.988-4.206-4.572 2.213c-3.969 1.921-5.499 2.12-11.6 1.507-5.319-0.5341-7.735-1.3-9.933-3.149-3.854-3.243-21.47-11.85-42.93-20.97-17.84-7.584-19.01-7.775-19.06-3.092-0.0315 3.666-3.115 3.12-6.863-1.215l-3.652-4.223-5.5 2.569c-3.025 1.413-6.917 2.573-8.649 2.579-2.628 8e-3 -4.727 1.567-12.69 9.423-9.313 9.193-12.66 13.97-15.48 22.09-0.7646 2.2-2.098 4.798-2.964 5.774-1.206 1.36-1.299 2.048-0.3972 2.95 1.263 1.263 1.624 4.776 0.4908 4.776-0.377 0-1.704-0.9569-2.949-2.127-1.245-1.17-2.938-1.868-3.763-1.551-1.326 0.5088-1.318 0.939 0.0645 3.711 1.194 2.393 1.287 3.412 0.3948 4.301-0.8909 0.8879-1.596 0.6014-2.959-1.203-1.506-1.993-2.121-2.191-3.88-1.25-3.561 1.906-13.81 1.369-18.38-0.9623-4.19-2.138-5.39-1.838-5.994 1.498-0.371 2.05-2.03 3.067-3.16 1.937zm-63.72-4.303c5.016-0.9679 8.001-3.883 8.103-7.912 0.0687-2.733 3.978-10.99 9.782-20.65 3.923-6.533 5.099-14.64 3.216-22.18-1.685-6.74-7.562-12.55-9.509-9.4-0.309 0.5 0.8539 6.048 2.584 12.33 3.989 14.48 3.636 17.1-3.191 23.72-4.757 4.609-8.882 11.68-8.928 15.3-0.038 3.024-2.564 1.909-4.838-2.136-2.952-5.252-2.752-8.985 0.928-17.37 3.698-8.425 3.519-12.39-0.995-22.03-1.602-3.42-4.11-9.447-5.574-13.39-2.729-7.358-4.66-9.987-6.499-8.85-2.263 1.398-0.8589 7 4.025 16.06 6.28 11.65 7.26 17.67 4.053 24.92-1.167 2.639-2.122 5.36-2.122 6.048s-0.6631 1.801-1.474 2.473c-2.359 1.958-2.915 7.37-1.115 10.85 1.925 3.723 2.041 6.171 0.2914 6.171-1.389 0-7.338-5.901-10.05-9.973-2.405-3.606-2.164-11.41 0.4618-14.96 2.739-3.705 3.466-10.75 1.451-14.06-0.8365-1.375-3.59-6.775-6.12-12-4.39-9.069-6.942-13-8.437-13-0.3765 0-1.184 1.096-1.794 2.435-1.573 3.452-0.1084 7.641 4.649 13.3 7.152 8.503 7.758 13.39 3.101 25.02-3.467 8.658-3.245 10.46 2.163 17.57 4.254 5.592 7.572 8.473 12.38 10.74 4.419 2.089 6.833 2.266 13.46 0.9864zm91.74-3.241c3.322-3.121 3.053-7.713-0.6615-11.27-2.645-2.534-3.704-2.846-9.969-2.937-8.124-0.1178-10.74 1.571-11.71 7.564-0.514 3.167-0.2227 3.797 2.73 5.899 6.035 4.297 15.45 4.655 19.61 0.7458zm8.754-6.432c1.763-0.6765 4.545-6.492 4.545-9.501 0-1.033 0.4151-1.878 0.9224-1.878 1.168 0 3.391-6.602 2.781-8.259-0.2514-0.6827-0.7782-0.0363-1.171 1.436-1.119 4.199-3.16 4.139-7.185-0.2122-3.818-4.126-5.348-4.885-5.348-2.653 0 1.553 4.741 6.127 7.275 7.019 1.367 0.4811 1.622 1.262 1.11 3.397-0.8402 3.503-3.063 7.955-4.377 8.768-0.98 0.6057-1.426 2.504-0.5889 2.504 0.23 0 1.147-0.2796 2.037-0.6213zm-92.43-16.6c6.024-6.316 6.151-7.763 2.002-22.78-2.604-9.425-2.753-10.73-1.452-12.73 2.923-4.505 9.583-3.576 12.42 1.734 0.5887 1.1 1.453 2 1.921 2s3.673-2.719 7.123-6.042c4.751-4.577 5.991-6.323 5.114-7.2-2.05-2.05-1.352-7.227 1.312-9.729 2.231-2.096 3.076-2.258 8.75-1.674 3.597 0.3701 8.329 1.703 11.07 3.12l4.794 2.474 4.625-2.879c2.544-1.583 5.224-2.649 5.956-2.368 1.615 0.6197 1.712 5.422 0.2486 12.25-0.8435 3.933-1.507 5.049-3 5.049-1.054 0-1.917-0.3375-1.917-0.75s-1.583-2.013-3.517-3.556l-3.517-2.806-3.215 2.289c-2.566 1.827-4.728 2.333-10.71 2.506l-7.495 0.2164-13.8 13.47 0.1753 8.663c0.2025 10.01-0.9804 14.21-6.234 22.12-2.027 3.054-3.686 6.052-3.686 6.662 0 0.7718 6.832 1.197 22.42 1.396l22.42 0.2865-0.5656-5c-0.3111-2.75-1.441-6.746-2.511-8.88-2.553-5.091-1.712-9.481 2.715-14.17 4.925-5.222 7.114-4.46 6.671 2.322-0.1881 2.878-0.0225 5.233 0.368 5.233 0.3904 0 2.247-1.35 4.127-3 4.975-4.368 6.347-3.983 6.347 1.777 0 5.937-1.919 8.797-6.476 9.652-3.51 0.6584-3.937 1.268-3.553 5.071 0.3202 3.176 1.673 3.863 4.167 2.116 1.269-0.8886 3.945-1.616 5.948-1.616 3.638 0 3.642-5e-3 4.746-5.75 0.6079-3.162 2.665-13.85 4.571-23.75 3.904-20.28 7.882-43.07 9.598-55 0.6331-4.4 1.391-9.012 1.684-10.25 0.4763-2.013 0.1558-2.25-3.038-2.25-3.45 0-3.687-0.2451-7.007-7.25-1.89-3.988-3.763-8.344-4.162-9.681s-1.564-3.809-2.589-5.494l-1.862-3.063 0.4748 25.99-4.052 0.2978c-5.935 0.4362-7.288-1.549-7.652-11.22-0.218-5.793-0.6916-8.056-1.796-8.582-0.825-0.3933-8.574-4.223-17.22-8.509l-15.72-7.794-4.415 4.07c-8.019 7.392-12.51 8.491-25.14 6.155-5.596-1.034-5.947-0.977-7.629 1.25-2.429 3.217-18.87 29.6-18.87 30.28 0 0.3034 0.493 0.5517 1.096 0.5517s2.394 0.9242 3.98 2.054l2.884 2.054 4.532-2.656c6.426-3.766 7.818-2.911 6.998 4.295-0.884 7.773-1.375 9.254-3.071 9.254-1.586 0-4.595-1.541-8.297-4.25-2.838-2.076-4.024-2.14-6.392-0.3438-1.672 1.269-1.584 1.911 1.609 11.72 2.468 7.579 3.966 10.68 5.557 11.49 4.148 2.116 7.045 5.699 8.718 10.78 0.9239 2.808 3.485 9.156 5.69 14.11 5.147 11.55 5.299 16.21 0.8529 26.23-2.302 5.183-3.018 7.983-2.535 9.907l0.6731 2.682 1.878-3.66c1.033-2.013 4.116-6.007 6.852-8.876zm90.61 8.54c0.5706-2.274 0.0914-3.171-3.147-5.889-3.258-2.735-3.8-3.758-3.68-6.95 0.3258-8.665 2.932-9.723 8.573-3.479 1.988 2.2 3.784 4 3.991 4s0.6466-1.238 0.9755-2.75c0.3288-1.512 1.026-3.396 1.549-4.186 1.306-1.973 3.762 0.1065 4.593 3.888l0.6181 2.814 14.39-14.27-3.5-1.258c-7.369-2.649-9.226-9.17-4.077-14.32 2.297-2.297 3.817-2.923 7.096-2.923 5.481 0 14.5 2.672 19.35 5.731l3.876 2.447 4.167-4.089c2.292-2.249 4.66-4.089 5.262-4.089 1.258 0 2.295 3.248 2.315 7.25 8e-3 1.512 0.1633 2.75 0.3462 2.75 0.304 0 11.4 4.615 29.08 12.1 3.803 1.609 11.73 5.21 17.6 8.002l10.69 5.076 2.896-2.702c2.726-2.543 3.301-2.668 9.792-2.133 4.46 0.3676 8.779 1.49 12.23 3.177l5.332 2.609 4.452-3.063c5.406-3.72 6.371-3.791 7.189-0.5324 0.437 1.741 1.145 2.376 2.269 2.037 0.8987-0.2716 3.884-0.9763 6.634-1.566 2.75-0.5897 9.5-2.146 15-3.458s12.61-2.909 15.81-3.547c5.682-1.136 5.801-1.228 5.5-4.256-0.2778-2.8-0.9554-3.36-7.093-5.87-3.732-1.526-14.76-5.557-24.5-8.958s-21.48-7.697-26.09-9.548c-4.607-1.85-8.733-3.364-9.171-3.364s-1.091 1.35-1.454 3c-0.8734 3.977-2.349 3.785-7.329-0.9523l-4.155-3.952-3.758 1.613c-2.129 0.9135-6.722 1.652-10.59 1.702-6.303 0.0825-7.024-0.1292-9.25-2.716-3.155-3.667-3.227-8.845-0.164-11.75 1.935-1.836 3.04-2.055 7.89-1.566 5.626 0.5673 5.643 0.5606 6.85-2.654 0.6658-1.773 2.515-6.373 4.108-10.22 1.594-3.85 3.519-9.025 4.279-11.5s1.688-5.232 2.062-6.127c0.4952-1.185 3e-3 -1.797-1.813-2.252-3.441-0.8636-3.968-3.406-2.54-12.26 1.215-7.531 1.202-7.637-1.179-9.479-1.324-1.025-6.403-3.944-11.29-6.487-4.883-2.543-12.53-6.823-17-9.511l-8.121-4.887-0.6924 3.751c-0.3808 2.063-0.7183 5.175-0.75 6.915l-0.0576 3.165-6.75 0.3753c-6.789 0.3774-10.25-0.8694-10.25-3.693 0-0.648-1.563-4.741-3.474-9.095l-3.474-7.917-0.0262 10.84c-0.0236 9.755-0.2148 10.89-1.904 11.33-1.601 0.4187-1.972 1.84-2.521 9.656-0.3539 5.041-0.8859 11.87-1.182 15.17l-0.5387 6 11.04 4.712 3.408-2.106c5.559-3.435 8.178-2.296 7.127 3.099-0.2461 1.262-0.731 3.794-1.078 5.625-0.8448 4.464-2.398 4.814-7.389 1.663l-4.197-2.65-4.831 2.078c-9.88 4.25-22.96 1.696-22.96-4.484 0-1.531 1.196-3.788 2.923-5.515 2.44-2.44 3.738-2.923 7.849-2.923h4.926l0.6456-9.75c1.026-15.49 0.8414-19.39-1.013-21.44-0.9604-1.061-1.862-4.173-2.124-7.329-0.2502-3.016-0.6586-5.484-0.9076-5.484-0.5247 0-14.61 5.774-24.8 10.16-3.85 1.659-8.912 3.693-11.25 4.521l-4.25 1.505-0.0137 9.156c-0.0171 11.44-0.5684 13.66-3.396 13.66-2.022 0-2.302 0.8732-3.935 12.25-2.021 14.09-4.788 30.06-8.181 47.25-4.328 21.92-6.474 33.69-6.474 35.49 0 1.232 1.035 1.979 3.34 2.411 1.837 0.3446 4.39 1.745 5.674 3.111 2.968 3.159 3.787 3.124 4.621-0.1974zm-35.36-3.297c-0.3634-2.709-0.0259-4.754 1.058-6.407 1.377-2.102 1.395-2.504 0.1288-2.99-1.023-0.3927-1.469-2.146-1.485-5.843l-0.0222-5.281-1.956 2.5c-2.335 2.984-2.552 6.888-0.5318 9.559 0.8075 1.068 1.482 3.592 1.5 5.609 0.0291 3.358 0.8139 6.832 1.544 6.832 0.1638 0 0.0577-1.79-0.2358-3.979zm194.7 0.6039c0-0.7562-0.2796-2.773-0.6213-4.482l-0.6213-3.107-5.949 4.236 2.846 2.328c3.296 2.696 4.346 2.944 4.346 1.025zm-15.48-2.017c2.867-2.097 0.5981-4.083-7.021-6.145-5.422-1.468-6.902-1.539-9.512-0.4581-3.762 1.558-3.756 4.806 0.0113 6.706 3.405 1.717 14.12 1.65 16.52-0.102zm-169.9-8.858c0.429-0.6875 0.9084-2.074 1.065-3.081 0.2524-1.622-0.0441-1.564-2.591 0.5-1.582 1.282-2.683 2.669-2.447 3.081 0.6763 1.182 3.115 0.8753 3.973-0.5zm369.3-3.729c0-2.814-0.1379-2.916-2.5-1.839-2.809 1.28-3.028 1.89-1.3 3.618 2.128 2.128 3.8 1.346 3.8-1.779zm-14.57-0.3463c1.652-1.208 1.382-1.508-3.059-3.402-7.354-3.136-12.58-4.488-15.89-4.112-2.564 0.2913-2.982 0.7552-2.982 3.309 0 2.165 0.6783 3.314 2.5 4.235 3.369 1.705 17.09 1.683 19.43-0.0306zm28.07-2.027c3.85-1.357 10.6-3.445 15-4.64 9.598-2.607 39.06-11.7 42.3-13.05 2.051-0.857 2.269-1.534 2-6.21l-0.3022-5.248-10-3.2c-5.5-1.76-14.72-4.611-20.5-6.335s-13.01-3.906-16.08-4.848c-4.561-1.402-5.797-1.477-6.789-0.4149-1.497 1.602-13.53 1.754-17.91 0.226-3.14-1.095-5.222-4.855-5.222-9.431 0-2.135-0.4384-2.226-13.75-2.862-7.562-0.3611-19.04-0.9403-25.5-1.287l-11.75-0.6306v5.405c0 4.459 0.5827 6.278 3.329 10.39 3.668 5.495 13.59 22.98 16.17 28.49 1.489 3.185 2.285 3.662 8.821 5.291 3.951 0.9848 9.798 3.146 12.99 4.802l5.809 3.011 4.566-2.552c6.764-3.78 7.716-3.498 6.954 2.064-0.5606 4.09-0.4337 4.552 1.114 4.058 0.9607-0.3069 4.897-1.668 8.747-3.026zm-127.9-0.8442c3.52-1.208 6.25-2.643 6.068-3.189-0.9974-2.992-6.059-5.094-13.13-5.451-6.741-0.3404-7.449-0.1856-8.949 1.956-2.064 2.947-2.058 4.749 0.0263 7.052 2.253 2.49 8.044 2.357 15.98-0.3674zm18.73-1.054c0.3316-1.238 0.6091-3.059 0.6166-4.047 0.0131-1.729-0.0795-1.729-2.455 0-2.759 2.008-3.103 3.325-1.331 5.097 1.738 1.738 2.489 1.49 3.17-1.05zm56.49-5.226c1.207-3.338 1.042-3.863-4.165-13.25-13.39-24.15-13.77-24.65-19-25.27l-4.185-0.5-0.8912-7.273c-0.7343-5.992-1.175-7.185-2.5-6.778-0.8848 0.2721-7.234 1.415-14.11 2.539-6.875 1.125-15.42 2.718-19 3.542s-12.12 2.398-19 3.498c-14.8 2.369-16 2.7-16 4.425 0 1.895-7.524 2.777-13.7 1.605-8.734-1.658-11.66-3.381-15.25-8.976-2.943-4.586-3.252-5.711-2.713-9.879 0.3345-2.587 0.873-5.624 1.197-6.748 0.502-1.744-1.694-3.542-14.97-12.25-14.85-9.745-15.8-10.21-20.93-10.21-4.904 0-5.362 0.192-5.259 2.201 0.0899 1.744 1.413 2.698 6.363 4.587 6.698 2.557 7.853 4.637 4.854 8.739-1.253 1.714-1.926 1.801-6.552 0.8538-5.886-1.206-5.647-1.419-8.554 7.619-0.9729 3.025-2.436 6.818-3.251 8.429-3.372 6.661-6.259 16.07-5.055 16.47 0.657 0.219 2.27 1.474 3.585 2.789l2.391 2.391 4.635-3.07c6.016-3.985 7.566-3.633 8.197 1.862l0.5 4.351 8 2.971c4.4 1.634 17.68 6.484 29.5 10.78 11.82 4.293 23.75 8.693 26.5 9.778 4.885 1.927 5.069 1.93 8 0.1186 5.205-3.217 17.81-1.556 23.77 3.133 3.361 2.644 3.716 2.584 8.839-1.488 5.555-4.416 6.891-4.438 6.891-0.1167 0 2.171 0.5695 3.612 1.582 4 0.87 0.3338 7.057 0.6516 13.75 0.7062 6.693 0.0546 15.99 0.4349 20.67 0.8452 15.3 1.342 14.45 1.472 15.86-2.42zm-262.9-5.202c5.9-2.183 5.77-1.948 2.518-4.559-3.733-2.996-8.854-4.593-15.04-4.687-5.423-0.0825-7.459 1.115-7.435 4.373 0.0263 3.526 1.682 4.92 6.665 5.613 7.706 1.071 8.512 1.026 13.29-0.7401zm17.03-3.045v-4.722l-2.122 2.122c-2.088 2.088-2.092 2.164-0.25 4.691 1.03 1.413 1.985 2.583 2.122 2.6 0.1375 0.0173 0.25-2.094 0.25-4.691zm374.6 0.5867c1.721-1.033 4.983-3.89 7.25-6.349 3.683-3.996 4.121-5.003 4.121-9.473 0-11.16-6.392-18.04-16.77-18.04-8.81 0-8.994 0.2626-8.558 12.2 0.2069 5.662 0.6266 13.54 0.9325 17.51l0.5562 7.22 4.668-0.5985c2.567-0.3292 6.075-1.443 7.796-2.476zm-9.486-0.7762c-1.661-1.026-3.13-10.97-3.137-21.23-5e-3 -6.962 0.3018-8.761 1.576-9.25 4.611-1.769 11.83 0.7116 15.8 5.433 4.977 5.915 2.427 17.44-4.853 21.94-4.469 2.762-8.032 3.941-9.384 3.105zm8.199-7.084c4.501-3.952 6.202-8.117 5.011-12.27-1.036-3.611-6.368-7.735-10-7.735-2.301 0-2.352 0.2012-2.338 9.25 0.0217 14.7 1.074 16.25 7.328 10.75zm-295-11.25c1.558-5.813 0.2246-7.149-3.897-3.907l-2.343 1.843 2.157 2.157c2.718 2.718 3.333 2.704 4.082-0.0928zm-184.8 0.1389c6.027-1.518 7.347-3.27 4.076-5.414-3.347-2.193-14.04-3.184-16.08-1.49-2.359 1.958-1.811 3.866 1.732 6.026 3.782 2.306 4.397 2.358 10.28 0.8779zm18.47-2.889c0-3.336-0.7131-3.661-3.521-1.608-1.617 1.183-1.703 1.634-0.5687 3 2.163 2.607 4.09 1.951 4.09-1.392zm152.3 1.117c2.927-2.927-10.99-9.412-15.28-7.118-2.687 1.438-3.226 4.011-1.419 6.769 1.538 2.347 2.018 2.458 8.594 1.987 3.831-0.2741 7.478-1.011 8.105-1.638zm237.7-12.07c0-0.5227-2.706-1.257-6.014-1.631-6.714-0.7596-7.407-1.676-6.806-9.01 0.3113-3.8 0.4422-3.923 5.07-4.763 6.386-1.16 6.286-3.108-0.1164-2.258l-4.866 0.6456-0.6226-3.767c-0.3424-2.072-0.6275-5.209-0.6336-6.971-0.0101-2.93 0.31-3.257 3.739-3.817 7.893-1.29 9.25-1.665 9.25-2.557 0-1.304-5.623-1.064-11.5 0.4907l-5 1.323 0.3495 15.38c0.286 12.59 0.6385 15.61 1.941 16.63 1.862 1.462 15.21 1.725 15.21 0.2997zm-159-2.05c0-1.439-0.6667-2-2.375-2-8.002 0-16.62-5.969-16.62-11.51 0-6.988 8.473-15.43 17.07-16.99 3.271-0.5974 3.53-0.8946 3.133-3.598-0.4094-2.79-0.6262-2.912-4.066-2.305-7.864 1.39-12.98 5.537-18.99 15.41-4.907 8.05-1.028 18.63 7.861 21.44 2.475 0.782 6.638 1.453 9.25 1.492 4.107 0.0602 4.75-0.2013 4.75-1.93zm83.52-12.22-0.0182-12.22 3.5-0.2558c7.691-0.5621 10-1.337 10-3.356 0-1.858-0.7832-1.954-15.75-1.939-15.7 0.0153-17.96 0.3653-17.66 2.735 0.0872 0.6875 0.2147 1.968 0.2835 2.846 0.1032 1.317 1.212 1.535 6.352 1.25 6.21-0.3447 6.229-0.3371 6.882 2.654 0.3598 1.65 0.7074 6.938 0.7725 11.75l0.1183 8.75h5.536zm-66.02 8.093c3.85-0.579 9.925-1.675 13.5-2.436 8.837-1.881 25.89-5.133 35-6.676 7.033-1.19 7.519-1.438 7.812-3.97 0.309-2.675 0.2494-2.703-6.5-2.997l-6.812-0.2971-0.2967-5.089c-0.2008-3.444 0.1557-5.464 1.103-6.25 0.7697-0.6388 4.862-1.454 9.094-1.812l7.694-0.6504-0.4889-14.1c-0.2689-7.755-0.5152-15.15-0.5473-16.44l-0.0584-2.338-11.75 0.6442c-15.92 0.8729-24.87-0.8329-29.19-5.564-3.393-3.715-3.893-7.271-1.504-10.68 1.41-2.013 2.394-2.223 10.43-2.223 8.793 0 8.893-0.0282 11.38-3.203 2.852-3.644 2.64-4.432-1.733-6.431-1.72-0.7864-4.478-2.304-6.128-3.373s-6.004-3.518-9.676-5.443c-3.672-1.925-6.959-3.959-7.306-4.519-0.3466-0.5607-1.49-1.48-2.54-2.042-1.588-0.8498-2.153-0.5529-3.349 1.76-2.118 4.096-15.56 9.251-24.12 9.251-3.278 0-3.404 0.1453-3.701 4.25-0.2738 3.785-0.5812 4.25-2.808 4.25-2.292 0-4.419-2.675-6.361-8-0.52-1.426-1.628-0.1533-2.128 2.445-0.9838 5.109-1.681 6.172-3.847 5.864-1.403-0.1999-2.867-1.776-4.164-4.482-2.306-4.813-4.406-5.673-11.54-4.726-4.926 0.6535-4.96 0.6828-4.96 4.329 0 8.552-7.44 7.984-9.679-0.7398-1.273-4.958-2.78-4.332-3.135 1.304-0.8334 13.22-10.73 10.23-11.88-3.59-0.3777-4.561-1.257-7.482-3.055-10.15-1.389-2.062-2.751-3.75-3.027-3.75s-4.378 2.53-9.114 5.622c-7.707 5.032-14.49 9.393-30.61 19.69-4.31 2.752-5.042 3.691-5.303 6.812-0.3003 3.593-0.227 3.667 9.5 9.579 5.391 3.277 12.73 7.437 16.3 9.243 3.575 1.807 7.919 4.143 9.653 5.193l3.153 1.908 0.7095-5.272c1.107-8.228 4.362-10.45 16.01-10.94l7.971-0.3332 0.3013 4.123c0.3469 4.748-0.0244 5.018-9.301 6.757-5.766 1.081-6.012 1.251-6.313 4.372-0.2902 3.007-0.0928 3.248 2.668 3.248 4.139 0 6.141 0.927 6.169 2.857 0.0238 1.617 3.133 3.889 19.98 14.6 4.675 2.972 9.562 6.316 10.86 7.431l2.36 2.026 4.328-5.313c2.38-2.922 5.91-6.064 7.845-6.982 4.753-2.256 14.6-4.023 15.79-2.834 0.5122 0.5122 0.793 3.358 0.624 6.324l-0.3072 5.393-4.793 1.183c-6.61 1.631-10.58 4.186-12.98 8.363-4.121 7.151 1.096 12.95 11.64 12.95 5.076 0 5.632 0.2099 5.632 2.125 0 1.866 0.3957 2.045 3.25 1.464 1.788-0.3633 6.4-1.134 10.25-1.713zm-347-10.97c3.241-0.599 6.749-1.689 7.796-2.423 1.784-1.249 1.647-1.464-2.168-3.411-5.057-2.58-18.15-2.987-20.11-0.6255-1.747 2.105-0.8959 4.809 1.969 6.258 3.073 1.555 5.023 1.586 12.52 0.2007zm22.48-1.911c0-3.297-0.6207-3.604-3.25-1.608-2.051 1.557-2.264 3.234-0.5 3.946 2.828 1.141 3.75 0.566 3.75-2.338zm162.5 0.8938c4.041-1.968 4.144-3.536 0.3119-4.756-6.625-2.109-12.49-2.213-14.89-0.2648-6.361 5.151 5.75 9.321 14.58 5.02zm15.85-1.1c0.756-2.891 0.4214-3.099-2.697-1.679-2.41 1.098-2.478 1.291-0.8792 2.506 2.402 1.824 2.914 1.706 3.576-0.8271zm69.66-13.66c0-0.4747-2.477-1.642-5.505-2.595-5.974-1.879-6.923-3.329-6.319-9.654 0.3172-3.32 0.4176-3.389 5-3.398 6.522-0.0139 7.085-1.254 0.9401-2.069-5.277-0.7-5.466-0.9154-5.128-5.855 0.3945-5.77 1.597-7.325 6.199-8.021 8.406-1.271 9.812-1.72 9.812-3.133 0-1.141-1.158-1.311-5.75-0.8426-6.59 0.6724-10.01 2.06-10.7 4.341-0.4618 1.532-3.554 25.85-3.554 27.94 0 1.187 8.187 3.887 12.25 4.041 1.512 0.0573 2.75-0.2843 2.75-0.759zm-165-15.07c0-12.18 1.037-17.54 3.256-16.83 1.399 0.4516 6.342 9.427 8.13 14.76 0.6452 1.925 2.351 5.757 3.792 8.515 2.611 5.001 2.631 5.014 7.073 4.661l4.454-0.3543 0.6432-11.16c0.8844-15.35 0.7898-22.9-0.3087-24.63-0.5117-0.8091-1.111-1.259-1.332-1s-0.9515 6.928-1.624 14.82c-1.36 15.97-1.679 17.38-3.844 16.95-1.328-0.2634-8.646-14.81-11.92-23.69-1.166-3.164-1.263-3.204-7-2.907l-5.817 0.3019-0.2779 14.96c-0.1529 8.226-0.0545 15.54 0.2186 16.25 0.2731 0.7117 1.411 1.294 2.528 1.294 1.928 0 2.031-0.6052 2.031-11.93zm20.94-19.07c0.1118-10.63 0.6151-11.54 5.696-10.34l3.863 0.9109 0.2904 8.215c0.198 5.599 0.6756 8.215 1.5 8.214 0.6653-4.3e-4 4.135-1.398 7.71-3.105 3.575-1.708 8.3-3.743 10.5-4.524s7.916-3.069 12.7-5.084l8.702-3.665 0.6642-5.316c0.3653-2.924 0.3578-8.177-0.0168-11.67-0.9493-8.864 0.2252-9.951 9.819-9.084 8.673 0.7836 9.51 1.584 13.17 12.58 3.126 9.388 3.971 9.007 4.966-2.239 0.8582-9.695 1.763-11.07 6.74-10.25l3.75 0.6192v5.369c0 2.953 0.2052 5.369 0.456 5.369 1.191 0 20.77-12.2 29.04-18.1 2.2-1.569 6.349-4.208 9.22-5.866 4.8-2.771 5.209-3.296 5.088-6.52-0.1177-3.131-0.5158-3.613-3.72-4.503-1.973-0.5482-4.713-1.015-6.088-1.037-1.375-0.0224-5.425-0.7006-9-1.507s-14.38-2.814-24-4.462-22.32-3.985-28.22-5.194-10.97-1.953-11.27-1.654c-0.2992 0.2992-1.233 3.2-2.075 6.445-1.837 7.08-9.225 18.72-17.32 27.27-3.187 3.37-6.136 6.128-6.553 6.128-0.4173 0-1.953 0.8468-3.413 1.882-3.768 2.672-17.35 5.492-23.14 4.806-9.136-1.082-23.65-6.984-29.71-12.08-4.355-3.664-2.683-4.033-21.61 4.762l-9.803 4.555 0.8025 3.789c0.9912 4.679 0.9575 11.5-0.0829 16.79l-0.7871 4 5.336 2.614c2.935 1.438 9.386 4.665 14.34 7.171 12.73 6.444 12.94 6.44 13.26-0.285 0.4696-9.964 0.2836-9.74 8.744-10.53 8.524-0.7988 9.429-0.3832 11.37 5.219 0.727 2.097 2.74 6.952 4.474 10.79l3.152 6.976 0.6759-4.476c0.3718-2.462 0.7162-8.301 0.7654-12.98zm417.3 9.204c1.166-1.009 1.75-2.964 1.75-5.859 0-4.77-1.655-7.081-7.082-9.887l-3.188-1.649 0.7196-15.12c0.4182-8.787 1.253-16.18 1.992-17.65 1.802-3.593 2.606-8.552 1.931-11.92-1.063-5.317-9.166-6.888-13.73-2.662-3.021 2.8-3.24 3.81-1.195 5.507 0.798 0.6623 1.751 3.205 2.118 5.65 0.4631 3.088 1.318 4.789 2.799 5.568 1.173 0.617 2.425 1.571 2.782 2.119 1.117 1.715-0.2671 29.11-1.526 30.2-2.342 2.034-4.624 6.507-4.624 9.064 0 1.645 1.141 3.7 3.039 5.472 4.273 3.992 10.37 4.493 14.21 1.168zm-493.2-5.063c8.539-5.491 11.95-11.69 11.95-21.74 0-18.09-19.01-30.49-33.07-21.57-5.15 3.266-9.641 8.265-11.58 12.89-3.241 7.733 0.0168 19.26 7.535 26.67 4.119 4.057 5.45 4.744 10.66 5.504 9.273 1.351 9.787 1.289 14.51-1.747zm-16.11-1.089c-4.987-1.513-6.976-3.183-9.932-8.337-2.48-4.324-2.991-6.326-2.99-11.71 6.4e-4 -10.71 4.641-18.55 13.04-22.03 2.754-1.141 4.004-1.025 10.09 0.9343 5.803 1.869 7.429 2.907 9.9 6.318 5.27 7.275 6.06 15.75 2.308 24.76-3.691 8.86-12.84 12.97-22.42 10.07zm13.76-5.011c4.152-2.532 6.393-6.995 7.028-14 0.4259-4.697 0.0858-6.472-2.045-10.68-2.177-4.295-3.328-5.365-7.754-7.204-6.403-2.661-8.543-2.694-12.64-0.1955-6.472 3.946-9.899 15.54-6.908 23.37 1.787 4.68 5.914 9.186 9.118 9.957 4.691 1.129 10.15 0.6132 13.2-1.246zm504.3 5.615c0-1.29-0.9763-3.202-2.17-4.25-2.05-1.8-2.133-1.804-1.5-0.0732 0.3683 1.007 0.6696 2.92 0.6696 4.25 0 1.483 0.5802 2.418 1.5 2.418 0.9069 0 1.5-0.9272 1.5-2.345zm-366.8-12.89c0.3954-20.29 1.558-19.79 12.14 5.238 0.8139 1.925 1.771 4.512 2.127 5.75 0.5437 1.891 1.344 2.25 5.012 2.25 5.263 0 5.125 0.3193 6.472-15 1.267-14.42 1.295-21 0.0893-21-0.5163 0-1.209 2.138-1.539 4.75s-1.328 8.462-2.218 13c-1.278 6.519-1.979 8.25-3.341 8.25-1.314 0-2.591-2.675-5.369-11.25-2.005-6.188-3.971-11.76-4.369-12.38-0.3983-0.6214-3.537-1.453-6.974-1.848l-6.25-0.7184v18.6c0 17.85 0.0799 18.6 1.973 18.6 1.858 0 1.989-0.8265 2.25-14.24zm337 11.26c0.3496-2.382 0.1727-2.757-0.8865-1.878-1.483 1.231-1.809 4.853-0.4368 4.853 0.4876 0 1.083-1.339 1.323-2.976zm-88.21-1.787c0-0.9696-1.01-2.207-2.244-2.75s-2.369-1.662-2.522-2.487c-0.231-1.245 1.433-1.523 9.803-1.637 13.2-0.1788 25.29-3.433 28.89-7.777 1.857-2.237 4.055-1.973 7.017 0.8427 1.405 1.336 3.792 2.735 5.305 3.108 3.96 0.9787 3.609-1.581-0.9007-6.572l-3.651-4.041 2.528-2.712c2.889-3.099 5.171-7.148 4.44-7.879-0.817-0.817-4.901 1.708-9.394 5.809-5.188 4.735-9.493 5.062-17.87 1.358-3.109-1.375-6.48-2.5-7.491-2.5s-4.217-0.8514-7.126-1.892-9.894-2.416-15.53-3.056c-9.501-1.08-10.8-1.008-18 1.008-9.7 2.714-15 5.494-18.98 9.958-3.043 3.41-3.298 3.492-12.44 3.981-9.177 0.4915-9.341 0.5445-9.639 3.116-0.2212 1.907 0.5191 3.308 2.73 5.168 4.154 3.495 12.68 4.281 31.72 2.925 19.64-1.399 25.39-1.14 26.79 1.207 3.618 6.074 6.572 8.241 6.572 4.821zm-160-29.19c0-6.58 1.68-9.047 6.161-9.047 3.07 0 3.839 0.3711 3.839 1.851 0 2.406 2.006 8.149 2.848 8.151 0.3587 8.9e-4 0.6522-2.137 0.6522-4.75v-4.752h11c10.99 0 11 3e-3 11.3 2.5 0.566 4.732 1.521 5.633 2.122 2 0.5602-3.387 0.7221-3.5 5.015-3.5 4.212 0 4.487 0.177 5.442 3.5l1.006 3.5 1.116-8 5-0.2548c10.2-0.5196 20.72-4.247 22.4-7.93 4.131-9.066 1.678-14.22-7.52-15.81l-5.797-1.002-1.543-5.084c-1.592-5.247-6.036-11.38-9.543-13.16-1.1-0.5594-4.756-1.072-8.124-1.139-3.368-0.0671-8.492-0.571-11.39-1.12-8.385-1.59-23.3-1.247-28.22 0.6483-5.453 2.102-11.51 7.73-13.83 12.85-3.912 8.639-3.38 19.28 1.276 25.58 1.375 1.859 2.275 5.066 2.697 9.604 0.3483 3.747 0.9863 7.376 1.418 8.063 1.505 2.398 2.666 1.221 2.666-2.703zm198.7-1.087c4.274-3.94 7.682-5.422 11.01-4.79 2.236 0.4243 2.939 4.821 1.27 7.94l-1.182 2.209 19.37-0.694c10.65-0.3817 20.83-0.9546 22.62-1.273 2.969-0.529 3.249-0.8934 3.233-4.216-0.014-2.947-0.6228-4.06-3.211-5.869-2.891-2.021-3.387-2.091-5.233-0.7431-1.122 0.8189-3.068 2.224-4.326 3.121s-3.958 1.682-6 1.743c-3.092 0.0923-3.765-0.2527-4.023-2.062-0.423-2.97 3.046-9.466 6.916-12.95 5.73-5.159 7.951-7.706 7.61-8.728-0.3194-0.9583-23.74-15.15-47.22-28.61-6.05-3.469-13.62-7.867-16.82-9.774-3.198-1.907-5.898-3.308-6-3.115-0.1017 0.1933-0.7473 1.358-1.435 2.588s-1.256 5.055-1.264 8.5c-0.0189 8.661-0.715 10.76-3.564 10.76-1.96 0-2.597-0.8503-3.883-5.182-0.8463-2.85-1.539-6.45-1.539-8 0-1.55-0.45-2.818-1-2.818-0.563 0-1 2.81-1 6.429 0 7.764-1.831 10.59-5.347 8.257-2.39-1.587-3.408-4.448-3.553-9.988l-0.0997-3.802-5.25 0.3023c-3.81 0.2194-5.277 0.7136-5.348 1.802-0.0537 0.825-0.1662 4.327-0.25 7.781-0.1163 4.798-0.5388 6.43-1.788 6.909-3.354 1.287-4.828-1.123-5.99-9.789l-1.126-8.401-0.1236 6.816c-0.139 7.663-1.299 10.68-4.102 10.68-3.889 0-5.022-3.645-5.022-16.16 0-6.445-0.3375-11.92-0.75-12.17-0.4125-0.2475-6.6 2.915-13.75 7.027s-20.09 11.04-28.75 15.4c-9.291 4.672-15.75 8.506-15.75 9.349 0 4.313 1.869 6.312 6.556 7.015 2.585 0.3876 5.334 0.9481 6.109 1.246 2.126 0.8157 4.335 5.76 4.335 9.701 0 4.157 1.42 5.265 21.82 17.03l13.32 7.681 4.183-1.988c8.403-3.994 15.6-5.428 24.2-4.821l8.085 0.5706 2.788-3.494c2.291-2.871 3.352-3.439 5.95-3.187 2.944 0.2856 3.197 0.6155 3.662 4.777l0.5 4.47 7.5 2.148c4.125 1.181 9.075 2.875 11 3.764 4.595 2.122 7.532 1.335 12.66-3.391zm-337.4-0.5578c1.207-1.207-0.4497-3.167-2.273-2.69-1.401 0.3663-2.246-0.362-3.319-2.861-0.7919-1.844-3.086-6.829-5.099-11.08-6.265-13.23-9.25-35.66-6.602-49.62 0.8092-4.267 0.6597-5.832-0.8972-9.386-1.897-4.332-11.07-13.96-14.4-15.12-1.609-0.5619-1.745-0.2477-1.131 2.61 0.3842 1.787 1.796 6.174 3.137 9.749s3.284 9.425 4.317 13c1.033 3.575 3.012 9.648 4.396 13.5 1.597 4.439 2.169 7.345 1.563 7.95-1.796 1.796-3.184-1.223-9.92-21.56-5.894-17.8-6.789-19.86-7.371-16.95-1.931 9.657-0.1179 27.96 4.019 40.55 2.03 6.18 13.27 22.83 21.28 31.51 5.991 6.495 7.279 9 4.63 9-2.208 0-13.41-12.75-21-23.9-5.319-7.816-7.453-12.04-9.28-18.37-2.618-9.075-4.264-10.97-11.01-12.67-4.779-1.204-13.86-1.286-16.76-0.1519-1.642 0.6422-0.2077 2.052 9 8.851 15.36 11.34 20.42 15.55 20.44 16.99 0.0278 2.451-4.043 0.9735-8.33-3.023-1.313-1.225-4.321-3.577-6.684-5.227s-7.449-5.361-11.3-8.247c-3.855-2.886-7.193-5.062-7.418-4.837-0.2254 0.2254 0.2969 1.489 1.161 2.807 0.8639 1.318 2.196 4.475 2.96 7.014 3.968 13.19 23.19 30.92 42.13 38.86 7.427 3.114 10.24 3.785 16.08 3.839 3.896 0.0361 7.352-0.2034 7.681-0.5322zm11.23-3.845c7.933-4.649 17.58-15.89 23.3-27.14 3.288-6.467 5.321-18.64 4.994-29.92l-0.2896-10-3.865 8c-2.126 4.4-5.114 10.48-6.642 13.5-3.001 5.943-14.31 32.91-15.51 37-0.405 1.375-1.382 3.769-2.172 5.321-1.113 2.188-1.735 2.572-2.771 1.712-1.103-0.9154-0.9831-2.017 0.6881-6.321 4.836-12.45 14.24-34.66 16.82-39.71 5.147-10.09 9.864-21 9.075-21-1.752 0-10.36 6.459-13.51 10.13-3.622 4.232-11.75 20.05-14.7 28.61-4.205 12.21-4.941 32.25-1.184 32.25 0.8746 0 3.466-1.099 5.758-2.442zm-74.23-2.558c4.695-2.2 8.919-4.014 9.388-4.032 0.469-0.0175 1.686-0.663 2.704-1.434 1.735-1.314 1.312-2.008-6.688-10.99-6.229-6.996-9.109-11.14-10.65-15.32-1.16-3.149-3.325-8.083-4.812-10.96-3.378-6.545-2.718-7.836 5.324-10.43 6.689-2.156 15.23-2.018 21.97 0.355l4 1.407v-23.5l-3.5-0.5322c-1.925-0.2927-16.32-1.889-32-3.546-15.68-1.658-29.71-3.222-31.19-3.476-2.183-0.3756-2.744-0.0484-3 1.75-0.2728 1.918-1.161 2.316-6.681 2.996-8.489 1.046-11.77 2.91-14.3 8.128-2.851 5.869-1.937 10.48 3.069 15.49 3.795 3.795 7.31 5.1 13.74 5.1h3.387l-0.5952 4.25c-0.8836 6.309-1.138 6.75-3.897 6.75-1.392 0-2.531 0.1628-2.531 0.3617 0 0.1989 1.296 3.236 2.88 6.75 1.584 3.514 3.219 7.963 3.634 9.888 0.4146 1.925 1.917 5.873 3.339 8.773 1.914 3.903 2.983 5.099 4.116 4.603 0.8418-0.3682 4.311-0.8788 7.709-1.135 5.351-0.4029 6.939-0.0816 11.85 2.397 3.12 1.574 7.09 4.511 8.821 6.527 1.731 2.016 3.648 3.703 4.26 3.75 0.6114 0.0466 4.953-1.715 9.647-3.915zm365.4-0.5689c-0.6073-1.583-0.7986-1.572-2.698 0.1468-1.933 1.75-1.946 1.887-0.2292 2.523 2.315 0.8576 3.771-0.4703 2.927-2.669zm-300.1-24.47c0.9894-3.005 3.364-9.04 5.277-13.41 3.341-7.635 3.457-8.306 2.95-17-0.5032-8.632-4.332-24.56-6.402-26.63-0.8976-0.8976-4.4 45.76-4.346 57.9 0.0194 4.368-0.2652 5.265-1.587 5-1.397-0.2805-1.59-2.177-1.46-14.32 0.0829-7.7 0.5558-16.92 1.051-20.5s1.187-12.56 1.538-19.98c0.6347-13.42 0.6295-13.47-1.36-11.67-3.199 2.895-8.995 14.81-10.63 21.85-1.967 8.481-2.013 25.3-0.0963 35.02 1.55 7.858 4.65 16.16 9.42 25.24l2.645 5.031 0.5989-10.54c0.3302-5.809 1.406-12.99 2.398-16zm380.7 21.84c5.025-3.256 5.252-3.589 4.241-6.223-1.299-3.386-6.051-1.03-10.23 5.073-4.326 6.314-2.514 6.661 5.991 1.15zm-256.7-27.28c2.272-7.814 9.998-15.86 17.82-18.56 5.376-1.856 6.868-1.922 22-0.9737 26.61 1.667 28.72 2.131 33.66 7.418 1.333 1.427 2.971 2.595 3.639 2.595 2.306 0 32.47-15.55 51.19-26.4l8.249-4.778-0.6262-5.663c-0.3444-3.115-0.9916-6.064-1.438-6.553-0.4573-0.5011-2.198 0.2769-3.986 1.781-2.219 1.867-3.817 2.48-5.31 2.036-4.034-1.2-6.705-3.522-7.264-6.314-0.4779-2.39-1.672-3.248-8.216-5.908-4.211-1.711-11.89-4.522-17.06-6.245l-9.407-3.134-2.438 3.115c-4.573 5.843-14.32 9.052-27.55 9.068-6.735 8e-3 -27.37 2.088-35.1 3.537-2.629 0.4932-3.593 1.267-4.101 3.294-0.9704 3.867-2.386 5.16-5.648 5.16-2.122 0-3.204-0.6702-4.038-2.5-1.068-2.345-1.607-2.5-8.68-2.5-4.289 0-11.25-0.9107-16.15-2.112l-8.611-2.112-5.139 2.604c-2.827 1.432-7.523 4.544-10.44 6.914-6.24 5.076-28.71 21.3-33.94 24.5-3.066 1.879-3.746 2.95-4.325 6.809-0.3777 2.518-0.4936 4.772-0.2575 5.008 0.6771 0.6771 23.76 5.232 40.18 7.929 8.227 1.351 15.88 2.75 17 3.108 1.88 0.5998 20.52 4.009 23.22 4.247 0.6485 0.0572 1.895-2.36 2.771-5.372zm-242.4-12.95c0-0.9271-2.018-1.867-5.75-2.679-9.818-2.136-15.25-8.338-15.23-17.39 0.0223-9.862 6.63-16.6 17.62-17.97 5.102-0.6375 5.355-0.8076 5.355-3.597 0-2.806-0.1882-2.928-4.529-2.928-5.558 0-15.07 4.541-18.8 8.978-7.658 9.102-5.79 28.03 3.22 32.63 7.875 4.014 18.11 5.691 18.11 2.968zm385.1-5.675c0.0378-7.897 1.11-10.12 4.684-9.706 2.575 0.2975 2.727 0.6508 3.774 8.81l1.091 8.5 0.8174-16 16.26-0.6005 0.7015 6.55c0.3858 3.603 1.095 6.55 1.576 6.55 0.4811 0 1.008-3.038 1.17-6.75 0.2815-6.426 0.4198-6.764 2.881-7.051 3.444-0.4003 4.861 1.551 5.588 7.695 0.8083 6.825 1.814 6.48 1.877-0.6441 0.028-3.162 0.6592-7.133 1.403-8.824 0.7434-1.691 1.075-4.166 0.7362-5.5-1.172-4.618-3.888-5.328-22.58-5.897l-17.39-0.5296-1.343-4.5c-0.7384-2.475-1.349-5.332-1.358-6.349-8e-3 -1.017-0.7491-3.395-1.646-5.286-1.525-3.214-1.716-3.316-2.94-1.567-1.09 1.557-1.047 2.608 0.2591 6.286 1.073 3.022 1.699 9.309 1.981 19.92 0.4143 15.59 1.045 22.62 1.948 21.72 0.2679-0.2679 0.5008-3.337 0.5174-6.821zm-242-16.36c2.389-1.575 6.218-4.14 8.508-5.701 6.611-4.507 6.943-4.208 7.95 7.174l0.8864 10.01 13.07-9.263c7.191-5.095 15.29-11.11 18-13.36 2.709-2.253 7.754-5.882 11.21-8.063l6.285-3.966-5.01-2.347c-2.756-1.291-5.983-3.382-7.172-4.647l-2.161-2.301-6.058 5.482c-8.015 7.253-14.16 8.801-16 4.026-1.146-2.985 5.659-18.73 8.616-19.94 0.9012-0.3677 0.9183-0.7065 0.0666-1.321-1.334-0.9623-10.36-18.23-10.34-19.78 0.0447-3.049 1.624-3.665 6.348-2.476 6.481 1.632 12.15 6.038 15.01 11.67 2.02 3.972 3.119 4.973 6.645 6.053 2.323 0.7114 4.386 1.131 4.584 0.9331 0.4757-0.4757-7.802-13.5-14.15-22.26-2.774-3.829-6.54-9.437-8.37-12.46-4.241-7.012-3.878-6.744-5.667-4.19-2.114 3.018-5.104 2.74-8.392-0.7798-2.73-2.923-2.802-2.939-4.533-1.026-0.9676 1.069-2.6 2.211-3.627 2.537-1.027 0.3261-1.862 1.125-1.855 1.776 0.0543 5.077-15.26 48.94-24.92 71.38-3.477 8.076-3.574 8.989-1.914 18l1.183 6.422 3.722-4.355c2.047-2.395 5.677-5.643 8.067-7.218zm297.3-5.549c3.3-0.5489 11.4-1.648 18-2.443 38.95-4.689 48.5-6.304 48.5-8.2 0-0.7959 0.7169-2.833 1.593-4.528 1.469-2.84 1.459-3.379-0.1282-6.898-1.233-2.733-1.587-5.439-1.248-9.528 0.4603-5.551 0.226-6.211-8.372-23.6-4.865-9.837-8.845-18.32-8.845-18.84s-0.8842-0.9556-1.965-0.9556c-1.867 0-4.723 3.585-4.228 5.308 0.9463 3.299 0.2025 10.75-1.302 13.05-3.316 5.06-8.784 4.762-15.5-0.8463-4.868-4.067-7.409-4.409-9.343-1.257-0.7594 1.238-5.299 8.775-10.09 16.75-4.79 7.975-12.11 19.88-16.28 26.46-4.249 6.713-7.077 12.12-6.448 12.33 0.6161 0.2054 2.139 1.223 3.384 2.261 2.624 2.189 4.102 2.302 12.26 0.9449zm-334.9-7.99c6.233-11.86 14.43-19.37 14.43-13.22 0 1.757 6.195 15.11 7.04 15.17 1.604 0.1208 16.51-39.08 22.82-60 4.8-15.92 4.85-16.23 3.56-21.81-0.72-3.111-1.574-6.92-1.899-8.466l-0.5896-2.81-12.22 6.526c-19.8 10.58-60.28 30.88-73.07 36.64l-11.86 5.345 0.5992 4.372c0.8253 6.021-1.134 9.503-6.31 11.21-3.264 1.077-4.864 1.103-8.11 0.1303-3.902-1.169-5.466-3.141-7.297-9.199-0.9802-3.244-7.648-5.408-16.66-5.408-7.597 0-9.535 0.421-18.25 3.964-11.12 4.521-10.55 3.364-8.601 17.28l1.152 8.241 5.1-0.5815c6.163-0.7027 10.6 0.768 10.6 3.513 0 2.229-0.7528 2.088 24.5 4.576 8.8 0.8671 18.92 1.994 22.5 2.503s10.21 1.217 14.75 1.571l8.25 0.644v-5.045c0-2.775 0.3977-5.291 0.8837-5.591 0.486-0.3004 3.517 0.3224 6.734 1.384 4.69 1.547 6.995 3.144 11.62 8.046 3.171 3.363 5.766 6.539 5.766 7.057 0 2.038 1.038 0.6612 4.569-6.058zm318.7-3.037c2.276-3.555 6.062-9.459 8.414-13.12 2.352-3.661 7.59-12.21 11.64-19 14.42-24.17 14.38-23.99 4.881-23.12-11.25 1.02-17.16-1.658-17.16-7.768 0-3.93 2.01-7.749 5.899-11.21 4.137-3.68 4.028-7.051-0.4092-12.63-1.92-2.415-3.49-4.777-3.49-5.25s-0.6908-0.8593-1.535-0.8593-2.556-0.6689-3.804-1.487c-1.248-0.8176-4.719-2.36-7.715-3.427-2.995-1.067-9.271-3.349-13.95-5.07-4.675-1.721-13.45-4.438-19.5-6.038-6.05-1.6-17.08-5.018-24.5-7.595-16.57-5.75-20.32-6.05-23.54-1.884l-2.326 3 9.185 4e-3c6.8 3e-3 10 0.4513 12.34 1.727 4.49 2.452 6.345 4.566 6.345 7.233 0 2.804-3.153 3.856-8.833 2.948-7.446-1.191-26 4.12-27.44 7.85-0.6773 1.765-9.879 3.859-13.65 3.106-2.79-0.558-2.985-0.3794-3.573 3.272-1.009 6.268-5.602 25.56-10.44 43.86-2.042 7.721-1.737 8.459 3.499 8.485 8.599 0.0429 20.43 6.847 20.43 11.75 0 1.527 1.381 2.501 5.853 4.132 3.219 1.174 6.329 2.134 6.91 2.134s5.854 1.859 11.72 4.13l10.66 4.13 2.891-3.38c3.382-3.954 3.47-4.798 1.436-13.74-1.279-5.625-2.031-7.045-4.5-8.504-3.934-2.324-4.032-5.101-0.1531-4.326l2.811 0.5622-0.0609-7.09c-0.0777-9.041 1.958-10.48 3.002-2.124l0.7215 5.775 3.373-3.902c2.513-2.907 3.662-3.613 4.506-2.769 1.322 1.322-0.364 4.325-5.216 9.289-2.376 2.43-2.799 3.421-1.916 4.485 0.6234 0.7511 0.8409 2.287 0.4834 3.414-0.6614 2.084 0.8509 2.883 1.985 1.048 1.02-1.65 2.5-1.13 2.5 0.8776 0 1.033-0.675 2.438-1.5 3.122s-1.5 2.54-1.5 4.122c0 2.723 0.2304 2.878 4.291 2.878h4.291l3.116-14.91-2.85-2.73c-1.567-1.502-2.85-3.11-2.85-3.575 0-1.768 3.024-1.9 4.718-0.2059 1.693 1.693 1.826 1.513 3.073-4.153 1.458-6.625 4.637-11.08 5.781-8.093 0.358 0.9328 0.2024 2.253-0.3456 2.933-0.548 0.6805-1.319 2.745-1.713 4.587-0.6786 3.171-0.5916 3.312 1.635 2.636 1.293-0.3925 3.754-1.562 5.469-2.6 3.719-2.25 5.382-2.394 5.382-0.4675 0 1.665-4.97 4.85-10.15 6.506-2.606 0.8324-3.838 1.904-4.299 3.739-0.839 3.343-0.5046 3.566 3.341 2.225 1.767-0.6161 3.471-0.8625 3.786-0.5476 1.318 1.318-0.7325 3.36-4.51 4.491-2.245 0.6726-4.26 1.98-4.529 2.939-1.809 6.434-1.634 7.85 1.839 14.9 1.939 3.937 3.526 8.029 3.526 9.094s0.4896 3.466 1.088 5.335c0.5984 1.87 1.237 3.902 1.418 4.517 0.2264 0.7674 4.918 1.07 14.96 0.9636l14.63-0.1544zm94.37 6.271c0.6055-0.4041 1.337-2.007 1.626-3.561 0.6607-3.557-2.546-6.895-6.212-6.467-2.111 0.2466-2.564 0.8857-2.821 3.982-0.2632 3.165 0.0912 3.904 2.5 5.21 3.274 1.775 3.455 1.806 4.908 0.8364zm17.93-4.684c3.802-1.588 4.602-4.618 2.118-8.015-3.025-4.136-14.65 1.538-14.65 7.151 0 2.077 0.4623 2.313 4.532 2.313 2.493 0 6.093-0.652 8-1.449zm-282.8-4.542 0.8894-3.491 8.439-1.165c4.641-0.6409 16.54-1.711 26.44-2.377 23.57-1.587 30.2-3.895 32.01-11.15 0.5368-2.151 0.0185-3.367-2.672-6.271-2.812-3.034-4.52-3.851-10.84-5.18-11.14-2.344-19.43-1.615-56.42 4.956-0.5046 0.0897-1.357-1.3-1.895-3.087-1.229-4.088-2.557-4.156-3.354-0.1718-0.7553 3.776-2.262 4.4-14.1 5.839-10.26 1.247-17.36 0.7302-27.97-2.034-3.977-1.036-8.077-1.884-9.111-1.884-1.275 0-2.908-1.931-5.08-6.006-3.391-6.362-8.809-10.99-12.86-10.99-2.285 0-2.266 0.0923 1.39 6.75 2.039 3.712 4.536 7.679 5.549 8.814 2.34 2.622 2.344 4.964 0.0121 6.629-1.006 0.7187-2.553 2.432-3.438 3.807-1.976 3.072-5.06 12.01-4.38 12.69 1.261 1.26 5.432-1.434 11.29-7.293 3.516-3.516 6.722-6.378 7.124-6.361 0.4023 0.0175 2.306 1.647 4.231 3.621 3.713 3.808 10.12 7.086 21.43 10.97 5.385 1.849 9.055 2.381 16.5 2.393 10.31 0.0165 11.13 0.258 13.02 3.842 1.465 2.779 2.567 1.95 3.79-2.848zm53.27-18.99c-1.312-0.8299-1.282-1.167 0.2429-2.692 2.025-2.026 4.437-0.5426 3.421 2.104-0.6888 1.795-1.54 1.931-3.664 0.5881zm66.92 16.23c2.941-3.431 4.073-5.65 4.078-7.993 6e-3 -3.139-0.12-3.238-3.962-3.087-4.414 0.173-8.102 3.209-10 8.231-0.9438 2.498-0.7894 3.227 1.111 5.25 1.214 1.292 2.768 2.349 3.455 2.349 0.6863 0 3.08-2.138 5.319-4.75zm144.5-2.832c0.3338-0.87 0.607-4.008 0.607-6.974 0-5.008-0.2189-5.506-3.072-6.981-7.157-3.701-8.337 5.923-1.629 13.29 2.425 2.662 3.275 2.801 4.094 0.6682zm-467.6-23.51c0.4013-5.236-0.8746-6.483-5.44-5.317-3.205 0.8189-4.263 0.66-6.559-0.9852-3.127-2.24-4.772-1.45-2.974 1.428 0.6667 1.068 1.219 2.96 1.227 4.205 0.0332 4.914 4.376 7.212 9.98 5.282 2.988-1.029 3.543-1.709 3.766-4.613zm185.5 2.872c4.848-1.001 6.093-1.68 6.88-3.748 1.239-3.259 3.762-6.029 5.492-6.029 0.7486 0 2.126 1.604 3.061 3.564 1.694 3.552 1.717 3.562 6.734 2.899 2.769-0.3657 7.734-1.263 11.03-1.994 3.3-0.7309 8.7-1.609 12-1.95 14.54-1.505 13.18-0.666 15.95-9.856 3.387-11.22 10.55-41.78 10.55-45.02 0-1.721-0.5407-2.648-1.545-2.648-0.85 0-2.614-1.069-3.92-2.375-1.306-1.306-3.648-2.611-5.205-2.9s-12.05-2.172-23.33-4.184c-22.69-4.049-51.44-9.934-68.86-14.09-12.48-2.981-13.09-2.84-13.13 3.053-0.0105 1.65-0.9108 4.462-2.001 6.25-2.571 4.217-6.788 4.502-9.146 0.6162-1.515-2.497-1.622-1.76-2.057 14.13l-0.4588 16.77 6.156 9.119c3.386 5.015 9.668 14.29 13.96 20.62 4.292 6.325 8.412 12.93 9.154 14.68 0.9568 2.255 2.156 3.304 4.115 3.6 6.06 0.9162 18.97 0.6508 24.56-0.505zm-267.3-3.802c0-1.447-5.031-3.189-6.922-2.396-1.224 0.5126-0.9053 0.9598 1.422 1.996 3.657 1.628 5.5 1.762 5.5 0.4006zm9 0.6413c0-0.8486-5.085-1.288-5.583-0.4825-0.2943 0.4762 0.8414 0.8659 2.524 0.8659s3.059-0.1725 3.059-0.3834zm10.69-3.26c-0.4952-0.4952-5.69 1.392-5.69 2.067 0 0.26 1.373-6e-3 3.051-0.5909 1.678-0.585 2.865-1.249 2.639-1.476zm9.95-4.05c-1.063-1.063-5.64 0.7537-5.64 2.239 0 1.322 0.3787 1.311 3.093-0.0928 1.701-0.8797 2.847-1.845 2.547-2.146zm33.36-1.806c0-1.104-1.123-1.491-4.25-1.465-4.189 0.0349-4.214 0.0561-1.75 1.465 3.28 1.875 6 1.875 6 0zm-24.5-0.5c1.786-0.7674 1.712-0.867-0.691-0.9297-1.48-0.03866-2.969 0.3797-3.309 0.9297-0.7378 1.194 1.222 1.194 4 0zm11.25-1.689c-0.9625-0.2515-2.538-0.2515-3.5 0-0.9625 0.2515-0.175 0.4573 1.75 0.4573s2.712-0.2058 1.75-0.4573zm460.2-3.445c1.681-1.804 1.908-3.082 1.469-8.25-0.7219-8.492 1.454-11.05 11.1-13.03 6.159-1.268 7.488-1.971 11.25-5.952 6.561-6.944 5.387-13.44-2.829-15.66-6.719-1.809-14.87 1.322-22.66 8.698-0.6875 0.6517-1.25 1.887-1.25 2.744 0 2.967-6.016 20.09-7.92 22.55-1.887 2.433-1.885 2.501 0.1504 5.36 1.586 2.228 6.032 5.183 8.48 5.637 0.1161 0.0215 1.106-0.9215 2.2-2.096zm-14.59-9.831c2.747-3.264 7.202-15.85 8.244-23.28 0.5922-4.227 0.4572-4.75-1.226-4.75-2.797 0-5.322 3.511-8.546 11.88-4.104 10.66-4.949 19.12-1.91 19.12 0.5184 0 2.065-1.334 3.438-2.965zm-11.93-2.421c2.649-1.107 3.435-2.105 3.897-4.948 0.3178-1.959 2.185-7.578 4.149-12.49 4.003-10 4.231-12.06 2.033-18.29-2.803-7.943-9.424-12.91-17.18-12.87-4.648 0.0188-5.86 0.7438-7.22 4.32-2.078 5.464-1.3 9.426 3.067 15.62 3.615 5.126 4.045 6.303 3.455 9.449-0.4472 2.384-2.174 5.072-5.129 7.986-5.75 5.668-5.885 9.321-0.4269 11.5 3.604 1.438 9.55 1.316 13.35-0.2734zm-278.8-14.36c0.4116-0.9625 1.167-15.25 1.68-31.75s1.309-30.39 1.771-30.86c2.042-2.097 3.015 0.9154 3.015 9.339 0 11.59 3.781 21.4 6.828 17.73 2.8-3.374 4.049-29.5 1.723-36.02-1.939-5.438-4.011-7.328-10.15-9.259-5.519-1.736-6.956-3.797-3.427-4.917 3.266-1.037 6.026-5.43 6.026-9.592 0-3.136-0.5838-4.26-3.284-6.319-1.806-1.377-5.149-2.803-7.429-3.167-3.615-0.578-4.481-0.327-6.769 1.96-2.273 2.273-2.583 3.323-2.321 7.866 0.2489 4.322 0.6976 5.417 2.552 6.231 4.983 2.186 1.276 5.513-6.144 5.513-7.577 0-10.33 4.637-14.17 23.87-0.9188 4.605-1.469 10.46-1.224 13 0.4521 4.68 3.379 12.13 4.766 12.13 0.9492 0 3.571-9.466 4.986-18 1.682-10.15 1.966-11 3.657-11 1.397 0 1.484 1.109 0.731 9.25-1.391 15.03-1.079 46.62 0.5053 51.1 1.171 3.315 1.558 3.656 2.771 2.443 1.966-1.966 3.355-11.52 3.362-23.12 5e-3 -8.817 0.1851-9.789 1.756-9.484 1.539 0.2988 1.76 1.721 1.832 11.82 0.0452 6.316 0.4208 13.28 0.8346 15.48 0.7112 3.781 3.008 7.5 4.631 7.5 0.4059 0 1.075-0.7875 1.486-1.75zm298.3-15.8c0.1856-0.1631 3.012-10.4 6.281-22.74l5.944-22.45-3.655-3.655c-3.391-3.391-3.607-3.961-2.993-7.881 1.432-9.134 10.99-25.33 16.69-28.28 1.591-0.8228 2.889-2.047 2.884-2.72-9e-3 -1.138-9.495-23.56-10.32-24.38-0.8564-0.8564-16.13 3.456-16.81 4.746-0.4089 0.7762-0.9896 2.592-1.29 4.035-0.3008 1.443-1.4 3.677-2.442 4.964-1.687 2.083-2.189 2.207-4.565 1.124-1.495-0.6812-3.325-2.786-4.16-4.784-1.297-3.104-1.843-3.501-4.198-3.051-1.489 0.2841-4.662 0.8124-7.052 1.174-3.812 0.5769-4.529 1.104-5.85 4.304-2.03 4.917-4.168 7.146-6.854 7.146-2.569 0-3.452-1.704-3.452-6.661 0-3.425-0.0676-3.483-3.25-2.788-7.088 1.547-6.898 0.9486-3.636 11.45 8.958 28.84 13.21 41.98 14.91 46.11 1.047 2.533 2.985 8.347 4.305 12.92l2.401 8.316 6.791 2.201c5.087 1.648 7.597 3.132 10 5.915 3.333 3.857 5.475 9.324 5.475 13.98 0 2.34 0.3013 2.609 2.25 2.01 1.238-0.3804 2.402-0.8251 2.588-0.9882zm-422.1-7.012c5.275-3.695 0.0378-12.44-6.58-10.99-7.051 1.549-12.03 7.631-9.118 11.14 1.653 1.992 12.79 1.884 15.7-0.1524zm268.5-3.443c0.91-2.317 2.236-4 3.152-4 1.833 0 1.954 0.8875 0.6052 4.435-1.314 3.455 0.9463 3.452 5.483-9e-3 5.67-4.325 13.13-6.578 23.74-7.172 8.086-0.4523 9.558-0.7784 8.619-1.91-0.6229-0.7505-3.529-2.061-6.459-2.913-6.004-1.745-14.73-0.7635-19.19 2.16-7.431 4.869-2.141-7.744 6.582-15.69 2.653-2.418 6.933-6.107 9.511-8.196 2.577-2.09 4.686-4.152 4.686-4.583 0-1.451-10.95 0.6886-14.38 2.81-3.936 2.433-8.085 7.556-10.18 12.57-0.8042 1.925-2.131 3.5-2.949 3.5-1.257 0-1.487-2.608-1.487-16.86 0-20.4-0.6632-26.66-2.647-25.02-3.274 2.717-4.662 11.79-4.064 26.56 0.4394 10.84 0.2746 14.44-0.6992 15.24-1.434 1.19-2.59 0.4445-2.59-1.671 0-2.241-5.127-14.48-7.303-17.44-1.088-1.477-4.646-4.108-7.908-5.846-6.03-3.214-8.933-3.603-4.317-0.5785 3.334 2.185 6.95 8.029 10.03 16.21 4.212 11.19 2.546 18.07-2.428 10.02-2.516-4.072-9.747-10.88-13.75-12.95-2.123-1.098-4.37-1.319-8.364-0.8211l-5.461 0.6802 5.852 3.486c3.219 1.917 7.37 4.76 9.224 6.317 5.015 4.21 10.46 12.11 11.11 16.13 0.5934 3.657 2.639 4.736 3.706 1.956 1.138-2.965 3.098-0.9027 2.769 2.913-0.3933 4.565 1.47 4.865 2.622 0.4217 0.4709-1.817 1.596-3.394 2.553-3.578 1.471-0.2832 1.619 0.2437 1.059 3.748-0.8439 5.278 0.8113 5.323 2.871 0.078zm-253.2 0.9051c1.381-2.182 1.082-5.069-0.7348-7.076-2.156-2.383-4.854-2.32-7.345 0.1713-3.938 3.938-1.627 8.835 4.011 8.499 1.749-0.104 3.58-0.8214 4.069-1.594zm368.9-1.501c0-4.143 2.618-9.148 5.216-9.973 0.981-0.3114 1.784-1.046 1.784-1.632 0-0.5861-3.781-12.37-8.402-26.18-4.621-13.81-10.17-30.96-12.33-38.09l-3.927-12.97-21.84 0.0354-5 3.654c-2.75 2.01-7.025 4.867-9.5 6.348s-6.512 4.318-8.972 6.302c-2.46 1.984-7.86 5.878-12 8.653-4.14 2.775-11.64 7.837-16.66 11.25-5.02 3.412-10.08 6.204-11.25 6.204-1.997 0-2.123 0.5029-2.123 8.5 0 4.675 0.3375 8.5 0.75 8.5s2.008-1.576 3.545-3.502c4.186-5.246 9.555-7.57 18.02-7.802 7.052-0.1925 7.19-0.1483 7.486 2.406 0.2406 2.072-0.8551 3.66-5.376 7.791-3.123 2.854-5.509 5.292-5.302 5.418 2.291 1.397 31.24 10.79 42.38 13.75 6.05 1.609 14.15 4.1 18 5.535s9.712 3.609 13.03 4.83c3.315 1.221 6.915 2.735 8 3.364 3.424 1.986 4.473 1.425 4.473-2.391zm-351.2-0.0837c1.664-2.267 1.586-5.797-0.1608-7.246-0.7759-0.644-2.975-1.425-4.887-1.735-2.698-0.4378-3.95-0.0908-5.589 1.548-3.6 3.6-2.496 7.622 2.473 9.014 3.814 1.068 6.619 0.5255 8.165-1.581zm216.2-5.113c-1.905-5.464-9.614-13.93-15.62-17.14-8.294-4.442-13.57-9.167-12.35-11.06 0.7484-1.161 3.176-1.496 10.85-1.5l9.886-5e-3 5.381 4.188c2.96 2.304 5.534 4.036 5.72 3.849 0.1865-0.1865-0.7873-2.562-2.164-5.279-2.579-5.09-6.983-9.486-12.48-12.46-1.95-1.055-3.148-2.482-3.148-3.75 0-1.699 0.6382-2.047 3.757-2.047 2.066 0 5.284 0.438 7.15 0.9733l3.394 0.9733-0.6431-10.22c-0.3537-5.623-1.498-15.4-2.543-21.72s-2.481-15.9-3.19-21.29c-1.045-7.925-1.589-9.731-2.857-9.49-0.9928 0.1887-1.75 1.731-2.067 4.21-0.7554 5.91-2.996 5.837-3.018-0.0982-0.0164-4.392-0.3756-5.13-3.933-8.083-2.153-1.788-4.346-3.25-4.873-3.25-0.8553 0-25.95 36.96-29.11 42.88-1.293 2.419-0.7578 13.38 0.7738 15.86 0.4373 0.7076 4.09 1.291 9.194 1.468l8.468 0.294 0.3012 4.12c0.3568 4.881 0.6148 4.765-14.57 6.542-6.92 0.8098-10.6 0.8721-11.28 0.1908-0.556-0.556-1.527-3.788-2.159-7.182-0.6312-3.394-1.648-6.171-2.26-6.171-1.139 0-12.88 4.422-31.55 11.88l-10.52 4.203-0.1679 10.37-0.1679 10.37 14.68 3.52c20.04 4.804 45.52 9.991 66.86 13.61 9.801 1.664 19.17 3.412 20.82 3.886 3.952 1.135 4.573 0.654 3.422-2.647zm202.1-16.79-2.078-4.918 0.3999 6.574c0.2199 3.616 1.021 7.666 1.779 9 1.357 2.386 1.384 2.359 1.679-1.656 0.183-2.496-0.5081-5.992-1.779-9zm23.98 10.93c0-3.775-4.428-13.57-6.86-15.18-1.395-0.9212-4.415-3.587-6.709-5.925-4.699-4.787-5.431-5.092-5.431-2.266 0 2.6 4.599 7.617 8.974 9.79 3.056 1.518 3.607 2.395 4.572 7.284 0.6039 3.057 1.43 6.095 1.835 6.75 1.09 1.764 3.618 1.445 3.618-0.4556zm16-16.68c0-2.784-3.236-6.035-8.014-8.049-3.377-1.424-4.844-2.546-11.74-8.985-2.131-1.99-3.591-2.698-4.235-2.054-1.685 1.685 3.119 7.26 8.487 9.851 2.826 1.364 6.652 4.402 8.8 6.988 4.184 5.037 6.7 5.881 6.7 2.249zm-224.1-26.51c2.452-7.898 8.939-15.9 10.65-13.13 0.3541 0.573 0.8616 4.287 1.128 8.253 0.6782 10.11 0.6795 10.11 4.701 7.994 4.341-2.285 21.59-14.03 32.05-21.82 4.457-3.321 9.904-7.123 12.1-8.449 2.2-1.326 6.291-4.121 9.091-6.212s5.612-3.801 6.25-3.801c1.435 0 1.436-0.3437 0.0164-5.082-1.353-4.517 0.0334-8.9 3.739-11.81l2.325-1.829-3.08-7.387c-1.694-4.063-3.418-7.837-3.83-8.387s-1.312-2.743-1.999-4.873-2.568-6.381-4.18-9.446c-2.329-4.427-3.677-5.829-6.556-6.819-2.381-0.8187-4.228-0.9229-5.385-0.304-0.9681 0.5181-2.635 0.942-3.703 0.942-1.069 0-2.522 0.6967-3.228 1.548-2.113 2.546-5.329 1.356-6.551-2.425-0.8183-2.532-0.75-5.507 0.2727-11.89 0.7502-4.685 1.157-8.725 0.9036-8.978s-1.951 0.2922-3.773 1.212c-1.822 0.9198-6.976 2.95-11.45 4.512-4.478 1.562-9.144 3.375-10.37 4.03-2.584 1.383-16.43 6.528-23.01 8.547-2.485 0.763-5.348 1.995-6.363 2.737-1.784 1.305-1.774 1.488 0.3016 5.558 1.181 2.314 4.407 6.704 7.17 9.755 4.15 4.582 4.97 6.1 4.716 8.723-0.2342 2.416-0.8463 3.252-2.558 3.495-1.386 0.1968-2.25 1.014-2.25 2.128 0 2.355-2.328 4.248-4.297 3.493-0.9634-0.3697-1.971 0.1916-2.662 1.483-1.33 2.484-4.698 2.699-7.176 0.4563-2.647-2.396-5.17-1.044-4.423 2.37 0.3312 1.513 1.013 6.126 1.515 10.25s1.808 13.37 2.903 20.55 2.304 17.33 2.687 22.54c0.6884 9.379 0.7363 9.516 4.069 11.7 1.855 1.216 4.388 3.765 5.628 5.665l2.256 3.454 0.6692-7.71c0.3681-4.24 1.135-9.21 1.704-11.04zm187.2 14.9c5.227-3.474 11.43-10.65 13.51-15.61 3.274-7.835 1.41-19.73-3.275-20.91-5.517-1.385-16.96 3.141-22.59 8.929-3.818 3.931-9.628 15.15-10.44 20.17-1.058 6.52 3.71 10.07 13.8 10.27 3.494 0.0688 5.626-0.6059 9-2.848zm-360.1-9.366c0-0.7173 1.298-3.352 2.885-5.854 2.415-3.809 3.528-4.652 6.834-5.181l3.948-0.6314-0.4569-5.51c-0.5293-6.382 0.9332-10.7 4.601-13.59l2.54-1.998-14.38-14.4c-7.911-7.919-14.78-14.15-15.27-13.85-0.4884 0.3018-0.5888 2.183-0.2231 4.181 0.3657 1.998 0.7462 5.604 0.8456 8.013 0.3446 8.352-4.928 7.72-9.446-1.132-2.547-4.99-3.873-4.733-3.873 0.75 0 4.105-0.2142 4.5-2.443 4.5-1.391 0-3.114-0.957-4-2.223-1.547-2.209-1.557-2.204-1.557 0.981 0 2.555-0.49 3.326-2.421 3.811-4.049 1.016-5.923 0.0939-8.286-4.078-2.1-3.709-2.262-3.805-2.277-1.364-0.0253 4.047-2.237 5.327-5.915 3.425-1.673-0.8652-3.568-2.555-4.21-3.755-1.385-2.587-1.698-12.25-0.6292-19.38l0.7623-5.083-3.262-6e-3c-3.287-6e-3 -6.668 2.679-19.2 15.25-2.235 2.241-7.544 7.32-11.8 11.29-6.032 5.623-7.354 7.326-6 7.73 4.402 1.314 6.657 3.178 7.736 6.395 0.9193 2.741 1.9 3.673 4.585 4.357 12.02 3.061 61.6 21.13 74.42 27.13 3.839 1.795 6.5 1.888 6.5 0.2265zm64.5-5.418c6.6-2.724 15.42-6.171 19.59-7.659l7.592-2.706-1.788-11.4-17.7-17.1c-9.734-9.407-20.4-19.37-23.7-22.15-3.3-2.774-8.7-7.826-12-11.23-7.571-7.802-9.908-9.008-17.7-9.132-10.77-0.1704-11.22-0.4742-11.8-7.892l-0.5-6.411-7.5 6.44c-13.9 11.93-13.25 11.24-11.44 12.26 2.324 1.3 4.437 6.944 4.437 11.85 0 4.119 0.3535 4.556 16.81 20.78 14.22 14.02 17.5 16.76 21.25 17.78 5.571 1.508 9.659 5.287 10.49 9.694 0.5792 3.088-0.3734 6.137-4.329 13.85-0.2114 0.4125 0.307 0.75 1.152 0.75 2.904 0 6.171 2.116 8.488 5.496 1.914 2.794 2.699 3.242 4.482 2.561 1.189-0.4542 7.561-3.055 14.16-5.779zm341 5.33c1.617-1.183 1.703-1.634 0.5687-3-0.9406-1.133-3.018-1.608-7.035-1.608-5.132 0-6.34-0.4471-12.13-4.489-6.534-4.563-7.928-5.202-7.928-3.632 0 0.4833 1.238 1.4 2.75 2.038s5.45 3.599 8.75 6.582c4.849 4.383 6.683 5.431 9.559 5.462 1.957 0.0214 4.415-0.5873 5.462-1.353zm-567.5-7.73 0.0153-5.622 4.061-0.6493c5.412-0.8655 6.234-0.1657 5.594 4.762-0.2954 2.272-0.1801 5.032 0.2562 6.132l0.7934 2 0.591-2c0.325-1.1 0.8835-4.076 1.241-6.613l0.6499-4.613 7.157-0.6231c3.936-0.3427 8.057-0.742 9.157-0.8873 1.777-0.2347 2.06 0.4614 2.535 6.236 0.5883 7.141 1.746 6.346 2.185-1.5l0.2796-5 11.5-0.5998v5.968c0 6.33 0.6465 9.132 2.107 9.132 0.4912 0 0.893-4.08 0.893-9.066 0-11.42 0.7418-12.93 6.325-12.93 4.719 0 15.39-2.518 17.26-4.074 1.332-1.105 0.7733-4.583-0.9019-5.619-0.589-0.3641-3.563-1.161-6.608-1.771-5.52-1.106-5.539-1.122-6.28-5.461-0.8795-5.152-1.8-6.52-1.8-2.676 0 4.838-1.584 6.543-5.733 6.17-4.102-0.3681-4.873-1.284-5.763-6.847-0.835-5.22-2.503-3.671-2.503 2.325 0 6.017-2.136 8.952-6.512 8.952-1.687 0-5.525 0.6319-8.528 1.404-4.909 1.262-13.61 2.318-34.32 4.166-7.467 0.6662-7.823 2.117-0.6412 2.616l4.5 0.3131 0.0376 11.5c0.0433 13.21 0.1441 14.04 1.462 12 0.5332-0.825 0.9763-4.03 0.9847-7.122zm279.1 4.288c3.616-1.338 0.645-2.338-7.66-2.579-4.098-0.1189-7.863-0.637-8.366-1.151-0.5034-0.5144-1.783-7.809-2.844-16.21-1.061-8.401-2.153-15.5-2.427-15.77-0.2741-0.2741-1.257-0.2073-2.184 0.1486-1.377 0.5286-1.574 1.494-1.074 5.274 0.8466 6.4 3.305 20.54 4.694 27.01l1.157 5.383 8.221-0.6319c4.522-0.3476 9.239-1.008 10.48-1.468zm11.49-75.53c-0.7812-2.826-1.733-8.288-2.116-12.14-0.5766-5.8-0.8894-6.681-1.825-5.139-0.621 1.023-3.379 5.008-6.129 8.854-2.75 3.846-5.995 8.634-7.212 10.64-5.095 8.399-7.734 2.61-7.013-15.38 0.4169-10.41 0.7026-11.65 5.102-22.07 3.128-7.411 5.805-12.15 8.142-14.41 1.915-1.856 3.481-3.714 3.481-4.13 0-0.4157-2.138-2.213-4.75-3.993-5.45-3.715-8.122-5.797-21.25-16.57-9.175-7.526-9.679-7.793-14.75-7.793h-5.246l-4e-3 5.179c-3e-3 4.992-1.261 7.574-4.159 8.54-0.9208 0.3069-0.9116 3.565 0.0406 14.34 1.236 13.99 4.59 57.57 5.98 77.71l0.7431 10.77 4.908 4.983c2.7 2.741 5.251 4.983 5.671 4.983 0.4194 0 0.5118-1.254 0.2052-2.787-0.5895-2.948 1.089-4.378 6.555-5.588 3.606-0.7979 5.052 1.014 5.052 6.33 0 2.591 0.2612 4.972 0.5804 5.291 0.3192 0.3192 7.067-9.106 15-20.95l14.41-21.53-1.42-5.138zm164.4 37.85c2.382-5.556 4.751-6.599 15.49-6.821l7.999-0.1653 0.5014 3.421c0.7248 4.945 2.69 4.951 4.02 0.0118 1.544-5.733 3.082-7.932 5.548-7.932 4.959 0 22.73-5.889 27.41-9.085 2.704-1.845 4.827-3.425 4.718-3.512-0.3094-0.2475-19.49 2.331-26.7 3.589-4.405 0.7689-11.01 0.8724-20.5 0.3209-7.7-0.4475-20.79-0.782-29.09-0.7433-13.3 0.062-15.79 0.3447-21 2.383-3.249 1.272-6.694 3.203-7.656 4.29-2.378 2.688-2.201 6.648 0.4243 9.442 1.917 2.04 3.072 2.306 9.75 2.241 4.167-0.0401 10.05-0.5197 13.08-1.066 3.025-0.546 7.075-1.076 9-1.177l3.5-0.1843-0.3401 4.75c-0.438 6.118 1.279 6.224 3.846 0.2366zm-30.47-11.43c-0.9653-1.562 0.3048-3.055 2.598-3.055 1.375 0 1.908 0.5517 1.68 1.739-0.3837 1.993-3.304 2.892-4.278 1.317zm-296.1 7.043c0.3065-0.496-0.806-3.493-2.472-6.661-2.915-5.542-3.019-6.177-2.748-16.85 0.2299-9.065 0.555-11.09 1.781-11.09 1.2 0 1.561 1.802 1.805 9l0.3046 9 3.945 1.832c2.17 1.008 3.945 2.404 3.945 3.103 0 0.9174 1.351 1.141 4.856 0.8042l4.856-0.4666 2.233 4.613c1.228 2.537 2.691 4.613 3.251 4.613 0.5807 0 0.7043-0.7514 0.2878-1.75-2.85-6.833-2.866-7.033-1.04-13.06 2.259-7.46 1.545-11.99-2.642-16.76-3.621-4.124-7.995-6.603-12.55-7.111-5.576-0.6224-8.093-2.101-10.75-6.316-2.771-4.39-5.708-6-10.94-6-3.935 0-5.449 1.559-6.239 6.425-0.4602 2.836-1.142 3.736-3.202 4.227-3.869 0.9219-5.117 2.259-5.117 5.485 0 5.556 9.764 8.786 15.71 5.198 3.025-1.824 5.051-1.675 5.66 0.4147 0.2802 0.9625 0.7933 6.025 1.14 11.25 0.7995 12.04 5.515 24 7.924 20.1zm-12.65-15.05c0.0893-10.61-0.1397-12.85-1.265-12.42-2.051 0.7871-2.618 2.988-3.251 12.63-0.4957 7.548-0.3261 9.032 1.228 10.75 0.9919 1.096 2.113 1.993 2.491 1.993s0.7366-5.828 0.7966-12.95zm14.05 3.836c-3.247-2.449-3.417-1.674-0.6999 3.19 2.342 4.191 2.352 4.197 2.685 1.383 0.2406-2.034-0.3144-3.313-1.985-4.573zm294.9-7.311c2.074-0.7837 7.266-1.617 11.54-1.851s8.031-0.6899 8.354-1.012c1.443-1.443 12.19-48.92 12.61-55.67 0.232-3.788-0.0291-4.519-1.727-4.834-1.1-0.2045-2.533-1.055-3.185-1.89-1.019-1.305-2.357-1.362-9.538-0.4066-4.594 0.6114-9.908 1.558-11.81 2.103-1.9 0.545-5.206 0.991-7.347 0.991-6.201 0-16.79 2.262-17.34 3.706-0.2789 0.7268 0.7541 3.814 2.296 6.861 1.83 3.617 2.823 7.17 2.862 10.24 0.0528 4.164-0.2021 4.734-2.246 5.023-1.268 0.1797-2.966-0.2219-3.774-0.8925-2.902-2.408-2.479-5e-3 1.442 8.211 2.193 4.595 6.129 13.42 8.747 19.6s4.892 11.25 5.055 11.25c0.1624 0 1.992-0.6412 4.066-1.425zm-103-3.825c-0.2947-1.238-0.8497-3.262-1.233-4.5-1.012-3.264 2.02-2.961 4.999 0.5 2.803 3.256 4.511 2.385 2.21-1.127-1.32-2.015-1.367-2.631-0.2681-3.544 0.9923-0.8235 1.649-0.7198 2.585 0.4083 0.6903 0.8318 1.65 1.512 2.133 1.512 1.956 0 0.657-2.511-3.087-5.968-4.857-4.484-10.65-15.82-15.6-30.53-4.375-12.99-7.319-16.73-15.1-19.19-7.507-2.366-12.07-0.853-17.27 5.734l-3.922 4.962 13.62 13.86 0.7142 8.813c0.825 10.18 2.823 19.68 4.652 22.12 3.547 4.731 8.492 8.119 11.88 8.141 6.394 0.0406 6.708-0.989 2.56-8.406-3.356-6.001-4.033-9.541-1.824-9.541 0.4395 0 3.211 4.275 6.159 9.5 5.116 9.067 7.955 12.09 6.802 7.25zm-40.06-27.4c2.948-4.484 5.359-8.393 5.359-8.686 0-0.2928-2.491-2.984-5.535-5.98l-5.535-5.447-1.33 2.633c-3.969 7.859-6.082 19.43-5.053 27.67l0.6815 5.455 3.026-3.744c1.664-2.059 5.438-7.413 8.386-11.9zm-84.22 6.046c2.333-0.8952 1.922-3.277-0.6682-3.873-1.238-0.285-6.075-0.6311-10.75-0.769l-8.5-0.2508 0.327-23.75c0.281-20.41 0.1196-23.75-1.148-23.75-1.197 0-1.595 2.588-2.113 13.75-0.3511 7.562-1.041 18.68-1.532 24.71s-0.674 11.31-0.4051 11.75 3.05 0.8356 6.18 0.89c4.771 0.0829 16.29 1.286 16.86 1.76 0.0925 0.0774 0.88-0.1323 1.75-0.4662zm187.1-12.89c1.7-4.07 2.722-4.376 4.177-1.25 1.106 2.376 1.135 2.347 2.727-2.75 0.7772-2.488 3.021-1.692 4.225 1.5 1.52 4.026 4.306 4.006 4.306-0.0314 0-3.924 2.415-4.867 5.365-2.095 1.245 1.17 2.536 2.127 2.869 2.127 1.023 0-1.34-7.396-2.938-9.194-1.771-1.994-4.248-15.06-4.276-22.56l-0.0197-5.25h-3.326c-2.257 0-4.083-0.8057-5.682-2.508l-2.356-2.508-2.811 3.41c-2.684 3.257-2.828 3.965-3.194 15.76-0.2108 6.791-0.9361 15.39-1.612 19.11-1.712 9.414-0.2648 12.96 2.544 6.242zm-335.7-10.92c1.862-5.537 3.967-6.713 14.3-7.998l5.65-0.7023 1.68 5.059c1.766 5.316 2.1 5.617 4.52 4.069 1.292-0.8267 1.126-1.69-1.199-6.235-1.485-2.901-4.505-9.418-6.711-14.48-5.333-12.24-9.103-19.63-10.47-20.53-0.6154-0.4041-2.08-0.7416-3.256-0.75-2.443-0.0175-2.9 1.915-6.384 26.98-1.108 7.975-2.277 15.78-2.597 17.34-0.4724 2.308-0.263 2.778 1.113 2.5 1.008-0.2037 2.366-2.336 3.35-5.261zm2.599-10.87c-0.3302-0.8604-3e-3 -6.432 0.7276-12.38 1.098-8.944 1.635-10.87 3.105-11.15 1.344-0.2557 2.507 1.271 4.768 6.257 4.328 9.545 6.252 15.67 5.242 16.68-0.4807 0.4807-3.657 1.165-7.058 1.52-5.089 0.5319-6.29 0.3694-6.784-0.918zm8.02-2.716c2.225 0 2.258-0.1239 0.9926-3.75-0.7198-2.062-1.953-5.264-2.741-7.115l-1.432-3.365-0.6994 6.182c-0.3847 3.4-0.9768 6.905-1.316 7.788-0.4677 1.219-0.1931 1.444 1.139 0.9325 0.9655-0.3705 2.791-0.6736 4.057-0.6736zm-55.96 3.905c5.623-1.524 11.23-7.255 13.03-13.32 1.821-6.131 1.847-5.858-0.4442-4.632-4.337 2.321-21.64 7.219-30.84 8.731-1.788 0.2937-3.25 0.902-3.25 1.352 0 1.431 7.384 6.988 10.5 7.902 4.172 1.225 6.38 1.218 11-0.0341zm494.5-9.422c4.42-2.24 4.967-2.875 4.967-5.765 0-4.002-2.979-9.689-10.07-19.22-7.06-9.491-10.56-11.88-17.48-11.95-4.765-0.0455-5.723 0.32-8.898 3.395-2.609 2.527-3.558 4.294-3.558 6.628 0 4.167 1.463 5.228 8.316 6.034 5.535 0.6505 7.553 2.462 4.184 3.754-2.196 0.8426-2.196 16.64 0 16.64 1.189 0 1.5-1.439 1.5-6.949 0-6.705 0.1174-7.039 3.344-9.5 3.941-3.006 4.656-3.135 4.656-0.8384 0 0.9418-1.224 2.689-2.721 3.882-2.394 1.909-2.553 2.371-1.323 3.854 2.198 2.649 6.617 4.552 10.57 4.552 4.864 0 4.387 2.637-1.032 5.706l-3.992 2.261 3.283 0.0165c1.806 9e-3 5.518-1.116 8.25-2.5zm-31.31 0.2668c-0.5063-1.431-6.659-1.216-8.16 0.2858-0.619 0.619 0.7486 0.9642 3.819 0.9642 3.396 0 4.655-0.3626 4.341-1.25zm18.74-1.7c0.3229-0.5224-0.296-1.422-1.375-2-2.626-1.406-2.779-1.363-3.384 0.9498-0.4133 1.581-0.0307 2 1.824 2 1.291 0 2.612-0.4274 2.934-0.9498zm-502.9-8.05c4.312-8.619 11.52-33.21 10.14-34.59-0.351-0.351-2.845-0.1089-5.542 0.538-13 3.118-18.22 15.52-13.1 31.13 3.859 11.77 4.044 11.84 8.507 2.915zm487.6-1.75c0.2044-3.438 0.033-6.25-0.3809-6.25-1.23 0-2.137 8.55-1.289 12.16 0.8927 3.799 1.146 2.902 1.67-5.908zm-469 4.108c6.218-1.745 6.638-2.628 2.662-5.597-3.382-2.525-7.231-1.068-8.759 3.316-1.657 4.753-2.111 4.584 6.098 2.28zm463.8-2.358c0-4.122-1.427-5.173-3.8-2.8-2.332 2.332-0.6894 6.8 2.5 6.8 0.85 0 1.3-1.385 1.3-4zm-81.2-3.256c0.5731-0.6906 1.347-2.472 1.721-3.959 0.842-3.355 3.586-5.942 4.241-3.998 0.2382 0.7078 1.555 2.62 2.926 4.25 2.078 2.469 3.237 2.963 6.956 2.963 4.06 0 4.558-0.271 5.509-3 1.162-3.335 3.85-4.082 3.85-1.071 0 4.418 6.327 6.793 9.122 3.424 0.7612-0.9172 1.294-3.541 1.202-5.92l-0.1653-4.272 5.229 0.5397c6.013 0.6206 9.206-1.364 8.203-5.1-0.3102-1.156-0.5701-3.125-0.5776-4.376-9e-3 -1.499-0.8661-2.599-2.514-3.225-2.664-1.013-3.464-4-1.071-4 4.22 0 6.172-8.27 3.015-12.78-1.929-2.754-4.407-2.826-7.716-0.2225-3.822 3.006-4.594 2.497-4.925-3.25l-0.3023-5.25-4.166 0.0801c-4.896 0.0942-9.037 2.508-10.38 6.053-1.332 3.505-3.428 2.429-3.552-1.824-0.1284-4.388-0.7646-5.431-4.488-7.357-6.218-3.215-14.94 1.596-16.33 9.005-0.8532 4.548-3.08 4.568-4.574 0.0423-1.064-3.224-1.47-3.5-5.154-3.5-3.126 0-4.666 0.6668-7.054 3.054-2.892 2.892-3.02 3.351-2.4 8.623 0.7152 6.086 1.171 5.755-5.179 3.762-2.843-0.8922-7.212 3.174-7.212 6.711 0 4.481 5.107 9.279 9.04 8.492 2.428-0.4856 2.96-0.2589 2.96 1.261 0 1.019-0.675 2.413-1.5 3.097-2.073 1.72-1.876 4.252 0.5726 7.365 2.698 3.43 5.687 3.332 9.965-0.3245 3.857-3.297 5.962-3.824 5.962-1.491 0 0.8523 0.6866 2.877 1.526 4.5 1.632 3.155 5.342 4.02 7.271 1.695zm-150.3-7.994c0.308-1.238 0.1865-4.05-0.27-6.25-0.7301-3.518-1.201-4.037-3.91-4.304-2.501-0.2465-3.196 0.1299-3.697 2-1.087 4.057-0.7005 5.838 1.81 8.349 3.06 3.06 5.338 3.137 6.067 0.2045zm-12.19-8.815c1.308-1.868 1.218-2.293-0.9433-4.455-1.314-1.314-2.39-3.085-2.39-3.935 0-2.243-4.201-1.939-6.811 0.4935-4.477 4.171-1.623 9.961 4.91 9.961 2.694 0 4.206-0.5963 5.235-2.065zm25.5-5.259c0.5663-2.984-2.695-5.676-6.876-5.676-3.229 0-3.829 0.3681-4.417 2.711-0.9026 3.596 1.666 5.474 6.955 5.084 2.929-0.216 4.084-0.78 4.338-2.119zm-14.83-4.154c0-5.06-8.254-7.63-9.432-2.936-0.9724 3.874 0.1814 6.247 3.23 6.641 3.844 0.4976 6.202-0.9108 6.202-3.705zm7.702-7.718c2.592-2.512 3.298-4.01 3.298-7 0-3.353-0.2855-3.804-2.411-3.804-2.724 0-7.235 4.74-8.21 8.628-0.4416 1.76-0.0805 2.883 1.25 3.891 2.488 1.884 2.307 1.935 6.074-1.715zm-13.1-3.386c-0.3338-0.87-0.607-2.24-0.607-3.045 0-2.162-4.596-6.373-6.955-6.373-1.645 0-2.045 0.6424-2.045 3.277 0 4.922 2.417 7.723 6.664 7.723 2.827 0 3.427-0.3224 2.943-1.582zm302.4 604.6c-0.8204-0.5187-2.508-0.688-3.75-0.3763-2.541 0.6378-2.907-0.8131-1.283-5.085 1.39-3.656 3.721-3.172 5.709 1.185 0.9409 2.062 1.884 4.088 2.097 4.5 0.5328 1.035-0.9735 0.9135-2.772-0.2237zm-1.008-3.467c0-0.2425-0.45-0.7191-1-1.059s-1-0.1415-1 0.441 0.45 1.059 1 1.059 1-0.1984 1-0.441zm13 0.441c0-2.2 0.45-4 1-4s1 1.8 1 4-0.45 4-1 4-1-1.8-1-4zm4.372 1.345c-0.8045-3.205 0.6575-5.845 3.237-5.845 1.258 0 2.007 0.8366 2.237 2.5 0.1902 1.375 0.8168 3.073 1.392 3.774 1.54 1.874 0.0872 2.74-1.877 1.118-1.31-1.081-1.781-1.113-2.107-0.1425-0.7097 2.109-2.18 1.392-2.882-1.405zm3.628-3.463c0-0.55-0.45-0.7219-1-0.382s-1 1.068-1 1.618 0.45 0.7219 1 0.382 1-1.068 1-1.618zm6.192 1.868c0.2738-3.785 0.5812-4.25 2.808-4.25 2.106 0 2.47 0.4331 2.312 2.75-0.1036 1.512 0.234 2.75 0.75 2.75 0.516 0 0.9383 0.675 0.9383 1.5 0 1.827-1.149 1.925-2.925 0.25-1.06-1-1.417-1-1.783 0-1.047 2.857-2.385 0.9456-2.099-3zm3.308-1.75c0.3399-0.55 0.1415-1-0.441-1s-1.059 0.45-1.059 1 0.1984 1 0.441 1 0.7191-0.45 1.059-1zm6.546 4.556c-1.825-2.199-0.5381-4.556 2.489-4.556 2.242 0 2.554 0.3752 2.281 2.741-0.3616 3.133-2.88 4.091-4.77 1.814zm13.15 0.2444c-1.603-1.603-1.514-3.295 0.252-4.76 2.173-1.804 5.548-0.3315 5.548 2.421 0 3.197-3.522 4.618-5.8 2.34zm3.8-1.8c0-0.55-0.4766-1-1.059-1s-0.7809 0.45-0.441 1 0.8165 1 1.059 1 0.441-0.45 0.441-1zm-66.31 1.361c-1.084-1.084 0.2828-2.307 1.889-1.69 1.204 0.4619 1.385 0.0498 0.8738-1.987-0.8248-3.286 0.5554-5.901 1.646-3.117 0.4165 1.063 0.7888 3.171 0.8275 4.684 0.0571 2.234-0.3672 2.75-2.263 2.75-1.283 0-2.621-0.2878-2.973-0.6395zm17.76-2.453c-1.793-3.467-1.016-5.398 1.041-2.586 1.269 1.736 1.358 1.725 1.986-0.2516 1.087-3.424 2.758-2.429 1.984 1.181-1.257 5.862-2.605 6.307-5.01 1.657zm38.33-0.6361c-1.847-3.934-1.65-5.238 0.5198-3.437 0.9966 0.8271 1.65 0.8165 2.508-0.0408 0.6377-0.6377 1.359-0.9603 1.602-0.7168 0.5468 0.5468-1.705 7.936-2.404 7.891-0.2779-0.0179-1.279-1.681-2.226-3.696z"/></g></svg>
