<svg xmlns="http://www.w3.org/2000/svg" width="512" height="512"><circle cx="256" cy="256" r="256" fill="#dfdcd3"/><path d="M184.721 432.775c3.277-19.161-19.129-34.726-30.691-43.94-34.146-27.216-35.314-29.357-48.813-91.563-3.719-17.141-11.08-43.579-16.357-58.748s-9.286-29.187-8.907-31.153c.801-4.161 7.765-6.474 20.409-6.775 7.22-.172 9.875 1.386 15.275 6.078 11.608 10.087 20.929 42.815 23.155 50.363 5.639-.313 17.947 7.51 24.232 16.397 10.813 15.295 20.248 25.124 39.699 37.116 23.273 14.348 41.866 33.552 44.976 44.75 3.32 11.958 2.58 80.753-.818 83.387-2.379 1.842-48.819 7.808-57.881 9.206-8.692 1.34-5.114-10.23-4.279-15.117zm51.935-4.778c.164-22.937 2.784-58.524-3.851-71.968-5.128-10.397-20.079-23.465-42.425-37.848-17.109-11.014-23.896-17.278-36.003-33.239-7.361-9.702-12.5-15.964-18.122-15.539-2.256 5.604 2.746 23.431 7.18 35.331 7.912 21.244 24.427 20.105 31.371 33.417 2.433 4.666-6.927 13.275-10.156 7.036-4.52-8.732-18.208-12.222-24.926-21.924-10.583-15.287-21.723-47.926-12.624-61.6-4.97-19.27-12.664-55.827-32.496-47.829 0 .296 3.412 10.081 7.582 21.746 7.49 20.954 14.363 47.573 21.474 83.175 6.27 31.391 9.625 36.91 33.357 54.88 28.791 21.804 42.204 34.97 40.663 59.706 13.284-1.59 23.557-3.053 38.97-5.346zm-62.091-70.528c-3.286-4.173 6.155-10.311 10.245-6.13 4.032 4.121 6.508 9.524 8.844 14.561 2.172 4.68-7.194 10.664-9.413 6.83-1.598-2.763-4.147-8.239-9.677-15.261zm89.947 80.42c-2.339-.637-2.221-14.432-1.699-41.969.694-36.749 1.09-40.052 5.688-47.444 6.758-10.87 26.059-28.126 46.715-41.768 12.535-8.279 20.205-15.376 28.197-26.097 7.257-9.734 20.805-23.382 30.456-24.579 5.536-18.771 14.136-42.13 26.501-52.572 5.26-4.442 30.35-3.082 31.678 4.543.402 2.307-4.583 19.212-10.865 35.033-9.654 24.318-11.849 35.831-19.85 77.427-6.58 34.209-11.935 43.731-39.137 65.205-26.846 21.19-35.283 30.952-33.876 49.017.766 9.863 2 13.453-7.722 12.454-18.639-1.914-46.867-6.735-56.082-9.246zm49.324-4.158c1.093-28.78 13.749-39.403 39.203-58.294 25.253-18.739 29.824-26.461 33.38-45.92 7.223-39.553 17.011-78.428 31.85-115.582-20.28-9.975-26.786 28.18-32.929 46.428 8.256 17.471-4.195 54.386-16.317 65.925-12.245 11.657-16.239 10.667-21.411 19.583-3.418 5.894-11.898-2.761-10.118-6.709 1.271-2.827 5.957-11.126 14.48-15.241 24.099-11.639 25.738-53.267 23.109-54.354-20.739 10.77-20.366 29.354-52.859 48.463-27.296 16.053-42.626 32.092-44.563 43.237-4.078 23.474-2.256 42.463-2.267 66.881zm6.876-65.391c2.637-7.682 6.508-14.621 11.097-18.595 2.281-1.977 10.692 4.259 8.996 6.758-4.106 6.046-7.2 11.7-9.369 16.647-1.518 3.464-11.949-1.234-10.721-4.81z" fill="#a7a29a"/><path d="M307.669 91.674c-51.305-18.988-91.757 18.218-102.758 66.589-9.469 41.687 11.752 88.091 60.423 74.037 19.987-5.768 47.639-15.36 54.249-37.779 4.663-15.793-6.168-30.175-17.605-39.696-19.649-16.353-70.581-28.646-65.689 12.506.832 7.069 3.949 13.787 7.149 20.031 3.762 7.297 14.572 2.111 11.478-5.452-7.149-17.437-8.591-34.482 15.073-28.622 14.971 3.711 34.183 15.034 37.357 31.397 4.64 23.805-43.987 37.373-60.023 37.886-25.259.803-32.68-25.831-32.155-46.348.605-24.929 11.688-50.618 31.11-66.502 24.753-20.26 63.345-11.21 84.647 9.761 47.418 46.674-.165 130.443-51.614 149.714C156.979 315.001 116.736 89.315 234.665 68.23c.88-.165.625-1.461-.234-1.359-98.94 11.565-102.431 170.625-21.447 210.076C321.611 329.87 426.956 135.83 307.671 91.674z" fill="#6fc4bc" stroke="#6fc4bc" stroke-width="5.739"/></svg>