<svg xmlns="http://www.w3.org/2000/svg" width="512" height="512"><path d="M160.962 491.701c4.37-25.548-25.506-46.301-40.922-58.587-45.528-36.288-47.086-39.142-65.084-122.083-4.959-22.854-14.773-58.105-21.81-78.331s-12.382-38.917-11.877-41.538c1.068-5.548 10.354-8.632 27.212-9.034 9.627-.23 13.166 1.848 20.367 8.104 15.477 13.449 27.905 57.087 30.874 67.15 7.519-.417 23.929 10.013 32.309 21.863 14.417 20.394 26.998 33.499 52.932 49.488 31.031 19.131 55.821 44.736 59.968 59.666 4.427 15.944 3.44 107.67-1.09 111.183-3.172 2.456-65.092 10.411-77.175 12.275-11.59 1.787-6.818-13.641-5.705-20.157zm69.247-6.371c.218-30.583 3.711-78.032-5.135-95.958-6.837-13.862-26.772-31.287-56.567-50.464-22.812-14.685-31.861-23.038-48.004-44.319-9.814-12.936-16.667-21.285-24.163-20.719-3.007 7.473 3.662 31.241 9.573 47.109 10.549 28.326 32.569 26.807 41.828 44.556 3.245 6.221-9.237 17.7-13.541 9.382-6.026-11.643-24.277-16.296-33.235-29.232-14.111-20.382-28.965-63.902-16.832-82.134-6.627-25.693-16.885-74.435-43.328-63.772 0 .394 4.549 13.442 10.109 28.995 9.986 27.939 19.15 63.431 28.632 110.899 8.36 41.855 12.833 49.213 44.476 73.173 38.389 29.072 56.272 46.626 54.218 79.609 17.712-2.12 31.41-4.071 51.96-7.128zm-82.788-94.037c-4.381-5.563 8.207-13.748 13.66-8.173 5.376 5.494 8.678 12.699 11.792 19.414 2.896 6.241-9.592 14.218-12.55 9.106-2.131-3.685-5.529-10.985-12.902-20.348zM267.35 498.519c-3.118-.849-2.962-19.242-2.265-55.959.926-48.999 1.454-53.403 7.584-63.259 9.011-14.494 34.746-37.501 62.287-55.691 16.713-11.039 26.94-20.501 37.597-34.796 9.677-12.979 27.74-31.176 40.608-32.772 7.381-25.027 18.848-56.173 35.335-70.097 7.013-5.923 40.466-4.109 42.238 6.057.536 3.076-6.11 25.617-14.486 46.711-12.871 32.423-15.798 47.774-26.466 103.235-8.774 45.612-15.913 58.308-52.182 86.94-35.794 28.253-47.043 41.27-45.169 65.356 1.022 13.151 2.667 17.937-10.296 16.606-24.851-2.552-62.49-8.98-74.776-12.328zm65.765-5.544c1.458-38.373 18.331-52.538 52.27-77.726 33.671-24.985 39.766-35.282 44.507-61.227 9.631-52.737 22.682-104.571 42.467-154.109-27.04-13.3-35.714 37.574-43.906 61.905 11.008 23.294-5.594 72.515-21.756 87.9-16.327 15.542-21.653 14.222-28.547 26.11-4.557 7.859-15.864-3.681-13.491-8.946 1.695-3.769 7.943-14.834 19.307-20.321 32.133-15.519 34.317-71.022 30.813-72.473-27.652 14.36-27.155 39.138-70.479 64.617-36.395 21.404-56.835 42.789-59.418 57.65-5.437 31.299-3.007 56.617-3.023 89.174zm9.168-87.188c3.516-10.243 8.678-19.495 14.796-24.794 3.042-2.636 14.257 5.678 11.995 9.011-5.475 8.062-9.6 15.6-12.493 22.196-2.024 4.618-15.932-1.645-14.295-6.413z" fill="#a7a29a"/><path d="M324.892 36.899c-68.407-25.317-122.342 24.291-137.01 88.785-12.626 55.583 15.669 117.455 80.564 98.717 26.649-7.691 63.519-20.48 72.331-50.372 6.217-21.057-8.223-40.233-23.474-52.928-26.198-21.804-94.107-38.194-87.585 16.675 1.11 9.426 5.265 18.383 9.532 26.707 5.016 9.729 19.429 2.815 15.305-7.27-9.532-23.25-11.455-45.976 20.097-38.162 19.961 4.948 45.577 20.045 49.81 41.863 6.187 31.74-58.649 49.83-80.031 50.514-33.679 1.071-43.573-34.442-42.873-61.797.806-33.239 15.584-67.49 41.48-88.669 33.004-27.014 84.46-14.947 112.863 13.015 63.223 62.232-.22 173.924-68.818 199.619C123.973 334.669 70.315 33.753 227.554 5.641c1.173-.22.833-1.948-.312-1.812-131.92 15.421-136.575 227.5-28.596 280.102 144.837 70.563 285.297-188.157 126.25-247.032z" fill="#6fc4bc" stroke="#6fc4bc" stroke-width="7.652"/></svg>