<svg xmlns="http://www.w3.org/2000/svg" xmlns:xlink="http://www.w3.org/1999/xlink" width="512" height="512"><path d="M0 0h512v512H0z" fill="#dfdcd3"/><g transform="matrix(.863455 0 0 .863455 -186.09109 -73.829057)"><g fill="#a7a29a"><path d="M361.712 528.376c-.101-4.704-.403-10.718-5.813-10.718-6.115 0-8.467 9.106-8.467 14.918 0 5.376 2.52 9.71 7.56 9.71 4.334 0 6.35-3.394 7.426-8.501l-4.267-.336c-.605 2.184-1.31 4.536-3.158 4.536-2.15 0-3.091-2.318-3.091-5.746 0-3.326 1.512-10.282 3.696-10.282 1.714 0 1.781 3.595 1.781 6.014zm5.794 6.854c0-2.285.672-6.72 2.016-6.72 1.109 0 1.411 2.251 1.411 3.965 0 2.789-.706 6.552-1.747 6.552-.84 0-1.68-.739-1.68-3.797zm-3.931-.302c0 5.779 2.722 7.224 5.611 7.224 3.864 0 5.678-4.973 5.678-9.341 0-3.192-1.176-7.426-5.342-7.426-4.402 0-5.947 5.914-5.947 9.542zm13.748-9.341l-.202 6.821.37 9.106 3.931.37-.302-6.384c.504-2.789 1.915-5.779 2.621-5.779.672 0 .84 1.714.84 3.125l-.269 7.728 3.931.37.269-7.493c.269-2.621 1.378-4.872 1.949-4.872.874 0 1.075 1.68 1.075 3.091 0 3.024-.269 6.149-.638 9.778l3.898.336.672-9.61c0-3.259-.706-7.022-4.67-7.022-1.31 0-2.486 1.142-3.461 2.554-.672-.874-1.68-1.411-3.125-1.411-1.31 0-2.453 1.109-3.528 2.789l-.571-3.293z"/><use xlink:href="#A"/><path d="M412.65 526.729l-.202 5.678.37 9.106 3.931.37-.269-4.973c.269-3.562 1.747-7.997 2.419-7.997.874 0 1.109 2.318 1.109 4.402 0 2.251-.101 4.469-.37 7.258l3.931.37.437-8.266c0-3.427-.672-7.392-4.435-7.392-1.478 0-2.822 1.68-3.931 3.898l-.504-2.184zm14.846-1.478v16.128l3.83.37V525.62zm.269-5.914l-.336 3.73 3.763.47.336-3.763z"/><use xlink:href="#B"/><use xlink:href="#C"/><use xlink:href="#B" x="26.906"/><path d="M488.596 542.084l.302-9.71c2.923 3.864 5.578 7.392 7.594 10.416l3.226-2.386c-1.982-2.856-4.133-5.779-6.25-8.434 2.99-1.949 5.611-4.603 5.611-7.627 0-4.771-3.259-7.19-6.955-7.19a18.71 18.71 0 0 0-7.694 1.747l.034 5.947a309 309 0 0 1-.437 16.733zm.437-20.429c1.142-.403 2.15-.571 3.091-.571 1.478 0 2.856.907 2.856 3.091 0 1.68-2.621 4.334-5.981 5.914z"/><use xlink:href="#A" x="103.425"/><use xlink:href="#D"/><use xlink:href="#C" x="77.569"/><use xlink:href="#E"/><path d="M560.559 542.286l-.101-7.728c5.242-1.478 9.173-4.805 9.173-9.173 0-4.973-3.965-7.93-7.594-7.93a16.91 16.91 0 0 0-5.846 1.042c-.202 5.342-.336 10.147-.336 15.254 0 2.52.034 5.242.134 8.098zm.101-20.731c.437-.067.84-.168 1.378-.168 1.445 0 2.99 1.512 2.99 3.998 0 2.352-1.747 4.435-4.57 5.342l.202-9.173z"/><use xlink:href="#F"/><use xlink:href="#D" x="66.74"/><use xlink:href="#B" x="158.09"/><use xlink:href="#A" x="208.162"/><use xlink:href="#D" x="104.737"/><use xlink:href="#C" x="182.306"/><path d="M644.817 516.649c-.235 4.368-.37 7.862-.37 12.365s0 8.098.202 12.13l2.957.302c-.034-.437-.067-.874-.067-1.344.941 1.277 2.218 1.882 3.494 1.882 3.058 0 4.738-5.712 4.738-10.651 0-2.654-.84-5.88-3.192-5.88-1.445 0-3.024 1.478-4.334 3.562 0-4.435.134-7.627.403-12.029zm3.427 18.11c1.142-3.696 1.982-4.939 2.789-4.939.874 0 .974 1.243.974 2.99 0 2.251-.907 5.578-2.117 5.578-.84 0-1.109-.302-1.613-1.008l-.034-2.621z"/><use xlink:href="#E" x="119.241"/><use xlink:href="#F" x="96.042"/></g><path d="M321.207 412.019q-.105-.316-.246-.316.281.141.281.246 0 .035-.035.07zm27.563-13.852q-1.652.879-1.652 2.145 0 .035 0 .105-.844.563-2.355 1.617l.281.246q.387 0 .527-.246.176.422.176.633-.105 0-.914.387l-.352-.562q-.281.563-1.055.563-1.09 0-1.547.141.176.176.527.176-3.727 1.441-3.727 1.547 0 .035.035.035-.07-.035-.352-.211-.141.281-.703.984h-1.828q-1.512 1.793-3.375 1.793-.281 0-.562-.07-3.621.457-3.621 1.512-.422 0-.773-.422-2.461.738-2.461.879 0 0 .07 0-.633 0-.773-.211-.281.316-.738 1.02-.141-.07-.422-.457-.141.07-.492.07-.387 0-1.02-.07-.176.387-.176.703 0 .387.176.773 0-.105 0-.141 0-.316-.387-.316h-.562q-.457.352-.457.773l-1.195-.141q-.07 0-.984.316-.879.281-1.055.281 0-.035-.457-.246-.316.352-.316.809l-4.746 2.074q-.527 1.723-1.687 4.535.07.492.246 1.582l18.387-1.441h5.309q0 1.09-.141 1.09-.035 0-.07-.07h2.391q-.035.07-.035.141 0 .211.176.598-.422.492-.492.492-.035 0-.035 0 .703.211 1.934.844-.457.809-1.652 1.16l-.281.598q.07.141.141.703v.844q-.211.316-1.09.633.105.281.246.633l-7.488 2.531q-.984 0-1.301-.246-.562.457-2.672.773l-1.09 1.23q-.422-.035-.738-.035-.352 0-.527.035-.105-.07-.141-.07-.176.07-.176.457-.105 0-2.215.387-.492.07-.914.07-.879 0-1.336-.387l-5.449 2.18q-.738 0-2.18.668-1.863.844-2.145.949-.246.387-1.02 1.793-.598 2.039-1.266 4.535l-.035 1.371 23.414-1.828q.07 0 .809.211.738.176.773.176h3.375q.738.176 2.848.527l4.43.633q1.09.352 3.234.984 1.02 1.02 3.164 3.059v2.074l-.703.809.492.563q-1.336.527-1.406.703 0 .035.07.035-.07.492-.457 1.582-.246.07-.773.07-.562 0-1.441-.07-.176.211-.176.563-.914.352-1.371.879 0-.035 0-.07 0-.281-.633-.527-.176.035-.422.035-.492 0-1.16-.105-.457-.035-1.195-.141-.773 0-1.477.492l.527.457q-1.09 0-1.406-.141.035-.211.316-.527-.211-.07-.949-.07 0 0 .211.598l-9.738.211q-1.793.035-2.215.773l-.422-.352h-1.582l-7.277 1.23q-.633 0-.773-.246-.035.035-.387.316-.352.246-.352.246h-1.195q-.246.246-.246.773 0-.316-.211-.527h-.633q-.387.387-.387.563-.562.176-3.445.316-.422.316-1.652.703l-5.555.703h-4.008l-.457-1.266q-2.918-2.039-3.621-5.133-.457-1.828-.457-4.711.105-.387.773-2.461 1.758-5.203 3.059-10.055-.07-.316-.07-.457.738-1.301.879-2.602-.492-2.355-.527-2.355-.035 0-.035.035v-2.812q.387-.422 1.301-2.461.598-1.301 1.441-1.301.105 0 .211.035l1.793-5.414v-.879l-.316-.387h-1.09q-3.516-3.867-4.184-7.418l1.23-4.711q1.969-1.371 2.074-1.512.105 0 .422.141.352.105.422.105 2.039 0 5.766-1.266.949-.914 2.953-2.531 1.793.984 2.531.984.281-.07 1.195-.211.527-.07.949-.07.422-.035.738.07l14.133-3.023q.633 0 .773.211.141-.211.141-.457l2.566-.422q.773.141 2.531.422 1.02-.562 1.477-.984.316 0 1.09.211l4.359-.879q.246.141 1.723.457.387-.492 1.09-.809.387 0 .387.563-.527.316-1.16.527.141.141.914.141.105-.07 2.074-.598.07.07.07.105-.035.105-.211.211.457.598.563.598.035 0 .035-.035v.809q.176.07.773.281.352-.352 1.09-.352 1.863.457 3.094.457.141.211.141.352 0 .07-.035.105zm15.785 6.856l-6.328 55.723q-1.16 0-2.531.563-.387 0-.773-.352l-.457.07q-.457.07-.844.07-.141-.141-1.793-1.477-.281 0-.844.633-.246-.703-.703-1.652-.703-4.781-.703-5.836l2.953-25.418q1.266-10.441 2.883-26.473.281-1.16 1.09-4.078.668-2.461 1.793-3.586l1.512.176q1.02.949 1.898 1.266.211.457 1.723 2.355 1.125 3.41 1.125 4.184z" fill="#79736a"/><g fill="#6fc4bc"><path d="M471.957 455.753l-.387.457.105.316q.141.316.141.527l-1.582 1.266q-2.918.598-3.34.598.246 0 .246 0 0-.035-2.074-.141-.703-.035-1.406-.035-.668-.035-1.301.035-.703.316-1.547.316l-23.555-4.008-10.406-3.586-8.789-4.078q-.633.387-.633 1.125v3.762l1.16 5.133q-.316.949-.316 1.723 0 .281.035.563l-2.602 3.867q-.246 0-1.125-.352l-.387.527q-.879-.387-3.164-.738-.457-.422-2.32-1.512-1.371-.809-1.371-1.441-.422-1.687-1.09-5.062l.211-10.441 1.512-28.406q-.105-.949-1.547-2.531 0-.527.176-.633 0 0 0-.035 0-.105-.176-.492-.176-.422-.176-.492 0-.773 2.25-5.344 9.387-7.699 15.715-8.297.281-.352 2.109-1.195 1.828-.879 2.004-1.055 1.934-.633 5.484-1.828 3.094-.316 4.992-.562l3.48-.457q.703 0 5.379.773.141.105 1.547.809 1.547 1.09 2.918 3.059 1.723 1.266 3.832 4.641l.949 4.57q-.773 2.883-.773 3.586-.703 1.547-1.406 2.355-.457 1.125-1.16 3.129-1.617 2.145-2.953 3.551-.984 1.934-3.164 4.078-3.586 3.586-3.867 4.008-1.934 1.371-3.375 2.602-1.055 1.582-3.27 2.672-2.32 1.336-7.77 5.379 0 .527.141.563 0 0 .07-.035.176.176.844.809 6.539 1.934 14.766 3.621 12.445 2.602 16.137 3.48.773.07 1.547.844l4.57 1.617q3.691 2.426 3.691 3.094l1.02.914q0 .141-.844 1.09.387.211.844.527zm-26.789-48.48v-1.125q-1.09-.598-2.812-.598l-2.039.176q-1.969.176-2.637.176-2.742.809-7.137 1.898-3.937 1.723-9.316 3.41-3.41 1.793-3.41 3.727 0 .633.246 1.371-.07.879-.387 2.531l-.773 14.836q8.789-6.504 13.184-10.09 6.715-5.555 10.934-10.652 4.148-5.027 4.148-5.66z"/><use xlink:href="#G"/><path d="M557.035 472.347q-.914 7.348-4.5 12.445-.457.633-2.742 3.129-.668.281-2.531 1.934-1.934 1.09-3.621 1.582-1.055.598-3.234 1.898-1.195.422-3.621 1.406l-11.426 1.898-5.59.176q-.211-.07-1.125-.246-1.898-.246-4.852-1.195-2.707-.633-3.551-1.125-.598-.422-3.867-2.742-.457-.879-1.793-1.969-2.215-4.957-2.215-5.309v-5.062l2.426-3.656q1.055-.773 3.516-2.391.352.387.352.844 0 .387-.352.914.141.035.422.035.176-.105.176-.633.563-.246 1.898-.562l-.105 1.195-.598.527q.141.316.527 1.371.914-.246 1.125-.246-.352.809-1.301 2.25v.703q.141.141.281.387 0 .176 0 .422 0 .914.176 2.602.07.211.703 1.195 2.25 1.758 2.883 2.039 1.266.527 4.887.703l3.164.141q.105 0 1.23-.246 1.16-.211 1.195-.211.07 0 .387.035.316.07.422.07 1.195 0 4.148-.527 1.723-.844 3.691-1.512 3.34-1.125 6.152-2.672.844-.457 2.32-1.793 5.625-3.621 5.625-13.184l-2.215-13.781-.246-.281h-.773l-9.703 3.094q-.809-.246-2.531-.316-.387.07-.773.07-3.48 0-8.227-2.988-5.555-3.516-5.555-6.996l.387-1.441q-.141-.457-.141-.914 0-2.531 2.496-5.766 2.32-2.988 4.043-3.34 3.023-1.652 7.066-2.355.246-.035 6.469-1.02l4.711-.211q2.145.527 4.324 1.16 2.531.703 4.359 2.145v.879q1.652.703 2.109 3.094.246.492.844 1.371-.457 0-.598.141 0 1.266.141 1.336 0-.035 0-.07-.211-.141-.703-.141l-.316.316q.633 1.266 1.723 3.516.07.141.07.281 0 .176-.07.281.457 3.375 1.688 12.973l.984 7.348zm-47.566.879q-.035.105-.246.176-.07.035-.105.035-.141 0-.211-.105.527 0 .563-.105zm35.684-32.73l-3.516-.246-6.926.527q.035 0 .035.035 0 .141-5.59 2.074l-1.16 1.055q0 .176.211.457 3.867.949 5.414.949 2.672 0 6.398-1.301 4.359-1.547 5.133-3.551zm64.827-6.575q-.176 0-.949.387 0 .352-.105.527l.703.703q-1.582.457-3.27 1.16l-6.539-1.406q-1.723.105-4.641.633-3.375 1.16-6.328 1.934-5.52 2.18-10.055 4.289-5.977 2.742-7.523 8.367 0 .211.352 2.813v1.16q-.352.633-.492 1.055-.07.176-.07.352 0 .457.457.738l-3.516 2.25h-.703q-.703-.422-1.898-1.441l-.949.141q-.457-.668-1.23-1.828-.352-.914-.738-1.617l-.422-2.25v-3.059q0-.035.07-.387.105-.352.105-.422v-3.27q0-1.441 1.055-4.887 1.301-4.395 2.883-4.395h1.055l1.23 1.09h.527q.914 0 6.504-3.551 3.867-1.652 11.707-5.098 0 0 0 0 .281 0 3.586-1.441.809-.035 3.27-.598l2.566-.527h3.551q3.727 0 8.684 4.957.176.211.246.844.879.984.879 1.828z"/><use xlink:href="#G" x="137.531"/><path d="M687.359 451.429q0 1.617-.809 3.41-.562.984-4.957 2.742-4.676 1.863-7.137 1.863-.211 0-2.707-.352-.598-.105-1.125-.105-.844 0-1.547.246l-3.48-.703h-3.023q-.633 0-2.988-.844-2.004-.703-2.566-.984-.176-.773-1.02-1.652 0-.387.176-.562l-.352-.352q.176-.773.176-1.441 0-.984-.387-1.652 2.426-1.02 3.164-1.02h2.637l3.621-.492h2.391l5.871-.738q.492-.422.527-.422-.141-.246-.879-.809-1.09-.457-4.113-1.723-10.371-4.465-11.883-10.09-.211-.879-.633-1.441v-3.797q0-.281.633-1.547.316-3.762 14.273-3.762-.035 0-.035 0 0 .035 6.012.773 4.113 1.477 5.484 2.285 2.883 1.688 4.113 4.324 0 0 0 0 0 .211-.492.984-.527.844-.527 1.055l.141.422-1.898 1.266h-.527q.141 0 .141-.035 0-.176-4.465-1.301-4.5-.598-5.414-.598l-4.992.668q.141.141.141.422.457.281 1.266.844 17.191 6.855 17.191 15.117zm47.004-9.106q0 2.637-1.617 4.535-.07.316-.422 1.406-1.301 1.617-3.797 4.57-3.902 2.531-7.312 4.676-8.016 2.742-12.199 2.742h-2.355q-.387 0-.879-.316-.07 0-.105 0-.949 0-5.66-1.336-1.969-1.16-5.484-4.184-.492-1.02-1.687-3.059-1.16-4.184-1.16-6.469l.316-3.305v-5.203q.105-.281.703-2.25.633-2.074.844-2.988.703-1.863 5.414-4.852.773-.246 2.496-.703.457-.246 1.16-.633.141.141.422.141l2.039-.633q2.004-.668 3.516-.668h6.785q1.125 0 2.566.527.07 0 .141 0 2.496 0 9.668 4.57v.703q1.195 1.125 3.164 2.285.703.809 2.988 5.766.457 2.496.457 4.676zm-8.121-2.32v-.914q-2.812-4.605-5.203-4.605-.105 0-.281.105-.141.07-.211.07h-.422q-.633-1.055-3.199-1.055-.281 0-.598 0l-3.867.141-8.648 1.652-.387.598v1.266q0 .387.316 1.09-.105.211-.703.738.316.738.387.844-.668.527-1.09.703 0 0 0 0-.035 0-.984 1.758-1.02 1.793-1.02 2.25.035.105.176.773 1.055 1.23 3.516 2.285 2.496 1.02 4.359 1.02 4.148-.773 4.887-.773l5.695-2.25q4.148-1.652 5.59-3.023 1.688-1.547 1.688-2.672z"/></g><path d="M486.402 349.693c1.142-6.677-6.666-12.101-10.695-15.312-11.899-9.484-12.306-10.23-17.01-31.907-1.296-5.973-3.861-15.186-5.7-20.472s-3.236-10.171-3.104-10.856c.279-1.45 2.706-2.256 7.112-2.361 2.516-.06 3.441.483 5.323 2.118 4.045 3.515 7.293 14.92 8.069 17.55 1.965-.109 6.254 2.617 8.444 5.714 3.768 5.33 7.056 8.755 13.834 12.934 8.11 5 14.589 11.692 15.673 15.594 1.157 4.167.899 28.14-.285 29.058-.829.642-17.012 2.721-20.17 3.208-3.029.467-1.782-3.565-1.491-5.268zm18.098-1.665c.057-7.993.97-20.394-1.342-25.079-1.787-3.623-6.997-8.177-14.784-13.189-5.962-3.838-8.327-6.021-12.546-11.583-2.565-3.381-4.356-5.563-6.315-5.415-.786 1.953.957 8.165 2.502 12.312 2.757 7.403 8.512 7.006 10.932 11.645.848 1.626-2.414 4.626-3.539 2.452-1.575-3.043-6.345-4.259-8.686-7.64-3.688-5.327-7.57-16.701-4.399-21.466-1.732-6.715-4.413-19.454-11.324-16.667 0 .103 1.189 3.513 2.642 7.578 2.61 7.302 5.005 16.578 7.483 28.984 2.185 10.939 3.354 12.862 11.624 19.124 10.033 7.598 14.707 12.186 14.17 20.806 4.629-.554 8.209-1.064 13.58-1.863zm-21.637-24.577c-1.145-1.454 2.145-3.593 3.57-2.136 1.405 1.436 2.268 3.319 3.082 5.074.757 1.631-2.507 3.716-3.28 2.38-.557-.963-1.445-2.871-3.372-5.318zm31.344 28.024c-.815-.222-.774-5.029-.592-14.625.242-12.806.38-13.957 1.982-16.533 2.355-3.788 9.081-9.801 16.279-14.555 4.368-2.885 7.041-5.358 9.826-9.094 2.529-3.392 7.25-8.148 10.613-8.565 1.929-6.541 4.926-14.681 9.235-18.32 1.833-1.548 10.576-1.074 11.039 1.583.14.804-1.597 6.695-3.786 12.208-3.364 8.474-4.129 12.486-6.917 26.981-2.293 11.921-4.159 15.239-13.638 22.722-9.355 7.384-12.295 10.786-11.805 17.081.267 3.437.697 4.688-2.691 4.34-6.495-.667-16.332-2.347-19.543-3.222zm17.188-1.449c.381-10.029 4.791-13.731 13.661-20.314 8.8-6.53 10.393-9.221 11.632-16.002 2.517-13.783 5.928-27.33 11.099-40.277-7.067-3.476-9.334 9.82-11.475 16.179 2.877 6.088-1.462 18.952-5.686 22.973-4.267 4.062-5.659 3.717-7.461 6.824-1.191 2.054-4.146-.962-3.526-2.338.443-.985 2.076-3.877 5.046-5.311 8.398-4.056 8.969-18.562 8.053-18.941-7.227 3.753-7.097 10.229-18.42 16.888-9.512 5.594-14.854 11.183-15.529 15.067-1.421 8.18-.786 14.797-.79 23.306zm2.396-22.787c.919-2.677 2.268-5.095 3.867-6.48.795-.689 3.726 1.484 3.135 2.355-1.431 2.107-2.509 4.077-3.265 5.801-.529 1.207-4.164-.43-3.736-1.676z" fill="#a7a29a"/><path d="M529.246 230.829c-17.878-6.617-31.975 6.349-35.808 23.204-3.3 14.527 4.095 30.697 21.056 25.8 6.965-2.01 16.601-5.352 18.904-13.165 1.625-5.503-2.149-10.515-6.135-13.833-6.847-5.699-24.595-9.982-22.891 4.358.29 2.463 1.376 4.804 2.491 6.98 1.311 2.543 5.078.736 4-1.9-2.491-6.076-2.994-12.016 5.252-9.974 5.217 1.293 11.912 5.239 13.018 10.941 1.617 8.295-15.328 13.023-20.916 13.202-8.802.28-11.388-9.001-11.205-16.151.211-8.687 4.073-17.639 10.841-23.174 8.626-7.06 22.074-3.906 29.497 3.402 16.524 16.265-.057 45.456-17.986 52.171-42.63 15.962-56.653-62.684-15.558-70.031.307-.057.218-.509-.082-.474-34.478 4.03-35.694 59.458-7.474 73.206 37.854 18.442 74.563-49.176 32.996-64.563z" fill="#6fc4bc" stroke="#6fc4bc" stroke-width="2"/></g><defs><path id="A" d="M405.631 525.184l-.101 5.645.034 2.251c-.605 2.688-1.714 4.704-2.386 4.704-.739 0-1.075-.672-1.075-1.714 0-3.763.269-6.35.605-9.542l-3.898-.37c-.37 3.494-.638 6.418-.638 10.416 0 3.024 1.579 4.805 4.2 4.805 1.21 0 2.453-1.042 3.595-2.722a20.49 20.49 0 0 1 .437 2.856l3.326.336c-.202-2.654-.269-6.955-.269-11.021l.067-5.309z"/><path id="B" d="M441.451 516.616l.101 5.275-.034 4.166c-.974-.47-1.982-.806-3.192-.806-2.386 0-4.334 5.846-4.334 9.811 0 3.494.907 6.149 4.603 6.149 1.21 0 2.218-1.075 3.125-2.89l.202 3.158 2.99.269c.336-6.182.538-11.827.538-17.942l-.067-6.854zm.134 15.792c-.84 3.125-1.949 5.174-2.52 5.174-.907 0-1.142-1.075-1.142-2.52 0-2.621.84-6.518 2.05-6.518.538 0 1.109.235 1.646.638z"/><path id="C" d="M451.536 531.668c.269-1.344 1.008-2.923 1.915-2.923 1.142 0 1.277 1.512 1.277 2.654v.907c-3.394.067-6.72 2.15-6.72 5.275 0 2.419 1.512 4.032 4.032 4.032 1.075 0 2.117-.403 2.99-.907l.269 1.075 2.822.235c.235-3.595.403-7.09.403-10.147 0-3.528-1.109-6.787-4.67-6.787-2.99 0-4.805 3.158-5.41 6.283zm3.024 6.586c-.739.302-1.344.403-1.848.403-.773 0-1.277-.403-1.277-1.075 0-.806.874-1.949 3.192-2.15z"/><path id="D" d="M524.61 526.427c-.571-.672-1.445-1.21-2.419-1.21-1.109 0-2.318 1.378-3.326 3.528a13.02 13.02 0 0 1-.538-1.714l-2.52-.269c.47 2.554.605 5.947.605 9.509l-.101 5.443 3.898.336.134-5.779-.067-3.562c.403-2.083 1.075-3.562 2.117-3.562.538 0 1.008.134 1.344.37z"/><path id="E" d="M540.247 516.716a288.39 288.39 0 0 0-.504 16.666 218.69 218.69 0 0 0 .134 8.165l3.965.37-.168-8.534c0-5.712.202-11.256.504-16.363z"/><path id="F" d="M580.526 534.558c-.034-2.554.034-9.307-4.872-9.307-4.67 0-6.082 6.048-6.082 10.08 0 4.234 2.318 6.653 5.006 6.653 3.091 0 4.637-2.318 5.611-4.066l-2.554-1.512c-.638 1.075-1.579 2.453-2.722 2.453-.638 0-1.21-1.109-1.344-2.957 2.184-.302 5.275-.874 6.955-1.344zm-4.872-6.014c.773 0 1.075 2.083 1.075 4.2-1.008.269-2.083.504-3.091.706.134-2.486.974-4.906 2.016-4.906z"/><path id="G" d="M514.391 451.429q-.457.633-1.23 2.109-.492 0-.738-.211-.387.141-1.195.633.773.316 2.004 1.02-.457.141-1.934 1.477-1.477.527-4.465 1.195-.914.563-1.266 1.582l-8.965 1.125q-9.633-.633-15.363-4.359-4.148-4.254-5.203-9.738-.387-.773-.387-1.23 0-3.445 2.953-8.332 3.305-5.379 7.277-6.996.211-.105 1.16-.105 1.688-1.441 5.941-2.496 3.762-.914 6.469-.914 2.355 0 5.414 1.723-.07.141-.07.844.668.141 1.582.387 0 .211.457.703 0 1.301.984 3.375v1.547q0 .281-.422.703.246.352.246.773 0 .773-.668 1.758-.07.492-.141 1.406-.809 1.09-2.039 3.27l-7.629 5.52q1.125.668 6.188.809l8.93.211q.598 1.02 2.109 2.215zm-16.805-15.75q.035.035.035.035-.07 0-.281-.598-2.742 1.09-3.656 1.582-2.602 1.371-3.516 2.918.246 0 .527.246 4.887-1.863 6.891-4.184z"/></defs></svg>