<svg xmlns="http://www.w3.org/2000/svg" xmlns:xlink="http://www.w3.org/1999/xlink" width="1920" height="512"><g transform="matrix(2.980877 0 0 2.980877 8.87048 -1818.3578)"><g transform="translate(-93.457 271.535)"><path d="M321.207 412.019q-.105-.316-.246-.316.281.141.281.246 0 .035-.035.07zm27.563-13.852q-1.652.879-1.652 2.145 0 .035 0 .105-.844.563-2.355 1.617l.281.246q.387 0 .527-.246.176.422.176.633-.105 0-.914.387l-.352-.562q-.281.563-1.055.563-1.09 0-1.547.141.176.176.527.176-3.727 1.441-3.727 1.547 0 .035.035.035-.07-.035-.352-.211-.141.281-.703.984h-1.828q-1.512 1.793-3.375 1.793-.281 0-.562-.07-3.621.457-3.621 1.512-.422 0-.773-.422-2.461.738-2.461.879 0 0 .07 0-.633 0-.773-.211-.281.316-.738 1.02-.141-.07-.422-.457-.141.07-.492.07-.387 0-1.02-.07-.176.387-.176.703 0 .387.176.773 0-.105 0-.141 0-.316-.387-.316h-.562q-.457.352-.457.773l-1.195-.141q-.07 0-.984.316-.879.281-1.055.281 0-.035-.457-.246-.316.352-.316.809l-4.746 2.074q-.527 1.723-1.687 4.535.07.492.246 1.582l18.387-1.441h5.309q0 1.09-.141 1.09-.035 0-.07-.07h2.391q-.035.07-.035.141 0 .211.176.598-.422.492-.492.492-.035 0-.035 0 .703.211 1.934.844-.457.809-1.652 1.16l-.281.598q.07.141.141.703v.844q-.211.316-1.09.633.105.281.246.633l-7.488 2.531q-.984 0-1.301-.246-.562.457-2.672.773l-1.09 1.23q-.422-.035-.738-.035-.352 0-.527.035-.105-.07-.141-.07-.176.07-.176.457-.105 0-2.215.387-.492.07-.914.07-.879 0-1.336-.387l-5.449 2.18q-.738 0-2.18.668-1.863.844-2.145.949-.246.387-1.02 1.793-.598 2.039-1.266 4.535l-.035 1.371 23.414-1.828q.07 0 .809.211.738.176.773.176h3.375q.738.176 2.848.527l4.43.633q1.09.352 3.234.984 1.02 1.02 3.164 3.059v2.074l-.703.809.492.563q-1.336.527-1.406.703 0 .035.07.035-.07.492-.457 1.582-.246.07-.773.07-.562 0-1.441-.07-.176.211-.176.563-.914.352-1.371.879 0-.035 0-.07 0-.281-.633-.527-.176.035-.422.035-.492 0-1.16-.105-.457-.035-1.195-.141-.773 0-1.477.492l.527.457q-1.09 0-1.406-.141.035-.211.316-.527-.211-.07-.949-.07 0 0 .211.598l-9.738.211q-1.793.035-2.215.773l-.422-.352h-1.582l-7.277 1.23q-.633 0-.773-.246-.035.035-.387.316-.352.246-.352.246h-1.195q-.246.246-.246.773 0-.316-.211-.527h-.633q-.387.387-.387.563-.562.176-3.445.316-.422.316-1.652.703l-5.555.703h-4.008l-.457-1.266q-2.918-2.039-3.621-5.133-.457-1.828-.457-4.711.105-.387.773-2.461 1.758-5.203 3.059-10.055-.07-.316-.07-.457.738-1.301.879-2.602-.492-2.355-.527-2.355-.035 0-.035.035v-2.812q.387-.422 1.301-2.461.598-1.301 1.441-1.301.105 0 .211.035l1.793-5.414v-.879l-.316-.387h-1.09q-3.516-3.867-4.184-7.418l1.23-4.711q1.969-1.371 2.074-1.512.105 0 .422.141.352.105.422.105 2.039 0 5.766-1.266.949-.914 2.953-2.531 1.793.984 2.531.984.281-.07 1.195-.211.527-.07.949-.07.422-.035.738.07l14.133-3.023q.633 0 .773.211.141-.211.141-.457l2.566-.422q.773.141 2.531.422 1.02-.562 1.477-.984.316 0 1.09.211l4.359-.879q.246.141 1.723.457.387-.492 1.09-.809.387 0 .387.563-.527.316-1.16.527.141.141.914.141.105-.07 2.074-.598.07.07.07.105-.035.105-.211.211.457.598.563.598.035 0 .035-.035v.809q.176.07.773.281.352-.352 1.09-.352 1.863.457 3.094.457.141.211.141.352 0 .07-.035.105zm15.785 6.856l-6.328 55.723q-1.16 0-2.531.563-.387 0-.773-.352l-.457.07q-.457.07-.844.07-.141-.141-1.793-1.477-.281 0-.844.633-.246-.703-.703-1.652-.703-4.781-.703-5.836l2.953-25.418q1.266-10.441 2.883-26.473.281-1.16 1.09-4.078.668-2.461 1.793-3.586l1.512.176q1.02.949 1.898 1.266.211.457 1.723 2.355 1.125 3.41 1.125 4.184z" fill="#79736a"/><g fill="#6fc4bc"><path d="M471.957 455.753l-.387.457.105.316q.141.316.141.527l-1.582 1.266q-2.918.598-3.34.598.246 0 .246 0 0-.035-2.074-.141-.703-.035-1.406-.035-.668-.035-1.301.035-.703.316-1.547.316l-23.555-4.008-10.406-3.586-8.789-4.078q-.633.387-.633 1.125v3.762l1.16 5.133q-.316.949-.316 1.723 0 .281.035.563l-2.602 3.867q-.246 0-1.125-.352l-.387.527q-.879-.387-3.164-.738-.457-.422-2.32-1.512-1.371-.809-1.371-1.441-.422-1.687-1.09-5.062l.211-10.441 1.512-28.406q-.105-.949-1.547-2.531 0-.527.176-.633 0 0 0-.035 0-.105-.176-.492-.176-.422-.176-.492 0-.773 2.25-5.344 9.387-7.699 15.715-8.297.281-.352 2.109-1.195 1.828-.879 2.004-1.055 1.934-.633 5.484-1.828 3.094-.316 4.992-.562l3.48-.457q.703 0 5.379.773.141.105 1.547.809 1.547 1.09 2.918 3.059 1.723 1.266 3.832 4.641l.949 4.57q-.773 2.883-.773 3.586-.703 1.547-1.406 2.355-.457 1.125-1.16 3.129-1.617 2.145-2.953 3.551-.984 1.934-3.164 4.078-3.586 3.586-3.867 4.008-1.934 1.371-3.375 2.602-1.055 1.582-3.27 2.672-2.32 1.336-7.77 5.379 0 .527.141.563 0 0 .07-.035.176.176.844.809 6.539 1.934 14.766 3.621 12.445 2.602 16.137 3.48.773.07 1.547.844l4.57 1.617q3.691 2.426 3.691 3.094l1.02.914q0 .141-.844 1.09.387.211.844.527zm-26.789-48.48v-1.125q-1.09-.598-2.812-.598l-2.039.176q-1.969.176-2.637.176-2.742.809-7.137 1.898-3.937 1.723-9.316 3.41-3.41 1.793-3.41 3.727 0 .633.246 1.371-.07.879-.387 2.531l-.773 14.836q8.789-6.504 13.184-10.09 6.715-5.555 10.934-10.652 4.148-5.027 4.148-5.66z"/><use xlink:href="#A"/><path d="M557.035 472.347q-.914 7.348-4.5 12.445-.457.633-2.742 3.129-.668.281-2.531 1.934-1.934 1.09-3.621 1.582-1.055.598-3.234 1.898-1.195.422-3.621 1.406l-11.426 1.898-5.59.176q-.211-.07-1.125-.246-1.898-.246-4.852-1.195-2.707-.633-3.551-1.125-.598-.422-3.867-2.742-.457-.879-1.793-1.969-2.215-4.957-2.215-5.309v-5.062l2.426-3.656q1.055-.773 3.516-2.391.352.387.352.844 0 .387-.352.914.141.035.422.035.176-.105.176-.633.563-.246 1.898-.562l-.105 1.195-.598.527q.141.316.527 1.371.914-.246 1.125-.246-.352.809-1.301 2.25v.703q.141.141.281.387 0 .176 0 .422 0 .914.176 2.602.07.211.703 1.195 2.25 1.758 2.883 2.039 1.266.527 4.887.703l3.164.141q.105 0 1.23-.246 1.16-.211 1.195-.211.07 0 .387.035.316.07.422.07 1.195 0 4.148-.527 1.723-.844 3.691-1.512 3.34-1.125 6.152-2.672.844-.457 2.32-1.793 5.625-3.621 5.625-13.184l-2.215-13.781-.246-.281h-.773l-9.703 3.094q-.809-.246-2.531-.316-.387.07-.773.07-3.48 0-8.227-2.988-5.555-3.516-5.555-6.996l.387-1.441q-.141-.457-.141-.914 0-2.531 2.496-5.766 2.32-2.988 4.043-3.34 3.023-1.652 7.066-2.355.246-.035 6.469-1.02l4.711-.211q2.145.527 4.324 1.16 2.531.703 4.359 2.145v.879q1.652.703 2.109 3.094.246.492.844 1.371-.457 0-.598.141 0 1.266.141 1.336 0-.035 0-.07-.211-.141-.703-.141l-.316.316q.633 1.266 1.723 3.516.07.141.07.281 0 .176-.07.281.457 3.375 1.688 12.973l.984 7.348zm-47.566.879q-.035.105-.246.176-.07.035-.105.035-.141 0-.211-.105.527 0 .563-.105zm35.684-32.73l-3.516-.246-6.926.527q.035 0 .035.035 0 .141-5.59 2.074l-1.16 1.055q0 .176.211.457 3.867.949 5.414.949 2.672 0 6.398-1.301 4.359-1.547 5.133-3.551zm64.827-6.575q-.176 0-.949.387 0 .352-.105.527l.703.703q-1.582.457-3.27 1.16l-6.539-1.406q-1.723.105-4.641.633-3.375 1.16-6.328 1.934-5.52 2.18-10.055 4.289-5.977 2.742-7.523 8.367 0 .211.352 2.813v1.16q-.352.633-.492 1.055-.07.176-.07.352 0 .457.457.738l-3.516 2.25h-.703q-.703-.422-1.898-1.441l-.949.141q-.457-.668-1.23-1.828-.352-.914-.738-1.617l-.422-2.25v-3.059q0-.035.07-.387.105-.352.105-.422v-3.27q0-1.441 1.055-4.887 1.301-4.395 2.883-4.395h1.055l1.23 1.09h.527q.914 0 6.504-3.551 3.867-1.652 11.707-5.098 0 0 0 0 .281 0 3.586-1.441.809-.035 3.27-.598l2.566-.527h3.551q3.727 0 8.684 4.957.176.211.246.844.879.984.879 1.828z"/><use xlink:href="#A" x="137.531"/><path d="M687.359 451.429q0 1.617-.809 3.41-.562.984-4.957 2.742-4.676 1.863-7.137 1.863-.211 0-2.707-.352-.598-.105-1.125-.105-.844 0-1.547.246l-3.48-.703h-3.023q-.633 0-2.988-.844-2.004-.703-2.566-.984-.176-.773-1.02-1.652 0-.387.176-.562l-.352-.352q.176-.773.176-1.441 0-.984-.387-1.652 2.426-1.02 3.164-1.02h2.637l3.621-.492h2.391l5.871-.738q.492-.422.527-.422-.141-.246-.879-.809-1.09-.457-4.113-1.723-10.371-4.465-11.883-10.09-.211-.879-.633-1.441v-3.797q0-.281.633-1.547.316-3.762 14.273-3.762-.035 0-.035 0 0 .035 6.012.773 4.113 1.477 5.484 2.285 2.883 1.688 4.113 4.324 0 0 0 0 0 .211-.492.984-.527.844-.527 1.055l.141.422-1.898 1.266h-.527q.141 0 .141-.035 0-.176-4.465-1.301-4.5-.598-5.414-.598l-4.992.668q.141.141.141.422.457.281 1.266.844 17.191 6.855 17.191 15.117zm47.004-9.106q0 2.637-1.617 4.535-.07.316-.422 1.406-1.301 1.617-3.797 4.57-3.902 2.531-7.312 4.676-8.016 2.742-12.199 2.742h-2.355q-.387 0-.879-.316-.07 0-.105 0-.949 0-5.66-1.336-1.969-1.16-5.484-4.184-.492-1.02-1.687-3.059-1.16-4.184-1.16-6.469l.316-3.305v-5.203q.105-.281.703-2.25.633-2.074.844-2.988.703-1.863 5.414-4.852.773-.246 2.496-.703.457-.246 1.16-.633.141.141.422.141l2.039-.633q2.004-.668 3.516-.668h6.785q1.125 0 2.566.527.07 0 .141 0 2.496 0 9.668 4.57v.703q1.195 1.125 3.164 2.285.703.809 2.988 5.766.457 2.496.457 4.676zm-8.121-2.32v-.914q-2.812-4.605-5.203-4.605-.105 0-.281.105-.141.07-.211.07h-.422q-.633-1.055-3.199-1.055-.281 0-.598 0l-3.867.141-8.648 1.652-.387.598v1.266q0 .387.316 1.09-.105.211-.703.738.316.738.387.844-.668.527-1.09.703 0 0 0 0-.035 0-.984 1.758-1.02 1.793-1.02 2.25.035.105.176.773 1.055 1.23 3.516 2.285 2.496 1.02 4.359 1.02 4.148-.773 4.887-.773l5.695-2.25q4.148-1.652 5.59-3.023 1.688-1.547 1.688-2.672z"/></g></g><path d="M43.898 774.959c1.466-8.571-8.556-15.533-13.728-19.654-15.273-12.174-15.796-13.131-21.834-40.956-1.664-7.667-4.956-19.493-7.316-26.278s-4.154-13.055-3.984-13.935c.358-1.861 3.473-2.896 9.129-3.031 3.23-.077 4.417.62 6.833 2.719 5.192 4.512 9.361 19.151 10.357 22.527 2.522-.14 8.028 3.359 10.839 7.334 4.837 6.842 9.057 11.238 17.757 16.602 10.41 6.418 18.726 15.008 20.118 20.016 1.485 5.349 1.154 36.12-.366 37.299-1.064.824-21.836 3.493-25.89 4.118-3.888.599-2.287-4.576-1.914-6.762zm23.23-2.137c.073-10.26 1.245-26.178-1.723-32.191-2.294-4.65-8.981-10.496-18.977-16.929-7.653-4.926-10.688-7.729-16.104-14.868-3.292-4.34-5.591-7.141-8.106-6.951-1.009 2.507 1.228 10.481 3.212 15.804 3.539 9.502 10.926 8.993 14.032 14.947 1.088 2.087-3.099 5.938-4.543 3.147-2.022-3.906-8.144-5.467-11.149-9.807-4.734-6.838-9.717-21.437-5.647-27.554-2.223-8.619-5.664-24.971-14.535-21.394 0 .132 1.526 4.509 3.391 9.727 3.35 9.373 6.424 21.279 9.605 37.204 2.805 14.041 4.305 16.51 14.92 24.547 12.878 9.753 18.878 15.642 18.188 26.706 5.942-.711 10.537-1.366 17.431-2.391zm-27.773-31.547c-1.47-1.866 2.753-4.612 4.582-2.742 1.803 1.843 2.911 4.26 3.956 6.513.972 2.094-3.218 4.77-4.21 3.055-.715-1.236-1.855-3.685-4.328-6.826zm40.233 35.971c-1.046-.285-.994-6.455-.76-18.773.311-16.438.488-17.915 2.544-21.222 3.023-4.862 11.656-12.58 20.896-18.683 5.607-3.703 9.038-6.877 12.613-11.673 3.246-4.354 9.306-10.459 13.623-10.994 2.476-8.396 6.323-18.844 11.854-23.515 2.353-1.987 13.575-1.379 14.17 2.032.18 1.032-2.05 8.594-4.86 15.67-4.318 10.877-5.3 16.027-8.879 34.633-2.943 15.302-5.338 19.561-17.506 29.166-12.008 9.478-15.782 13.845-15.153 21.925.343 4.412.895 6.017-3.454 5.571-8.337-.856-20.964-3.013-25.085-4.136zm22.062-1.86c.489-12.873 6.15-17.625 17.535-26.075 11.296-8.382 13.34-11.836 14.931-20.54 3.231-17.692 7.609-35.081 14.247-51.699-9.071-4.462-11.981 12.605-14.729 20.767 3.693 7.815-1.877 24.327-7.299 29.488-5.477 5.214-7.264 4.771-9.577 8.759-1.529 2.636-5.322-1.235-4.526-3.001.569-1.264 2.665-4.976 6.477-6.817 10.78-5.206 11.513-23.826 10.337-24.313-9.277 4.817-9.11 13.13-23.644 21.677-12.21 7.18-19.066 14.354-19.933 19.34-1.824 10.5-1.009 18.993-1.014 29.915zm3.075-29.249c1.18-3.436 2.911-6.54 4.964-8.318 1.02-.884 4.783 1.905 4.024 3.023-1.837 2.705-3.221 5.233-4.191 7.446-.679 1.549-5.345-.552-4.795-2.151z" fill="#a7a29a"/><path d="M98.892 622.386c-22.948-8.493-41.042 8.149-45.963 29.785-4.236 18.646 5.257 39.403 27.027 33.117 8.94-2.58 21.309-6.87 24.265-16.898 2.086-7.064-2.759-13.497-7.875-17.756-8.789-7.315-31.57-12.813-29.382 5.594.372 3.162 1.766 6.167 3.198 8.96 1.683 3.264 6.518.944 5.134-2.439-3.198-7.8-3.843-15.424 6.742-12.802 6.696 1.66 15.29 6.724 16.71 14.044 2.076 10.648-19.675 16.717-26.848 16.946-11.298.359-14.617-11.554-14.383-20.731.27-11.151 5.228-22.641 13.916-29.746 11.072-9.062 28.334-5.014 37.862 4.366 21.21 20.877-.074 58.347-23.087 66.967-54.719 20.488-72.72-80.461-19.971-89.892.394-.074.28-.653-.105-.608-44.255 5.173-45.817 76.32-9.593 93.966 48.589 23.672 95.709-63.121 42.353-82.872z" fill="#6fc4bc" stroke="#6fc4bc" stroke-width="2.567"/></g><defs><path id="A" d="M514.391 451.429q-.457.633-1.23 2.109-.492 0-.738-.211-.387.141-1.195.633.773.316 2.004 1.02-.457.141-1.934 1.477-1.477.527-4.465 1.195-.914.563-1.266 1.582l-8.965 1.125q-9.633-.633-15.363-4.359-4.148-4.254-5.203-9.738-.387-.773-.387-1.23 0-3.445 2.953-8.332 3.305-5.379 7.277-6.996.211-.105 1.16-.105 1.688-1.441 5.941-2.496 3.762-.914 6.469-.914 2.355 0 5.414 1.723-.07.141-.07.844.668.141 1.582.387 0 .211.457.703 0 1.301.984 3.375v1.547q0 .281-.422.703.246.352.246.773 0 .773-.668 1.758-.07.492-.141 1.406-.809 1.09-2.039 3.27l-7.629 5.52q1.125.668 6.188.809l8.93.211q.598 1.02 2.109 2.215zm-16.805-15.75q.035.035.035.035-.07 0-.281-.598-2.742 1.09-3.656 1.582-2.602 1.371-3.516 2.918.246 0 .527.246 4.887-1.863 6.891-4.184z"/></defs></svg>