<?xml version="1.0" encoding="UTF-8" standalone="no"?>
<svg
   viewBox="0 0 1024 768"
   version="1.1"
   id="svg378"
   sodipodi:docname="portada.svg"
   xml:space="preserve"
   inkscape:version="1.2.2 (b0a8486, 2022-12-01)"
   xmlns:inkscape="http://www.inkscape.org/namespaces/inkscape"
   xmlns:sodipodi="http://sodipodi.sourceforge.net/DTD/sodipodi-0.dtd"
   xmlns:xlink="http://www.w3.org/1999/xlink"
   xmlns="http://www.w3.org/2000/svg"
   xmlns:svg="http://www.w3.org/2000/svg"><sodipodi:namedview
     id="namedview380"
     pagecolor="#ffffff"
     bordercolor="#000000"
     borderopacity="0.25"
     inkscape:showpageshadow="2"
     inkscape:pageopacity="0.0"
     inkscape:pagecheckerboard="0"
     inkscape:deskcolor="#d1d1d1"
     showgrid="false"
     inkscape:zoom="0.64643169"
     inkscape:cx="555.35643"
     inkscape:cy="388.28542"
     inkscape:window-width="1440"
     inkscape:window-height="900"
     inkscape:window-x="0"
     inkscape:window-y="0"
     inkscape:window-maximized="0"
     inkscape:current-layer="svg378" /><path
     d="M0 0h1024v768H0z"
     fill="#dfdcd3"
     id="path305"
     style="stroke-width:2;stroke-dasharray:none" /><g
     id="g17417"
     transform="translate(-0.0025,2.0124264)"><g
       fill="#a7a29a"
       id="g349"><path
         d="m 361.712,528.376 c -0.101,-4.704 -0.403,-10.718 -5.813,-10.718 -6.115,0 -8.467,9.106 -8.467,14.918 0,5.376 2.52,9.71 7.56,9.71 4.334,0 6.35,-3.394 7.426,-8.501 l -4.267,-0.336 c -0.605,2.184 -1.31,4.536 -3.158,4.536 -2.15,0 -3.091,-2.318 -3.091,-5.746 0,-3.326 1.512,-10.282 3.696,-10.282 1.714,0 1.781,3.595 1.781,6.014 z m 5.794,6.854 c 0,-2.285 0.672,-6.72 2.016,-6.72 1.109,0 1.411,2.251 1.411,3.965 0,2.789 -0.706,6.552 -1.747,6.552 -0.84,0 -1.68,-0.739 -1.68,-3.797 z m -3.931,-0.302 c 0,5.779 2.722,7.224 5.611,7.224 3.864,0 5.678,-4.973 5.678,-9.341 0,-3.192 -1.176,-7.426 -5.342,-7.426 -4.402,0 -5.947,5.914 -5.947,9.542 z m 13.748,-9.341 -0.202,6.821 0.37,9.106 3.931,0.37 -0.302,-6.384 c 0.504,-2.789 1.915,-5.779 2.621,-5.779 0.672,0 0.84,1.714 0.84,3.125 l -0.269,7.728 3.931,0.37 0.269,-7.493 c 0.269,-2.621 1.378,-4.872 1.949,-4.872 0.874,0 1.075,1.68 1.075,3.091 0,3.024 -0.269,6.149 -0.638,9.778 l 3.898,0.336 0.672,-9.61 c 0,-3.259 -0.706,-7.022 -4.67,-7.022 -1.31,0 -2.486,1.142 -3.461,2.554 -0.672,-0.874 -1.68,-1.411 -3.125,-1.411 -1.31,0 -2.453,1.109 -3.528,2.789 l -0.571,-3.293 z"
         id="path307" /><use
         xlink:href="#B"
         id="use309" /><path
         d="m 412.65,526.729 -0.202,5.678 0.37,9.106 3.931,0.37 -0.269,-4.973 c 0.269,-3.562 1.747,-7.997 2.419,-7.997 0.874,0 1.109,2.318 1.109,4.402 0,2.251 -0.101,4.469 -0.37,7.258 l 3.931,0.37 0.437,-8.266 c 0,-3.427 -0.672,-7.392 -4.435,-7.392 -1.478,0 -2.822,1.68 -3.931,3.898 l -0.504,-2.184 z m 14.846,-1.478 v 16.128 l 3.83,0.37 V 525.62 Z m 0.269,-5.914 -0.336,3.73 3.763,0.47 0.336,-3.763 z"
         id="path311" /><use
         xlink:href="#C"
         id="use313" /><use
         xlink:href="#D"
         id="use315" /><use
         xlink:href="#C"
         x="26.906"
         id="use317" /><path
         d="m 488.596,542.084 0.302,-9.71 c 2.923,3.864 5.578,7.392 7.594,10.416 l 3.226,-2.386 c -1.982,-2.856 -4.133,-5.779 -6.25,-8.434 2.99,-1.949 5.611,-4.603 5.611,-7.627 0,-4.771 -3.259,-7.19 -6.955,-7.19 a 18.71,18.71 0 0 0 -7.694,1.747 l 0.034,5.947 a 309,309 0 0 1 -0.437,16.733 z m 0.437,-20.429 c 1.142,-0.403 2.15,-0.571 3.091,-0.571 1.478,0 2.856,0.907 2.856,3.091 0,1.68 -2.621,4.334 -5.981,5.914 z"
         id="path319" /><use
         xlink:href="#B"
         x="103.425"
         id="use321" /><use
         xlink:href="#E"
         id="use323" /><use
         xlink:href="#D"
         x="77.569"
         id="use325" /><use
         xlink:href="#F"
         id="use327" /><path
         d="m 560.559,542.286 -0.101,-7.728 c 5.242,-1.478 9.173,-4.805 9.173,-9.173 0,-4.973 -3.965,-7.93 -7.594,-7.93 a 16.91,16.91 0 0 0 -5.846,1.042 c -0.202,5.342 -0.336,10.147 -0.336,15.254 0,2.52 0.034,5.242 0.134,8.098 z m 0.101,-20.731 c 0.437,-0.067 0.84,-0.168 1.378,-0.168 1.445,0 2.99,1.512 2.99,3.998 0,2.352 -1.747,4.435 -4.57,5.342 l 0.202,-9.173 z"
         id="path329" /><use
         xlink:href="#G"
         id="use331" /><use
         xlink:href="#E"
         x="66.739998"
         id="use333" /><use
         xlink:href="#C"
         x="158.09"
         id="use335" /><use
         xlink:href="#B"
         x="208.162"
         id="use337" /><use
         xlink:href="#E"
         x="104.737"
         id="use339" /><use
         xlink:href="#D"
         x="182.306"
         id="use341" /><path
         d="m 644.817,516.649 c -0.235,4.368 -0.37,7.862 -0.37,12.365 0,4.503 0,8.098 0.202,12.13 l 2.957,0.302 c -0.034,-0.437 -0.067,-0.874 -0.067,-1.344 0.941,1.277 2.218,1.882 3.494,1.882 3.058,0 4.738,-5.712 4.738,-10.651 0,-2.654 -0.84,-5.88 -3.192,-5.88 -1.445,0 -3.024,1.478 -4.334,3.562 0,-4.435 0.134,-7.627 0.403,-12.029 z m 3.427,18.11 c 1.142,-3.696 1.982,-4.939 2.789,-4.939 0.874,0 0.974,1.243 0.974,2.99 0,2.251 -0.907,5.578 -2.117,5.578 -0.84,0 -1.109,-0.302 -1.613,-1.008 l -0.034,-2.621 z"
         id="path343" /><use
         xlink:href="#F"
         x="119.241"
         id="use345" /><use
         xlink:href="#G"
         x="96.042"
         id="use347" /></g><path
       d="m 321.207,412.019 q -0.105,-0.316 -0.246,-0.316 0.281,0.141 0.281,0.246 0,0.035 -0.035,0.07 z m 27.563,-13.852 q -1.652,0.879 -1.652,2.145 0,0.035 0,0.105 -0.844,0.563 -2.355,1.617 l 0.281,0.246 q 0.387,0 0.527,-0.246 0.176,0.422 0.176,0.633 -0.105,0 -0.914,0.387 l -0.352,-0.562 q -0.281,0.563 -1.055,0.563 -1.09,0 -1.547,0.141 0.176,0.176 0.527,0.176 -3.727,1.441 -3.727,1.547 0,0.035 0.035,0.035 -0.07,-0.035 -0.352,-0.211 -0.141,0.281 -0.703,0.984 h -1.828 q -1.512,1.793 -3.375,1.793 -0.281,0 -0.562,-0.07 -3.621,0.457 -3.621,1.512 -0.422,0 -0.773,-0.422 -2.461,0.738 -2.461,0.879 0,0 0.07,0 -0.633,0 -0.773,-0.211 -0.281,0.316 -0.738,1.02 -0.141,-0.07 -0.422,-0.457 -0.141,0.07 -0.492,0.07 -0.387,0 -1.02,-0.07 -0.176,0.387 -0.176,0.703 0,0.387 0.176,0.773 0,-0.105 0,-0.141 0,-0.316 -0.387,-0.316 h -0.562 q -0.457,0.352 -0.457,0.773 l -1.195,-0.141 q -0.07,0 -0.984,0.316 -0.879,0.281 -1.055,0.281 0,-0.035 -0.457,-0.246 -0.316,0.352 -0.316,0.809 l -4.746,2.074 q -0.527,1.723 -1.687,4.535 0.07,0.492 0.246,1.582 l 18.387,-1.441 h 5.309 q 0,1.09 -0.141,1.09 -0.035,0 -0.07,-0.07 h 2.391 q -0.035,0.07 -0.035,0.141 0,0.211 0.176,0.598 -0.422,0.492 -0.492,0.492 -0.035,0 -0.035,0 0.703,0.211 1.934,0.844 -0.457,0.809 -1.652,1.16 l -0.281,0.598 q 0.07,0.141 0.141,0.703 v 0.844 q -0.211,0.316 -1.09,0.633 0.105,0.281 0.246,0.633 l -7.488,2.531 q -0.984,0 -1.301,-0.246 -0.562,0.457 -2.672,0.773 l -1.09,1.23 q -0.422,-0.035 -0.738,-0.035 -0.352,0 -0.527,0.035 -0.105,-0.07 -0.141,-0.07 -0.176,0.07 -0.176,0.457 -0.105,0 -2.215,0.387 -0.492,0.07 -0.914,0.07 -0.879,0 -1.336,-0.387 l -5.449,2.18 q -0.738,0 -2.18,0.668 -1.863,0.844 -2.145,0.949 -0.246,0.387 -1.02,1.793 -0.598,2.039 -1.266,4.535 l -0.035,1.371 23.414,-1.828 q 0.07,0 0.809,0.211 0.738,0.176 0.773,0.176 h 3.375 q 0.738,0.176 2.848,0.527 l 4.43,0.633 q 1.09,0.352 3.234,0.984 1.02,1.02 3.164,3.059 v 2.074 l -0.703,0.809 0.492,0.563 q -1.336,0.527 -1.406,0.703 0,0.035 0.07,0.035 -0.07,0.492 -0.457,1.582 -0.246,0.07 -0.773,0.07 -0.562,0 -1.441,-0.07 -0.176,0.211 -0.176,0.563 -0.914,0.352 -1.371,0.879 0,-0.035 0,-0.07 0,-0.281 -0.633,-0.527 -0.176,0.035 -0.422,0.035 -0.492,0 -1.16,-0.105 -0.457,-0.035 -1.195,-0.141 -0.773,0 -1.477,0.492 l 0.527,0.457 q -1.09,0 -1.406,-0.141 0.035,-0.211 0.316,-0.527 -0.211,-0.07 -0.949,-0.07 0,0 0.211,0.598 l -9.738,0.211 q -1.793,0.035 -2.215,0.773 l -0.422,-0.352 h -1.582 l -7.277,1.23 q -0.633,0 -0.773,-0.246 -0.035,0.035 -0.387,0.316 -0.352,0.246 -0.352,0.246 h -1.195 q -0.246,0.246 -0.246,0.773 0,-0.316 -0.211,-0.527 h -0.633 q -0.387,0.387 -0.387,0.563 -0.562,0.176 -3.445,0.316 -0.422,0.316 -1.652,0.703 l -5.555,0.703 h -4.008 l -0.457,-1.266 q -2.918,-2.039 -3.621,-5.133 -0.457,-1.828 -0.457,-4.711 0.105,-0.387 0.773,-2.461 1.758,-5.203 3.059,-10.055 -0.07,-0.316 -0.07,-0.457 0.738,-1.301 0.879,-2.602 -0.492,-2.355 -0.527,-2.355 -0.035,0 -0.035,0.035 v -2.812 q 0.387,-0.422 1.301,-2.461 0.598,-1.301 1.441,-1.301 0.105,0 0.211,0.035 l 1.793,-5.414 v -0.879 l -0.316,-0.387 h -1.09 q -3.516,-3.867 -4.184,-7.418 l 1.23,-4.711 q 1.969,-1.371 2.074,-1.512 0.105,0 0.422,0.141 0.352,0.105 0.422,0.105 2.039,0 5.766,-1.266 0.949,-0.914 2.953,-2.531 1.793,0.984 2.531,0.984 0.281,-0.07 1.195,-0.211 0.527,-0.07 0.949,-0.07 0.422,-0.035 0.738,0.07 l 14.133,-3.023 q 0.633,0 0.773,0.211 0.141,-0.211 0.141,-0.457 l 2.566,-0.422 q 0.773,0.141 2.531,0.422 1.02,-0.562 1.477,-0.984 0.316,0 1.09,0.211 l 4.359,-0.879 q 0.246,0.141 1.723,0.457 0.387,-0.492 1.09,-0.809 0.387,0 0.387,0.563 -0.527,0.316 -1.16,0.527 0.141,0.141 0.914,0.141 0.105,-0.07 2.074,-0.598 0.07,0.07 0.07,0.105 -0.035,0.105 -0.211,0.211 0.457,0.598 0.563,0.598 0.035,0 0.035,-0.035 v 0.809 q 0.176,0.07 0.773,0.281 0.352,-0.352 1.09,-0.352 1.863,0.457 3.094,0.457 0.141,0.211 0.141,0.352 0,0.07 -0.035,0.105 z m 15.785,6.856 -6.328,55.723 q -1.16,0 -2.531,0.563 -0.387,0 -0.773,-0.352 l -0.457,0.07 q -0.457,0.07 -0.844,0.07 -0.141,-0.141 -1.793,-1.477 -0.281,0 -0.844,0.633 -0.246,-0.703 -0.703,-1.652 -0.703,-4.781 -0.703,-5.836 l 2.953,-25.418 q 1.266,-10.441 2.883,-26.473 0.281,-1.16 1.09,-4.078 0.668,-2.461 1.793,-3.586 l 1.512,0.176 q 1.02,0.949 1.898,1.266 0.211,0.457 1.723,2.355 1.125,3.41 1.125,4.184 z"
       fill="#79736a"
       id="path351" /><g
       fill="#6fc4bc"
       id="g363"><path
         d="m 471.957,455.753 -0.387,0.457 0.105,0.316 q 0.141,0.316 0.141,0.527 l -1.582,1.266 q -2.918,0.598 -3.34,0.598 0.246,0 0.246,0 0,-0.035 -2.074,-0.141 -0.703,-0.035 -1.406,-0.035 -0.668,-0.035 -1.301,0.035 -0.703,0.316 -1.547,0.316 l -23.555,-4.008 -10.406,-3.586 -8.789,-4.078 q -0.633,0.387 -0.633,1.125 v 3.762 l 1.16,5.133 q -0.316,0.949 -0.316,1.723 0,0.281 0.035,0.563 l -2.602,3.867 q -0.246,0 -1.125,-0.352 l -0.387,0.527 q -0.879,-0.387 -3.164,-0.738 -0.457,-0.422 -2.32,-1.512 -1.371,-0.809 -1.371,-1.441 -0.422,-1.687 -1.09,-5.062 l 0.211,-10.441 1.512,-28.406 q -0.105,-0.949 -1.547,-2.531 0,-0.527 0.176,-0.633 0,0 0,-0.035 0,-0.105 -0.176,-0.492 -0.176,-0.422 -0.176,-0.492 0,-0.773 2.25,-5.344 9.387,-7.699 15.715,-8.297 0.281,-0.352 2.109,-1.195 1.828,-0.879 2.004,-1.055 1.934,-0.633 5.484,-1.828 3.094,-0.316 4.992,-0.562 l 3.48,-0.457 q 0.703,0 5.379,0.773 0.141,0.105 1.547,0.809 1.547,1.09 2.918,3.059 1.723,1.266 3.832,4.641 l 0.949,4.57 q -0.773,2.883 -0.773,3.586 -0.703,1.547 -1.406,2.355 -0.457,1.125 -1.16,3.129 -1.617,2.145 -2.953,3.551 -0.984,1.934 -3.164,4.078 -3.586,3.586 -3.867,4.008 -1.934,1.371 -3.375,2.602 -1.055,1.582 -3.27,2.672 -2.32,1.336 -7.77,5.379 0,0.527 0.141,0.563 0,0 0.07,-0.035 0.176,0.176 0.844,0.809 6.539,1.934 14.766,3.621 12.445,2.602 16.137,3.48 0.773,0.07 1.547,0.844 l 4.57,1.617 q 3.691,2.426 3.691,3.094 l 1.02,0.914 q 0,0.141 -0.844,1.09 0.387,0.211 0.844,0.527 z m -26.789,-48.48 v -1.125 q -1.09,-0.598 -2.812,-0.598 l -2.039,0.176 q -1.969,0.176 -2.637,0.176 -2.742,0.809 -7.137,1.898 -3.937,1.723 -9.316,3.41 -3.41,1.793 -3.41,3.727 0,0.633 0.246,1.371 -0.07,0.879 -0.387,2.531 l -0.773,14.836 q 8.789,-6.504 13.184,-10.09 6.715,-5.555 10.934,-10.652 4.148,-5.027 4.148,-5.66 z"
         id="path353" /><use
         xlink:href="#H"
         id="use355" /><path
         d="m 557.035,472.347 q -0.914,7.348 -4.5,12.445 -0.457,0.633 -2.742,3.129 -0.668,0.281 -2.531,1.934 -1.934,1.09 -3.621,1.582 -1.055,0.598 -3.234,1.898 -1.195,0.422 -3.621,1.406 l -11.426,1.898 -5.59,0.176 q -0.211,-0.07 -1.125,-0.246 -1.898,-0.246 -4.852,-1.195 -2.707,-0.633 -3.551,-1.125 -0.598,-0.422 -3.867,-2.742 -0.457,-0.879 -1.793,-1.969 -2.215,-4.957 -2.215,-5.309 v -5.062 l 2.426,-3.656 q 1.055,-0.773 3.516,-2.391 0.352,0.387 0.352,0.844 0,0.387 -0.352,0.914 0.141,0.035 0.422,0.035 0.176,-0.105 0.176,-0.633 0.563,-0.246 1.898,-0.562 l -0.105,1.195 -0.598,0.527 q 0.141,0.316 0.527,1.371 0.914,-0.246 1.125,-0.246 -0.352,0.809 -1.301,2.25 v 0.703 q 0.141,0.141 0.281,0.387 0,0.176 0,0.422 0,0.914 0.176,2.602 0.07,0.211 0.703,1.195 2.25,1.758 2.883,2.039 1.266,0.527 4.887,0.703 l 3.164,0.141 q 0.105,0 1.23,-0.246 1.16,-0.211 1.195,-0.211 0.07,0 0.387,0.035 0.316,0.07 0.422,0.07 1.195,0 4.148,-0.527 1.723,-0.844 3.691,-1.512 3.34,-1.125 6.152,-2.672 0.844,-0.457 2.32,-1.793 5.625,-3.621 5.625,-13.184 l -2.215,-13.781 -0.246,-0.281 h -0.773 l -9.703,3.094 q -0.809,-0.246 -2.531,-0.316 -0.387,0.07 -0.773,0.07 -3.48,0 -8.227,-2.988 -5.555,-3.516 -5.555,-6.996 l 0.387,-1.441 q -0.141,-0.457 -0.141,-0.914 0,-2.531 2.496,-5.766 2.32,-2.988 4.043,-3.34 3.023,-1.652 7.066,-2.355 0.246,-0.035 6.469,-1.02 l 4.711,-0.211 q 2.145,0.527 4.324,1.16 2.531,0.703 4.359,2.145 v 0.879 q 1.652,0.703 2.109,3.094 0.246,0.492 0.844,1.371 -0.457,0 -0.598,0.141 0,1.266 0.141,1.336 0,-0.035 0,-0.07 -0.211,-0.141 -0.703,-0.141 l -0.316,0.316 q 0.633,1.266 1.723,3.516 0.07,0.141 0.07,0.281 0,0.176 -0.07,0.281 0.457,3.375 1.688,12.973 l 0.984,7.348 z m -47.566,0.879 q -0.035,0.105 -0.246,0.176 -0.07,0.035 -0.105,0.035 -0.141,0 -0.211,-0.105 0.527,0 0.563,-0.105 z m 35.684,-32.73 -3.516,-0.246 -6.926,0.527 q 0.035,0 0.035,0.035 0,0.141 -5.59,2.074 l -1.16,1.055 q 0,0.176 0.211,0.457 3.867,0.949 5.414,0.949 2.672,0 6.398,-1.301 4.359,-1.547 5.133,-3.551 z m 64.827,-6.575 q -0.176,0 -0.949,0.387 0,0.352 -0.105,0.527 l 0.703,0.703 q -1.582,0.457 -3.27,1.16 l -6.539,-1.406 q -1.723,0.105 -4.641,0.633 -3.375,1.16 -6.328,1.934 -5.52,2.18 -10.055,4.289 -5.977,2.742 -7.523,8.367 0,0.211 0.352,2.813 v 1.16 q -0.352,0.633 -0.492,1.055 -0.07,0.176 -0.07,0.352 0,0.457 0.457,0.738 l -3.516,2.25 h -0.703 q -0.703,-0.422 -1.898,-1.441 l -0.949,0.141 q -0.457,-0.668 -1.23,-1.828 -0.352,-0.914 -0.738,-1.617 l -0.422,-2.25 v -3.059 q 0,-0.035 0.07,-0.387 0.105,-0.352 0.105,-0.422 v -3.27 q 0,-1.441 1.055,-4.887 1.301,-4.395 2.883,-4.395 h 1.055 l 1.23,1.09 h 0.527 q 0.914,0 6.504,-3.551 3.867,-1.652 11.707,-5.098 0,0 0,0 0.281,0 3.586,-1.441 0.809,-0.035 3.27,-0.598 l 2.566,-0.527 h 3.551 q 3.727,0 8.684,4.957 0.176,0.211 0.246,0.844 0.879,0.984 0.879,1.828 z"
         id="path357" /><use
         xlink:href="#H"
         x="137.53101"
         id="use359" /><path
         d="m 687.359,451.429 q 0,1.617 -0.809,3.41 -0.562,0.984 -4.957,2.742 -4.676,1.863 -7.137,1.863 -0.211,0 -2.707,-0.352 -0.598,-0.105 -1.125,-0.105 -0.844,0 -1.547,0.246 l -3.48,-0.703 h -3.023 q -0.633,0 -2.988,-0.844 -2.004,-0.703 -2.566,-0.984 -0.176,-0.773 -1.02,-1.652 0,-0.387 0.176,-0.562 l -0.352,-0.352 q 0.176,-0.773 0.176,-1.441 0,-0.984 -0.387,-1.652 2.426,-1.02 3.164,-1.02 h 2.637 l 3.621,-0.492 h 2.391 l 5.871,-0.738 q 0.492,-0.422 0.527,-0.422 -0.141,-0.246 -0.879,-0.809 -1.09,-0.457 -4.113,-1.723 -10.371,-4.465 -11.883,-10.09 -0.211,-0.879 -0.633,-1.441 v -3.797 q 0,-0.281 0.633,-1.547 0.316,-3.762 14.273,-3.762 -0.035,0 -0.035,0 0,0.035 6.012,0.773 4.113,1.477 5.484,2.285 2.883,1.688 4.113,4.324 0,0 0,0 0,0.211 -0.492,0.984 -0.527,0.844 -0.527,1.055 l 0.141,0.422 -1.898,1.266 h -0.527 q 0.141,0 0.141,-0.035 0,-0.176 -4.465,-1.301 -4.5,-0.598 -5.414,-0.598 l -4.992,0.668 q 0.141,0.141 0.141,0.422 0.457,0.281 1.266,0.844 17.191,6.855 17.191,15.117 z m 47.004,-9.106 q 0,2.637 -1.617,4.535 -0.07,0.316 -0.422,1.406 -1.301,1.617 -3.797,4.57 -3.902,2.531 -7.312,4.676 -8.016,2.742 -12.199,2.742 h -2.355 q -0.387,0 -0.879,-0.316 -0.07,0 -0.105,0 -0.949,0 -5.66,-1.336 -1.969,-1.16 -5.484,-4.184 -0.492,-1.02 -1.687,-3.059 -1.16,-4.184 -1.16,-6.469 l 0.316,-3.305 v -5.203 q 0.105,-0.281 0.703,-2.25 0.633,-2.074 0.844,-2.988 0.703,-1.863 5.414,-4.852 0.773,-0.246 2.496,-0.703 0.457,-0.246 1.16,-0.633 0.141,0.141 0.422,0.141 l 2.039,-0.633 q 2.004,-0.668 3.516,-0.668 h 6.785 q 1.125,0 2.566,0.527 0.07,0 0.141,0 2.496,0 9.668,4.57 v 0.703 q 1.195,1.125 3.164,2.285 0.703,0.809 2.988,5.766 0.457,2.496 0.457,4.676 z m -8.121,-2.32 v -0.914 q -2.812,-4.605 -5.203,-4.605 -0.105,0 -0.281,0.105 -0.141,0.07 -0.211,0.07 h -0.422 q -0.633,-1.055 -3.199,-1.055 -0.281,0 -0.598,0 l -3.867,0.141 -8.648,1.652 -0.387,0.598 v 1.266 q 0,0.387 0.316,1.09 -0.105,0.211 -0.703,0.738 0.316,0.738 0.387,0.844 -0.668,0.527 -1.09,0.703 0,0 0,0 -0.035,0 -0.984,1.758 -1.02,1.793 -1.02,2.25 0.035,0.105 0.176,0.773 1.055,1.23 3.516,2.285 2.496,1.02 4.359,1.02 4.148,-0.773 4.887,-0.773 l 5.695,-2.25 q 4.148,-1.652 5.59,-3.023 1.688,-1.547 1.688,-2.672 z"
         id="path361" /></g><path
       d="m 486.402,349.693 c 1.142,-6.677 -6.666,-12.101 -10.695,-15.312 -11.899,-9.484 -12.306,-10.23 -17.01,-31.907 -1.296,-5.973 -3.861,-15.186 -5.7,-20.472 -1.839,-5.286 -3.236,-10.171 -3.104,-10.856 0.279,-1.45 2.706,-2.256 7.112,-2.361 2.516,-0.06 3.441,0.483 5.323,2.118 4.045,3.515 7.293,14.92 8.069,17.55 1.965,-0.109 6.254,2.617 8.444,5.714 3.768,5.33 7.056,8.755 13.834,12.934 8.11,5 14.589,11.692 15.673,15.594 1.157,4.167 0.899,28.14 -0.285,29.058 -0.829,0.642 -17.012,2.721 -20.17,3.208 -3.029,0.467 -1.782,-3.565 -1.491,-5.268 z m 18.098,-1.665 c 0.057,-7.993 0.97,-20.394 -1.342,-25.079 -1.787,-3.623 -6.997,-8.177 -14.784,-13.189 -5.962,-3.838 -8.327,-6.021 -12.546,-11.583 -2.565,-3.381 -4.356,-5.563 -6.315,-5.415 -0.786,1.953 0.957,8.165 2.502,12.312 2.757,7.403 8.512,7.006 10.932,11.645 0.848,1.626 -2.414,4.626 -3.539,2.452 -1.575,-3.043 -6.345,-4.259 -8.686,-7.64 -3.688,-5.327 -7.57,-16.701 -4.399,-21.466 -1.732,-6.715 -4.413,-19.454 -11.324,-16.667 0,0.103 1.189,3.513 2.642,7.578 2.61,7.302 5.005,16.578 7.483,28.984 2.185,10.939 3.354,12.862 11.624,19.124 10.033,7.598 14.707,12.186 14.17,20.806 4.629,-0.554 8.209,-1.064 13.58,-1.863 z m -21.637,-24.577 c -1.145,-1.454 2.145,-3.593 3.57,-2.136 1.405,1.436 2.268,3.319 3.082,5.074 0.757,1.631 -2.507,3.716 -3.28,2.38 -0.557,-0.963 -1.445,-2.871 -3.372,-5.318 z m 31.344,28.024 c -0.815,-0.222 -0.774,-5.029 -0.592,-14.625 0.242,-12.806 0.38,-13.957 1.982,-16.533 2.355,-3.788 9.081,-9.801 16.279,-14.555 4.368,-2.885 7.041,-5.358 9.826,-9.094 2.529,-3.392 7.25,-8.148 10.613,-8.565 1.929,-6.541 4.926,-14.681 9.235,-18.32 1.833,-1.548 10.576,-1.074 11.039,1.583 0.14,0.804 -1.597,6.695 -3.786,12.208 -3.364,8.474 -4.129,12.486 -6.917,26.981 -2.293,11.921 -4.159,15.239 -13.638,22.722 -9.355,7.384 -12.295,10.786 -11.805,17.081 0.267,3.437 0.697,4.688 -2.691,4.34 -6.495,-0.667 -16.332,-2.347 -19.543,-3.222 z m 17.188,-1.449 c 0.381,-10.029 4.791,-13.731 13.661,-20.314 8.8,-6.53 10.393,-9.221 11.632,-16.002 2.517,-13.783 5.928,-27.33 11.099,-40.277 -7.067,-3.476 -9.334,9.82 -11.475,16.179 2.877,6.088 -1.462,18.952 -5.686,22.973 -4.267,4.062 -5.659,3.717 -7.461,6.824 -1.191,2.054 -4.146,-0.962 -3.526,-2.338 0.443,-0.985 2.076,-3.877 5.046,-5.311 8.398,-4.056 8.969,-18.562 8.053,-18.941 -7.227,3.753 -7.097,10.229 -18.42,16.888 -9.512,5.594 -14.854,11.183 -15.529,15.067 -1.421,8.18 -0.786,14.797 -0.79,23.306 z m 2.396,-22.787 c 0.919,-2.677 2.268,-5.095 3.867,-6.48 0.795,-0.689 3.726,1.484 3.135,2.355 -1.431,2.107 -2.509,4.077 -3.265,5.801 -0.529,1.207 -4.164,-0.43 -3.736,-1.676 z"
       fill="#a7a29a"
       id="path365" /><path
       d="m 529.24581,230.82887 c -17.87832,-6.61675 -31.97458,6.34855 -35.80813,23.20437 -3.29975,14.52675 4.09523,30.69724 21.05576,25.79998 6.96479,-2.01011 16.60095,-5.35243 18.90411,-13.16485 1.6248,-5.50335 -2.14921,-10.51501 -6.1349,-13.83307 -6.84706,-5.69866 -24.59535,-9.98225 -22.89072,4.35812 0.29003,2.46347 1.37615,4.80437 2.49121,6.98011 1.31103,2.54273 5.07787,0.73572 3.99993,-1.89996 -2.49121,-6.07642 -2.99381,-12.01599 5.25243,-9.97391 5.21696,1.29328 11.91174,5.23878 13.01803,10.94109 1.61705,8.29532 -15.32817,13.02333 -20.91636,13.20212 -8.80203,0.27997 -11.38795,-9.00143 -11.20506,-16.15093 0.21072,-8.68718 4.07282,-17.6389 10.84109,-23.17408 8.62565,-7.0601 22.07401,-3.90643 29.49716,3.40157 16.52369,16.26459 -0.0574,45.45566 -17.98589,52.1712 -42.62974,15.96153 -56.65327,-62.68393 -15.55847,-70.03133 0.30658,-0.0574 0.21781,-0.50901 -0.0816,-0.47351 -34.47775,4.03023 -35.69449,59.45799 -7.47376,73.20575 37.8537,18.44199 74.56341,-49.17556 32.99585,-64.56282 z"
       id="path633"
       style="display:inline;fill:#6fc4bc;fill-opacity:1;stroke:#6fc4bc;stroke-width:2;stroke-dasharray:none;stroke-opacity:1" /></g><defs
     id="defs376"><path
       id="B"
       d="M405.631 525.184l-.101 5.645.034 2.251c-.605 2.688-1.714 4.704-2.386 4.704-.739 0-1.075-.672-1.075-1.714 0-3.763.269-6.35.605-9.542l-3.898-.37c-.37 3.494-.638 6.418-.638 10.416 0 3.024 1.579 4.805 4.2 4.805 1.21 0 2.453-1.042 3.595-2.722.235 1.042.37 2.016.437 2.856l3.326.336c-.202-2.654-.269-6.955-.269-11.021l.067-5.309z" /><path
       id="C"
       d="M441.451 516.616l.101 5.275-.034 4.166c-.974-.47-1.982-.806-3.192-.806-2.386 0-4.334 5.846-4.334 9.811 0 3.494.907 6.149 4.603 6.149 1.21 0 2.218-1.075 3.125-2.89l.202 3.158 2.99.269c.336-6.182.538-11.827.538-17.942l-.067-6.854zm.134 15.792c-.84 3.125-1.949 5.174-2.52 5.174-.907 0-1.142-1.075-1.142-2.52 0-2.621.84-6.518 2.05-6.518.538 0 1.109.235 1.646.638z" /><path
       id="D"
       d="M451.536 531.668c.269-1.344 1.008-2.923 1.915-2.923 1.142 0 1.277 1.512 1.277 2.654v.907c-3.394.067-6.72 2.15-6.72 5.275 0 2.419 1.512 4.032 4.032 4.032 1.075 0 2.117-.403 2.99-.907l.269 1.075 2.822.235c.235-3.595.403-7.09.403-10.147 0-3.528-1.109-6.787-4.67-6.787-2.99 0-4.805 3.158-5.41 6.283zm3.024 6.586c-.739.302-1.344.403-1.848.403-.773 0-1.277-.403-1.277-1.075 0-.806.874-1.949 3.192-2.15z" /><path
       id="E"
       d="M524.61 526.427c-.571-.672-1.445-1.21-2.419-1.21-1.109 0-2.318 1.378-3.326 3.528a13.02 13.02 0 0 1-.538-1.714l-2.52-.269c.47 2.554.605 5.947.605 9.509l-.101 5.443 3.898.336.134-5.779-.067-3.562c.403-2.083 1.075-3.562 2.117-3.562.538 0 1.008.134 1.344.37z" /><path
       id="F"
       d="M540.247 516.716c-.302 5.074-.504 10.954-.504 16.666 0 2.722.034 5.544.134 8.165l3.965.37c-.168-2.755-.168-5.678-.168-8.534 0-5.712.202-11.256.504-16.363z" /><path
       id="G"
       d="M580.526 534.558c-.034-2.554.034-9.307-4.872-9.307-4.67 0-6.082 6.048-6.082 10.08 0 4.234 2.318 6.653 5.006 6.653 3.091 0 4.637-2.318 5.611-4.066l-2.554-1.512c-.638 1.075-1.579 2.453-2.722 2.453-.638 0-1.21-1.109-1.344-2.957 2.184-.302 5.275-.874 6.955-1.344zm-4.872-6.014c.773 0 1.075 2.083 1.075 4.2-1.008.269-2.083.504-3.091.706.134-2.486.974-4.906 2.016-4.906z" /><path
       id="H"
       d="M514.391 451.429q-.457.633-1.23 2.109-.492 0-.738-.211-.387.141-1.195.633.773.316 2.004 1.02-.457.141-1.934 1.477-1.477.527-4.465 1.195-.914.563-1.266 1.582l-8.965 1.125q-9.633-.633-15.363-4.359-4.148-4.254-5.203-9.738-.387-.773-.387-1.23 0-3.445 2.953-8.332 3.305-5.379 7.277-6.996.211-.105 1.16-.105 1.688-1.441 5.941-2.496 3.762-.914 6.469-.914 2.355 0 5.414 1.723-.07.141-.07.844.668.141 1.582.387 0 .211.457.703 0 1.301.984 3.375v1.547q0 .281-.422.703.246.352.246.773 0 .773-.668 1.758-.07.492-.141 1.406-.809 1.09-2.039 3.27l-7.629 5.52q1.125.668 6.188.809l8.93.211q.598 1.02 2.109 2.215zm-16.805-15.75q.035.035.035.035-.07 0-.281-.598-2.742 1.09-3.656 1.582-2.602 1.371-3.516 2.918.246 0 .527.246 4.887-1.863 6.891-4.184z" /><symbol
       id="v"
       overflow="visible"><path
         d="m18.766-1.125c-0.96875 0.5-1.9805 0.875-3.0312 1.125-1.043 0.25781-2.1367 0.39062-3.2812 0.39062-3.3984 0-6.0898-0.94531-8.0781-2.8438-1.9922-1.9062-2.9844-4.4844-2.9844-7.7344 0-3.2578 0.99219-5.8359 2.9844-7.7344 1.9883-1.9062 4.6797-2.8594 8.0781-2.8594 1.1445 0 2.2383 0.13281 3.2812 0.39062 1.0508 0.25 2.0625 0.625 3.0312 1.125v4.2188c-0.98047-0.65625-1.9453-1.1406-2.8906-1.4531-0.94922-0.3125-1.9492-0.46875-3-0.46875-1.875 0-3.3516 0.60547-4.4219 1.8125-1.0742 1.1992-1.6094 2.8555-1.6094 4.9688 0 2.1055 0.53516 3.7617 1.6094 4.9688 1.0703 1.1992 2.5469 1.7969 4.4219 1.7969 1.0508 0 2.0508-0.14844 3-0.45312 0.94531-0.3125 1.9102-0.80078 2.8906-1.4688z"
         id="path565" /></symbol><symbol
       id="c"
       overflow="visible"><path
         d="m13.734-11.141c-0.4375-0.19531-0.87109-0.34375-1.2969-0.4375-0.41797-0.10156-0.83984-0.15625-1.2656-0.15625-1.2617 0-2.2305 0.40625-2.9062 1.2188-0.67969 0.80469-1.0156 1.9531-1.0156 3.4531v7.0625h-4.8906v-15.312h4.8906v2.5156c0.625-1 1.3438-1.7266 2.1562-2.1875 0.82031-0.46875 1.8008-0.70312 2.9375-0.70312 0.16406 0 0.34375 0.011719 0.53125 0.03125 0.19531 0.011719 0.47656 0.039062 0.84375 0.078125z"
         id="path568" /></symbol><symbol
       id="a"
       overflow="visible"><path
         d="m17.641-7.7031v1.4062h-11.453c0.125 1.1484 0.53906 2.0078 1.25 2.5781 0.70703 0.57422 1.7031 0.85938 2.9844 0.85938 1.0312 0 2.082-0.14844 3.1562-0.45312 1.082-0.3125 2.1914-0.77344 3.3281-1.3906v3.7656c-1.1562 0.4375-2.3125 0.76562-3.4688 0.98438-1.1562 0.22656-2.3125 0.34375-3.4688 0.34375-2.7734 0-4.9297-0.70312-6.4688-2.1094-1.5312-1.4062-2.2969-3.3789-2.2969-5.9219 0-2.5 0.75391-4.4609 2.2656-5.8906 1.5078-1.4375 3.582-2.1562 6.2188-2.1562 2.4062 0 4.332 0.73047 5.7812 2.1875 1.4453 1.4492 2.1719 3.3828 2.1719 5.7969zm-5.0312-1.625c0-0.92578-0.27344-1.6719-0.8125-2.2344-0.54297-0.57031-1.25-0.85938-2.125-0.85938-0.94922 0-1.7188 0.26562-2.3125 0.79688s-0.96484 1.2969-1.1094 2.2969z"
         id="path571" /></symbol><symbol
       id="f"
       overflow="visible"><path
         d="m9.2188-6.8906c-1.0234 0-1.793 0.17188-2.3125 0.51562-0.51172 0.34375-0.76562 0.85547-0.76562 1.5312 0 0.625 0.20703 1.1172 0.625 1.4688 0.41406 0.34375 0.98828 0.51562 1.7188 0.51562 0.92578 0 1.7031-0.32812 2.3281-0.98438 0.63281-0.66406 0.95312-1.4922 0.95312-2.4844v-0.5625zm7.4688-1.8438v8.7344h-4.9219v-2.2656c-0.65625 0.92969-1.3984 1.6055-2.2188 2.0312-0.82422 0.41406-1.8242 0.625-3 0.625-1.5859 0-2.8711-0.45703-3.8594-1.375-0.99219-0.92578-1.4844-2.1289-1.4844-3.6094 0-1.7891 0.61328-3.1016 1.8438-3.9375 1.2383-0.84375 3.1797-1.2656 5.8281-1.2656h2.8906v-0.39062c0-0.76953-0.30859-1.332-0.92188-1.6875-0.61719-0.36328-1.5703-0.54688-2.8594-0.54688-1.0547 0-2.0312 0.10547-2.9375 0.3125-0.89844 0.21094-1.7305 0.52344-2.5 0.9375v-3.7344c1.0391-0.25 2.0859-0.44141 3.1406-0.57812 1.0625-0.13281 2.125-0.20312 3.1875-0.20312 2.7578 0 4.75 0.54688 5.9688 1.6406 1.2266 1.0859 1.8438 2.8555 1.8438 5.3125z"
         id="path574" /></symbol><symbol
       id="b"
       overflow="visible"><path
         d="m7.7031-19.656v4.3438h5.0469v3.5h-5.0469v6.5c0 0.71094 0.14062 1.1875 0.42188 1.4375s0.83594 0.375 1.6719 0.375h2.5156v3.5h-4.1875c-1.9375 0-3.3125-0.39844-4.125-1.2031-0.80469-0.8125-1.2031-2.1797-1.2031-4.1094v-6.5h-2.4219v-3.5h2.4219v-4.3438z"
         id="path577" /></symbol><symbol
       id="k"
       overflow="visible"><path
         d="m12.766-13.078v-8.2031h4.9219v21.281h-4.9219v-2.2188c-0.66797 0.90625-1.4062 1.5703-2.2188 1.9844s-1.7578 0.625-2.8281 0.625c-1.8867 0-3.4336-0.75-4.6406-2.25-1.2109-1.5-1.8125-3.4258-1.8125-5.7812 0-2.3633 0.60156-4.2969 1.8125-5.7969 1.207-1.5 2.7539-2.25 4.6406-2.25 1.0625 0 2 0.21484 2.8125 0.64062 0.82031 0.42969 1.5664 1.0859 2.2344 1.9688zm-3.2188 9.9219c1.0391 0 1.8359-0.37891 2.3906-1.1406 0.55078-0.76953 0.82812-1.8828 0.82812-3.3438 0-1.457-0.27734-2.5664-0.82812-3.3281-0.55469-0.76953-1.3516-1.1562-2.3906-1.1562-1.043 0-1.8398 0.38672-2.3906 1.1562-0.55469 0.76172-0.82812 1.8711-0.82812 3.3281 0 1.4609 0.27344 2.5742 0.82812 3.3438 0.55078 0.76172 1.3477 1.1406 2.3906 1.1406z"
         id="path580" /></symbol><symbol
       id="j"
       overflow="visible"><path
         d="m10.5-3.1562c1.0508 0 1.8516-0.37891 2.4062-1.1406 0.55078-0.76953 0.82812-1.8828 0.82812-3.3438 0-1.457-0.27734-2.5664-0.82812-3.3281-0.55469-0.76953-1.3555-1.1562-2.4062-1.1562-1.0547 0-1.8594 0.38672-2.4219 1.1562-0.55469 0.77344-0.82812 1.8828-0.82812 3.3281 0 1.4492 0.27344 2.5586 0.82812 3.3281 0.5625 0.77344 1.3672 1.1562 2.4219 1.1562zm-3.25-9.9219c0.67578-0.88281 1.4219-1.5391 2.2344-1.9688 0.82031-0.42578 1.7656-0.64062 2.8281-0.64062 1.8945 0 3.4453 0.75 4.6562 2.25 1.207 1.5 1.8125 3.4336 1.8125 5.7969 0 2.3555-0.60547 4.2812-1.8125 5.7812-1.2109 1.5-2.7617 2.25-4.6562 2.25-1.0625 0-2.0078-0.21094-2.8281-0.625-0.8125-0.42578-1.5586-1.0859-2.2344-1.9844v2.2188h-4.8906v-21.281h4.8906z"
         id="path583" /></symbol><symbol
       id="i"
       overflow="visible"><path
         d="m0.34375-15.312h4.8906l4.125 10.391 3.5-10.391h4.8906l-6.4375 16.766c-0.64844 1.6953-1.4023 2.8828-2.2656 3.5625-0.86719 0.6875-2 1.0312-3.4062 1.0312h-2.8438v-3.2188h1.5312c0.83203 0 1.4375-0.13672 1.8125-0.40625 0.38281-0.26172 0.67969-0.73047 0.89062-1.4062l0.14062-0.42188z"
         id="path586" /></symbol><symbol
       id="h"
       overflow="visible"><path
         d="m2.5781-20.406h5.25v18.422c0 2.5391-0.69531 4.4414-2.0781 5.7031-1.375 1.2578-3.4609 1.8906-6.25 1.8906h-1.0781v-3.9844h0.82812c1.0938 0 1.9219-0.30859 2.4844-0.92188 0.5625-0.60547 0.84375-1.5 0.84375-2.6875z"
         id="path589" /></symbol><symbol
       id="e"
       overflow="visible"><path
         d="m16.547-12.766c0.61328-0.94531 1.3477-1.6719 2.2031-2.1719 0.85156-0.5 1.7891-0.75 2.8125-0.75 1.7578 0 3.0977 0.54688 4.0156 1.6406 0.92578 1.0859 1.3906 2.6562 1.3906 4.7188v9.3281h-4.9219v-7.9844-0.35938c0.007813-0.13281 0.015625-0.32031 0.015625-0.5625 0-1.082-0.16406-1.8633-0.48438-2.3438-0.3125-0.48828-0.82422-0.73438-1.5312-0.73438-0.92969 0-1.6484 0.38672-2.1562 1.1562-0.51172 0.76172-0.77344 1.8672-0.78125 3.3125v7.5156h-4.9219v-7.9844c0-1.6953-0.14844-2.7852-0.4375-3.2656-0.29297-0.48828-0.8125-0.73438-1.5625-0.73438-0.9375 0-1.6641 0.38672-2.1719 1.1562-0.51172 0.76172-0.76562 1.8594-0.76562 3.2969v7.5312h-4.9219v-15.312h4.9219v2.2344c0.60156-0.86328 1.2891-1.5156 2.0625-1.9531 0.78125-0.4375 1.6406-0.65625 2.5781-0.65625 1.0625 0 2 0.25781 2.8125 0.76562 0.8125 0.51172 1.4258 1.2305 1.8438 2.1562z"
         id="path592" /></symbol><symbol
       id="u"
       overflow="visible"><path
         d="m14.312-14.828v3.7188c-1.043-0.4375-2.0547-0.76562-3.0312-0.98438-0.98047-0.21875-1.9023-0.32812-2.7656-0.32812-0.92969 0-1.6211 0.11719-2.0781 0.34375-0.44922 0.23047-0.67188 0.58984-0.67188 1.0781 0 0.38672 0.17188 0.68359 0.51562 0.89062 0.34375 0.21094 0.95703 0.36719 1.8438 0.46875l0.85938 0.125c2.5078 0.32422 4.1953 0.85156 5.0625 1.5781 0.86328 0.73047 1.2969 1.8711 1.2969 3.4219 0 1.6367-0.60547 2.8672-1.8125 3.6875-1.1992 0.8125-2.9922 1.2188-5.375 1.2188-1.0234 0-2.0742-0.078125-3.1562-0.23438-1.0742-0.15625-2.1797-0.39453-3.3125-0.71875v-3.7188c0.96875 0.48047 1.9609 0.83984 2.9844 1.0781 1.0312 0.23047 2.0781 0.34375 3.1406 0.34375 0.95703 0 1.6758-0.12891 2.1562-0.39062 0.47656-0.26953 0.71875-0.66406 0.71875-1.1875 0-0.4375-0.16797-0.75781-0.5-0.96875-0.33594-0.21875-0.99609-0.38281-1.9844-0.5l-0.85938-0.10938c-2.1797-0.26953-3.7031-0.77344-4.5781-1.5156-0.875-0.73828-1.3125-1.8594-1.3125-3.3594 0-1.625 0.55078-2.8281 1.6562-3.6094 1.1133-0.78906 2.8203-1.1875 5.125-1.1875 0.89453 0 1.8359 0.074219 2.8281 0.21875 1 0.13672 2.082 0.35156 3.25 0.64062z"
         id="path595" /></symbol><symbol
       id="t"
       overflow="visible"><path
         d="m16.781-19.766v4.3125c-1.125-0.5-2.2266-0.875-3.2969-1.125-1.0625-0.25781-2.0703-0.39062-3.0156-0.39062-1.25 0-2.1797 0.17969-2.7812 0.53125-0.60547 0.34375-0.90625 0.88281-0.90625 1.6094 0 0.54297 0.20312 0.96875 0.60938 1.2812 0.40625 0.30469 1.1406 0.5625 2.2031 0.78125l2.25 0.45312c2.2695 0.44922 3.8789 1.1406 4.8281 2.0781 0.95703 0.92969 1.4375 2.2461 1.4375 3.9531 0 2.25-0.66797 3.9297-2 5.0312-1.3359 1.0938-3.3711 1.6406-6.1094 1.6406-1.3047 0-2.6055-0.125-3.9062-0.375-1.3047-0.23828-2.6055-0.59766-3.9062-1.0781v-4.4531c1.3008 0.69922 2.5625 1.2266 3.7812 1.5781 1.2188 0.34375 2.3906 0.51562 3.5156 0.51562 1.1562 0 2.0352-0.1875 2.6406-0.5625 0.61328-0.38281 0.92188-0.9375 0.92188-1.6562 0-0.63281-0.21094-1.125-0.625-1.4688-0.41797-0.34375-1.2461-0.65625-2.4844-0.9375l-2.0312-0.4375c-2.043-0.4375-3.5391-1.1328-4.4844-2.0938-0.9375-0.95703-1.4062-2.25-1.4062-3.875 0-2.0312 0.65625-3.5938 1.9688-4.6875s3.1953-1.6406 5.6562-1.6406c1.125 0 2.2734 0.085938 3.4531 0.25 1.1875 0.16797 2.4141 0.42188 3.6875 0.76562z"
         id="path598" /></symbol><symbol
       id="s"
       overflow="visible"><path
         d="m2.3594-15.312h4.8906v15.312h-4.8906zm0-5.9688h4.8906v4h-4.8906z"
         id="path601" /></symbol><symbol
       id="g"
       overflow="visible"><path
         d="m17.75-9.3281v9.3281h-4.9219v-7.1094c0-1.3438-0.03125-2.2656-0.09375-2.7656s-0.16797-0.86719-0.3125-1.1094c-0.1875-0.3125-0.44922-0.55469-0.78125-0.73438-0.32422-0.17578-0.69531-0.26562-1.1094-0.26562-1.0234 0-1.8242 0.39844-2.4062 1.1875-0.58594 0.78125-0.875 1.8711-0.875 3.2656v7.5312h-4.8906v-21.281h4.8906v8.2031c0.73828-0.88281 1.5195-1.5391 2.3438-1.9688 0.83203-0.42578 1.75-0.64062 2.75-0.64062 1.7695 0 3.1133 0.54688 4.0312 1.6406 0.91406 1.0859 1.375 2.6562 1.375 4.7188z"
         id="path604" /></symbol><symbol
       id="r"
       overflow="visible"><path
         d="m12.422-21.281v3.2188h-2.7031c-0.6875 0-1.1719 0.125-1.4531 0.375-0.27344 0.25-0.40625 0.6875-0.40625 1.3125v1.0625h4.1875v3.5h-4.1875v11.812h-4.8906v-11.812h-2.4375v-3.5h2.4375v-1.0625c0-1.6641 0.46094-2.8984 1.3906-3.7031 0.92578-0.80078 2.3672-1.2031 4.3281-1.2031z"
         id="path607" /></symbol><symbol
       id="d"
       overflow="visible"><path
         d="m9.6406-12.188c-1.0859 0-1.9141 0.39062-2.4844 1.1719-0.57422 0.78125-0.85938 1.9062-0.85938 3.375s0.28516 2.5938 0.85938 3.375c0.57031 0.77344 1.3984 1.1562 2.4844 1.1562 1.0625 0 1.875-0.38281 2.4375-1.1562 0.57031-0.78125 0.85938-1.9062 0.85938-3.375s-0.28906-2.5938-0.85938-3.375c-0.5625-0.78125-1.375-1.1719-2.4375-1.1719zm0-3.5c2.6328 0 4.6914 0.71484 6.1719 2.1406 1.4766 1.418 2.2188 3.3867 2.2188 5.9062 0 2.5117-0.74219 4.4805-2.2188 5.9062-1.4805 1.418-3.5391 2.125-6.1719 2.125-2.6484 0-4.7148-0.70703-6.2031-2.125-1.4922-1.4258-2.2344-3.3945-2.2344-5.9062 0-2.5195 0.74219-4.4883 2.2344-5.9062 1.4883-1.4258 3.5547-2.1406 6.2031-2.1406z"
         id="path610" /></symbol><symbol
       id="q"
       overflow="visible"><path
         d="m2.5781-20.406h5.875l7.4219 14v-14h4.9844v20.406h-5.875l-7.4219-14v14h-4.9844z"
         id="path613" /></symbol><symbol
       id="p"
       overflow="visible"><path
         d="m2.1875-5.9688v-9.3438h4.9219v1.5312c0 0.83594-0.007813 1.875-0.015625 3.125-0.011719 1.25-0.015625 2.0859-0.015625 2.5 0 1.2422 0.03125 2.1328 0.09375 2.6719 0.070313 0.54297 0.17969 0.93359 0.32812 1.1719 0.20703 0.32422 0.47266 0.57422 0.79688 0.75 0.32031 0.16797 0.69141 0.25 1.1094 0.25 1.0195 0 1.8203-0.39062 2.4062-1.1719 0.58203-0.78125 0.875-1.8672 0.875-3.2656v-7.5625h4.8906v15.312h-4.8906v-2.2188c-0.74219 0.89844-1.5234 1.5586-2.3438 1.9844-0.82422 0.41406-1.7344 0.625-2.7344 0.625-1.7617 0-3.1055-0.53906-4.0312-1.625-0.92969-1.082-1.3906-2.6602-1.3906-4.7344z"
         id="path616" /></symbol><symbol
       id="o"
       overflow="visible"><path
         d="m17.75-9.3281v9.3281h-4.9219v-7.1406c0-1.3203-0.03125-2.2344-0.09375-2.7344s-0.16797-0.86719-0.3125-1.1094c-0.1875-0.3125-0.44922-0.55469-0.78125-0.73438-0.32422-0.17578-0.69531-0.26562-1.1094-0.26562-1.0234 0-1.8242 0.39844-2.4062 1.1875-0.58594 0.78125-0.875 1.8711-0.875 3.2656v7.5312h-4.8906v-15.312h4.8906v2.2344c0.73828-0.88281 1.5195-1.5391 2.3438-1.9688 0.83203-0.42578 1.75-0.64062 2.75-0.64062 1.7695 0 3.1133 0.54688 4.0312 1.6406 0.91406 1.0859 1.375 2.6562 1.375 4.7188z"
         id="path619" /></symbol><symbol
       id="n"
       overflow="visible"><path
         d="m2.5781-20.406h8.7344c2.5938 0 4.582 0.57812 5.9688 1.7344 1.3945 1.1484 2.0938 2.7891 2.0938 4.9219 0 2.1367-0.69922 3.7812-2.0938 4.9375-1.3867 1.1562-3.375 1.7344-5.9688 1.7344h-3.4844v7.0781h-5.25zm5.25 3.8125v5.7031h2.9219c1.0195 0 1.8047-0.25 2.3594-0.75 0.5625-0.5 0.84375-1.2031 0.84375-2.1094 0-0.91406-0.28125-1.6172-0.84375-2.1094-0.55469-0.48828-1.3398-0.73438-2.3594-0.73438z"
         id="path622" /></symbol><symbol
       id="m"
       overflow="visible"><path
         d="m2.3594-15.312h4.8906v15.031c0 2.0508-0.49609 3.6172-1.4844 4.7031-0.98047 1.082-2.4062 1.625-4.2812 1.625h-2.4219v-3.2188h0.85938c0.92578 0 1.5625-0.21094 1.9062-0.625 0.35156-0.41797 0.53125-1.2461 0.53125-2.4844zm0-5.9688h4.8906v4h-4.8906z"
         id="path625" /></symbol><symbol
       id="l"
       overflow="visible"><path
         d="m14.719-14.828v3.9844c-0.65625-0.45703-1.3242-0.79688-2-1.0156-0.66797-0.21875-1.3594-0.32812-2.0781-0.32812-1.3672 0-2.4336 0.40234-3.2031 1.2031-0.76172 0.79297-1.1406 1.9062-1.1406 3.3438 0 1.4297 0.37891 2.543 1.1406 3.3438 0.76953 0.79297 1.8359 1.1875 3.2031 1.1875 0.75781 0 1.4844-0.10938 2.1719-0.32812 0.6875-0.22656 1.3203-0.56641 1.9062-1.0156v4c-0.76172 0.28125-1.5391 0.48828-2.3281 0.625-0.78125 0.14453-1.5742 0.21875-2.375 0.21875-2.7617 0-4.9219-0.70703-6.4844-2.125-1.5547-1.4141-2.3281-3.3828-2.3281-5.9062 0-2.5312 0.77344-4.5039 2.3281-5.9219 1.5625-1.4141 3.7227-2.125 6.4844-2.125 0.80078 0 1.5938 0.074219 2.375 0.21875 0.78125 0.13672 1.5547 0.35156 2.3281 0.64062z"
         id="path628" /></symbol><clipPath
       clipPathUnits="userSpaceOnUse"
       id="clipPath16"><path
         d="m 0,0 c 384.379,0 768.746,0 1153.1,0 747.31,0 1494.62,0 2241.91,0 840.73,0 1681.44,0 2522.15,0 846.2,0 1692.42,0 2538.63,0 824.22,0 1648.51,0 2472.71,0 357.2,0 714.3,0 1071.5,0 0,400.898 0,801.801 0,1202.8 0,756.1 0,1512.29 0,2268.48 0,901.58 0,1803.17 0,2704.76 0,777.95 0,1555.95 0,2333.94 0,683.47 0,1366.93 0,2050.42 0,479.9 0,959.7 0,1439.6 -357.2,0 -714.3,0 -1071.5,0 -824.2,0 -1648.49,0 -2472.71,0 -846.21,0 -1692.43,0 -2538.63,0 -840.71,0 -1681.42,0 -2522.15,0 -747.29,0 -1494.6,0 -2241.91,0 -384.354,0 -768.721,0 -1153.1,0 0,-479.9 0,-959.7 0,-1439.6 C 0,9876.91 0,9193.45 0,8509.98 0,7731.99 0,6953.99 0,6176.04 0,5274.45 0,4372.86 0,3471.28 0,2715.09 0,1958.9 0,1202.8 0,801.801 0,400.898 0,0"
         id="path14" /></clipPath></defs></svg>
